<?xml version="1.0" standalone="no"?>
<!DOCTYPE svg PUBLIC "-//W3C//DTD SVG 1.1//EN" "http://www.w3.org/Graphics/SVG/1.1/DTD/svg11.dtd" >
<svg xmlns="http://www.w3.org/2000/svg" xmlns:xlink="http://www.w3.org/1999/xlink" version="1.1">
<metadata>
Created by FontForge 20150824 at Sat Aug 27 03:13:11 2016
 By Everything Fonts
Copyright (c) 2013 by Eimantas Paskonis. All rights reserved.
</metadata>
<defs>
<font id="Neris-Black" horiz-adv-x="554" >
  <font-face 
    font-family="Neris"
    font-weight="900"
    font-stretch="normal"
    units-per-em="1000"
    panose-1="0 0 10 0 0 0 0 0 0 0"
    ascent="755"
    descent="-245"
    x-height="491"
    cap-height="709"
    bbox="-135.787 -237 1384 1097"
    underline-thickness="69"
    underline-position="-120"
    stemh="151"
    stemv="155"
    unicode-range="U+000D-F6D0"
  />
<missing-glyph horiz-adv-x="485" 
 />
    <glyph glyph-name="Idieresis_Idieresis.liga" unicode="&#xcf;&#xcf;" horiz-adv-x="584" 
d="M50 938c56 0 87 -28 87 -82s-31 -82 -87 -82c-58 0 -88 28 -88 82s30 82 88 82zM272 938c56 0 86 -28 86 -82s-30 -82 -86 -82c-58 0 -89 28 -89 82s31 82 89 82zM500 938c56 0 87 -28 87 -82s-31 -82 -87 -82c-58 0 -88 28 -88 82s30 82 88 82zM214 0h-136
c-8 0 -13 5 -13 13v683c0 8 5 13 13 13h136c8 0 13 -5 13 -13v-683c0 -8 -5 -13 -13 -13zM506 0h-136c-8 0 -13 5 -13 13v683c0 8 5 13 13 13h136c8 0 13 -5 13 -13v-683c0 -8 -5 -13 -13 -13z" />
    <glyph glyph-name="idieresis_idieresis.liga" unicode="&#xef;&#xef;" horiz-adv-x="593" 
d="M93 737c51 0 80 -30 80 -82s-29 -83 -80 -83c-50 0 -80 31 -80 83s30 82 80 82zM298 737c51 0 80 -29 80 -82c0 -52 -29 -83 -80 -83c-50 0 -80 31 -80 83c0 53 30 82 80 82zM504 737c51 0 80 -30 80 -82s-29 -83 -80 -83c-50 0 -80 31 -80 83s30 82 80 82zM240 0h-132
c-8 0 -13 5 -13 13v339h-52c-8 0 -13 5 -13 13v113c0 8 5 13 13 13h197c8 0 13 -5 13 -13v-465c0 -8 -5 -13 -13 -13zM536 0h-132c-8 0 -13 5 -13 13v339h-52c-8 0 -13 5 -13 13v113c0 8 5 13 13 13h197c8 0 13 -5 13 -13v-465c0 -8 -5 -13 -13 -13z" />
    <glyph glyph-name="uni021B_i.liga" unicode="&#x21b;i" horiz-adv-x="703" 
d="M555 555c-56 0 -89 35 -89 92c0 58 33 91 89 91c57 0 89 -33 89 -91c0 -57 -32 -92 -89 -92zM253 491h381c8 0 13 -5 13 -13v-465c0 -8 -5 -13 -13 -13h-132c-8 0 -13 5 -13 13v339h-236v-182c0 -26 10 -41 26 -41c9 0 17 1 25 4s14 2 18 -6l47 -96c3 -7 2 -14 -4 -18
c-24 -16 -56 -24 -86 -24c-116 0 -184 67 -184 181v182h-52c-8 0 -13 5 -13 13v113c0 8 5 13 13 13h52v109c0 7 3 12 11 15l132 44c9 3 15 -1 15 -11v-157zM180 -220l17 30c12 18 8 27 -8 31c-22 6 -37 29 -37 56c0 35 24 56 64 56c38 0 63 -23 63 -65
c0 -35 -20 -67 -33 -90l-17 -26c-4 -5 -9 -8 -16 -8h-24c-10 0 -14 7 -9 16z" />
    <glyph glyph-name="t_icircumflex.liga" unicode="t&#xee;" horiz-adv-x="770" 
d="M551 622l-40 -57c-4 -6 -9 -8 -16 -8h-91c-10 0 -14 6 -9 15l76 147c4 6 8 9 16 9h128c7 0 12 -3 15 -9l77 -147c5 -9 1 -15 -9 -15h-92c-7 0 -12 2 -16 8zM253 491h381c8 0 13 -5 13 -13v-465c0 -8 -5 -13 -13 -13h-132c-8 0 -13 5 -13 13v339h-236v-182
c0 -26 10 -41 26 -41c9 0 17 1 25 4s14 2 18 -6l47 -96c3 -7 2 -14 -4 -18c-24 -16 -56 -24 -86 -24c-116 0 -184 67 -184 181v182h-52c-8 0 -13 5 -13 13v113c0 8 5 13 13 13h52v109c0 7 3 12 11 15l132 44c9 3 15 -1 15 -11v-157z" />
    <glyph glyph-name="f_f_thorn.liga" unicode="ff&#xfe;" horiz-adv-x="1330" 
d="M971 715v-109c0 -54 -7 -88 -25 -126c-5 -11 2 -23 16 -14c32 23 71 36 108 36c144 0 224 -99 224 -256c0 -158 -89 -257 -232 -257c-29 0 -48 4 -67 12l-24 10v-218c0 -8 -5 -13 -13 -13h-133c-8 0 -13 5 -13 13v796h-146c-33 0 -54 -15 -54 -55v-43h113
c8 0 13 -5 13 -13v-113c0 -8 -5 -13 -13 -13h-113v-339c0 -8 -5 -13 -13 -13h-132c-8 0 -13 5 -13 13v339h-201v-339c0 -8 -5 -13 -13 -13h-132c-8 0 -13 5 -13 13v339h-52c-8 0 -13 5 -13 13v113c0 8 5 13 13 13h52v50c0 124 76 198 204 198c19 0 41 -4 69 -11l7 -2
c8 -2 12 -7 9 -16l-30 -108c-3 -9 -8 -12 -17 -9l-4 1c-10 3 -20 4 -34 4c-28 0 -46 -21 -46 -57v-50h201v43c0 128 79 194 212 194h292c8 0 13 -5 13 -13zM969 151l20 -9c15 -8 40 -13 61 -13c57 0 89 44 89 117s-33 115 -90 115c-51 0 -80 -37 -80 -98v-112z" />
    <glyph glyph-name="f_imacron.liga" unicode="f&#x12b;" horiz-adv-x="669" 
d="M96 491v50c0 124 74 198 200 198c12 0 29 -1 58 -6l16 -3c8 -1 12 -7 11 -15l-21 -112c-1 -9 -6 -12 -15 -11l-15 3c-15 2 -23 3 -34 3c-25 0 -42 -21 -42 -57v-50h346c8 0 13 -5 13 -13v-465c0 -8 -5 -13 -13 -13h-132c-8 0 -13 5 -13 13v339h-201v-339
c0 -8 -5 -13 -13 -13h-132c-8 0 -13 5 -13 13v339h-53c-8 0 -13 5 -13 13v113c0 8 5 13 13 13h53zM429 692h197c8 0 13 -5 13 -13v-79c0 -8 -5 -13 -13 -13h-197c-8 0 -13 5 -13 13v79c0 8 5 13 13 13z" />
    <glyph glyph-name="t_imacron.liga" unicode="t&#x12b;" horiz-adv-x="728" 
d="M423 692h236c8 0 13 -5 13 -13v-79c0 -8 -5 -13 -13 -13h-236c-8 0 -13 5 -13 13v79c0 8 5 13 13 13zM253 491h381c8 0 13 -5 13 -13v-465c0 -8 -5 -13 -13 -13h-132c-8 0 -13 5 -13 13v339h-236v-182c0 -26 10 -41 26 -41c9 0 17 1 25 4s14 2 18 -6l47 -96
c3 -7 2 -14 -4 -18c-24 -16 -56 -24 -86 -24c-116 0 -184 67 -184 181v182h-52c-8 0 -13 5 -13 13v113c0 8 5 13 13 13h52v109c0 7 3 12 11 15l132 44c9 3 15 -1 15 -11v-157z" />
    <glyph glyph-name="t_iogonek.liga" unicode="t&#x12f;" horiz-adv-x="703" 
d="M555 555c-56 0 -89 35 -89 92c0 58 33 91 89 91c57 0 89 -33 89 -91c0 -57 -32 -92 -89 -92zM615 -123l28 -77c3 -8 1 -13 -8 -16l-15 -5c-15 -6 -33 -9 -56 -9c-75 0 -125 33 -125 93c0 30 12 55 36 76l30 27c24 20 18 34 -6 34c-6 0 -10 5 -10 13v339h-236v-182
c0 -26 10 -41 26 -41c9 0 17 1 25 4s14 2 18 -6l47 -96c3 -7 2 -14 -4 -18c-24 -16 -56 -24 -86 -24c-116 0 -184 67 -184 181v182h-52c-8 0 -13 5 -13 13v113c0 8 5 13 13 13h52v109c0 7 3 12 11 15l132 44c9 3 15 -1 15 -11v-157h381c8 0 13 -5 13 -13v-478
c0 -17 -5 -27 -35 -53l-49 -42c-7 -6 -9 -10 -9 -17s3 -11 13 -11c7 0 16 2 25 5l7 2c8 3 14 1 16 -7z" />
    <glyph glyph-name="f_iacute.liga" unicode="f&#xed;" horiz-adv-x="669" 
d="M96 491v50c0 124 74 198 200 198c12 0 29 -1 58 -6l16 -3c8 -1 12 -7 11 -15l-21 -112c-1 -9 -6 -12 -15 -11l-15 3c-15 2 -23 3 -34 3c-25 0 -42 -21 -42 -57v-50h346c8 0 13 -5 13 -13v-465c0 -8 -5 -13 -13 -13h-132c-8 0 -13 5 -13 13v339h-201v-339
c0 -8 -5 -13 -13 -13h-132c-8 0 -13 5 -13 13v339h-53c-8 0 -13 5 -13 13v113c0 8 5 13 13 13h53zM654 713l-78 -147c-3 -6 -8 -9 -15 -9h-100c-9 0 -13 6 -11 15l41 145c2 7 7 11 14 11h139c11 0 15 -6 10 -15z" />
    <glyph glyph-name="f_lcaron.liga" unicode="f&#x13e;" horiz-adv-x="732" 
d="M613 715v-567c0 -11 4 -19 13 -19h6c8 2 14 0 17 -7l41 -104c3 -8 1 -14 -6 -17c-18 -8 -40 -12 -58 -12c-107 0 -172 59 -172 159v441h-147c-33 0 -54 -15 -54 -55v-43h113c8 0 13 -5 13 -13v-113c0 -8 -5 -13 -13 -13h-113v-339c0 -8 -5 -13 -13 -13h-132
c-8 0 -13 5 -13 13v339h-52c-8 0 -13 5 -13 13v113c0 8 5 13 13 13h52v43c0 128 79 194 212 194h293c8 0 13 -5 13 -13zM685 728h90c8 0 13 -5 13 -13v-36c0 -27 -6 -64 -24 -97l-8 -16c-4 -6 -8 -9 -16 -9h-73c-9 0 -14 5 -11 14l5 22c8 25 10 51 11 79v43c0 8 5 13 13 13z
" />
    <glyph glyph-name="t_iacute.liga" unicode="t&#xed;" horiz-adv-x="751" 
d="M688 713l-78 -147c-3 -6 -8 -9 -15 -9h-100c-9 0 -13 6 -11 15l41 145c2 7 7 11 14 11h139c11 0 15 -6 10 -15zM253 491h381c8 0 13 -5 13 -13v-465c0 -8 -5 -13 -13 -13h-132c-8 0 -13 5 -13 13v339h-236v-182c0 -26 10 -41 26 -41c9 0 17 1 25 4s14 2 18 -6l47 -96
c3 -7 2 -14 -4 -18c-24 -16 -56 -24 -86 -24c-116 0 -184 67 -184 181v182h-52c-8 0 -13 5 -13 13v113c0 8 5 13 13 13h52v109c0 7 3 12 11 15l132 44c9 3 15 -1 15 -11v-157z" />
    <glyph glyph-name="t_igrave.liga" unicode="t&#xec;" horiz-adv-x="703" 
d="M609 557h-100c-7 0 -12 3 -15 9l-78 147c-5 9 -1 15 10 15h139c7 0 12 -4 14 -11l41 -145c2 -9 -2 -15 -11 -15zM253 491h381c8 0 13 -5 13 -13v-465c0 -8 -5 -13 -13 -13h-132c-8 0 -13 5 -13 13v339h-236v-182c0 -26 10 -41 26 -41c9 0 17 1 25 4s14 2 18 -6l47 -96
c3 -7 2 -14 -4 -18c-24 -16 -56 -24 -86 -24c-116 0 -184 67 -184 181v182h-52c-8 0 -13 5 -13 13v113c0 8 5 13 13 13h52v109c0 7 3 12 11 15l132 44c9 3 15 -1 15 -11v-157z" />
    <glyph glyph-name="tcaron_j.liga" unicode="&#x165;j" horiz-adv-x="704" 
d="M557 555c-56 0 -89 35 -89 92c0 58 33 91 89 91c57 0 89 -33 89 -91c0 -57 -32 -92 -89 -92zM401 582l-8 -16c-4 -6 -8 -9 -16 -9h-73c-9 0 -14 5 -11 14l5 22c8 25 10 51 11 79v43c0 8 5 13 13 13h90c8 0 13 -5 13 -13v-36c0 -27 -6 -64 -24 -97zM253 491h382
c8 0 13 -5 13 -13v-462c0 -100 -48 -170 -151 -230l-22 -12c-7 -5 -13 -3 -17 5l-56 106c-4 7 -2 13 5 17l18 11c44 26 65 57 65 103v336h-237v-182c0 -26 10 -41 26 -41c9 0 17 1 25 4s14 2 18 -6l47 -96c3 -7 2 -14 -4 -18c-24 -16 -56 -24 -86 -24
c-116 0 -184 67 -184 181v182h-52c-8 0 -13 5 -13 13v113c0 8 5 13 13 13h52v109c0 7 3 12 11 15l132 44c9 3 15 -1 15 -11v-157z" />
    <glyph glyph-name="tcaron_t.liga" unicode="&#x165;t" horiz-adv-x="803" 
d="M401 582l-8 -16c-4 -6 -8 -9 -16 -9h-73c-9 0 -14 5 -11 14l5 22c8 25 10 51 11 79v43c0 8 5 13 13 13h90c8 0 13 -5 13 -13v-36c0 -27 -6 -64 -24 -97zM637 352v-182c0 -26 10 -41 26 -41c9 0 17 1 25 4s14 2 18 -6l47 -96c3 -7 2 -14 -4 -18c-24 -16 -56 -24 -86 -24
c-116 0 -184 67 -184 181v182h-226v-182c0 -26 10 -41 26 -41c9 0 17 1 25 4s14 2 18 -6l47 -96c3 -7 2 -14 -4 -18c-24 -16 -56 -24 -86 -24c-116 0 -184 67 -184 181v182h-52c-8 0 -13 5 -13 13v113c0 8 5 13 13 13h52v109c0 7 3 12 11 15l132 44c9 3 15 -1 15 -11v-157
h226v109c0 7 3 12 11 15l132 44c9 3 15 -1 15 -11v-157h113c8 0 13 -5 13 -13v-113c0 -8 -5 -13 -13 -13h-113z" />
    <glyph glyph-name="f_f_t_i.liga" unicode="ffti" horiz-adv-x="1415" 
d="M966 491h381c8 0 13 -5 13 -13v-465c0 -8 -5 -13 -13 -13h-132c-8 0 -13 5 -13 13v339h-236v-182c0 -26 10 -41 26 -41c9 0 17 1 25 4s14 2 18 -6l47 -96c3 -7 2 -14 -4 -18c-24 -16 -56 -24 -86 -24c-116 0 -184 67 -184 181v182h-196v-339c0 -8 -5 -13 -13 -13h-132
c-8 0 -13 5 -13 13v339h-201v-339c0 -8 -5 -13 -13 -13h-132c-8 0 -13 5 -13 13v339h-52c-8 0 -13 5 -13 13v113c0 8 5 13 13 13h52v50c0 124 76 198 204 198c19 0 41 -4 69 -11l7 -2c8 -2 12 -7 9 -16l-30 -108c-3 -9 -8 -12 -17 -9l-4 1c-10 3 -20 4 -34 4
c-28 0 -46 -21 -46 -57v-50h201v50c0 124 76 198 204 198c19 0 41 -4 69 -11l7 -2c8 -2 12 -7 9 -16l-30 -108c-3 -9 -8 -12 -17 -9l-4 1c-10 3 -20 4 -34 4c-28 0 -46 -21 -46 -57v-50h196v109c0 7 3 12 11 15l132 44c9 3 15 -1 15 -11v-157zM1268 555c-56 0 -89 35 -89 92
c0 58 33 91 89 91c57 0 89 -33 89 -91c0 -57 -32 -92 -89 -92z" />
    <glyph glyph-name="f_t_t_i.liga" unicode="ftti" horiz-adv-x="1440" 
d="M991 491h380c8 0 13 -5 13 -13v-465c0 -8 -5 -13 -13 -13h-132c-8 0 -13 5 -13 13v339h-235v-182c0 -26 10 -41 26 -41c9 0 17 1 25 4s14 2 18 -6l47 -96c3 -7 2 -14 -4 -18c-24 -16 -56 -24 -86 -24c-116 0 -184 67 -184 181v182h-226v-182c0 -26 10 -41 26 -41
c9 0 17 1 25 4s14 2 18 -6l47 -96c3 -7 2 -14 -4 -18c-24 -16 -56 -24 -86 -24c-116 0 -184 67 -184 181v182h-196v-339c0 -8 -5 -13 -13 -13h-132c-8 0 -13 5 -13 13v339h-52c-8 0 -13 5 -13 13v113c0 8 5 13 13 13h52v50c0 124 76 198 204 198c19 0 41 -4 69 -11l7 -2
c8 -2 12 -7 9 -16l-30 -108c-3 -9 -8 -12 -17 -9l-4 1c-10 3 -20 4 -34 4c-28 0 -46 -21 -46 -57v-50h196v109c0 7 3 12 11 15l132 44c9 3 15 -1 15 -11v-157h226v109c0 7 3 12 11 15l132 44c9 3 15 -1 15 -11v-157zM1292 555c-56 0 -89 35 -89 92c0 58 33 91 89 91
c57 0 89 -33 89 -91c0 -57 -32 -92 -89 -92z" />
    <glyph glyph-name="f_thorn.liga" unicode="f&#xfe;" horiz-adv-x="971" 
d="M613 715v-109c0 -54 -7 -88 -25 -126c-5 -11 2 -23 16 -14c32 23 71 36 108 36c144 0 224 -99 224 -256c0 -158 -89 -257 -232 -257c-29 0 -48 4 -67 12l-24 10v-218c0 -8 -5 -13 -13 -13h-133c-8 0 -13 5 -13 13v796h-147c-33 0 -54 -15 -54 -55v-43h113
c8 0 13 -5 13 -13v-113c0 -8 -5 -13 -13 -13h-113v-339c0 -8 -5 -13 -13 -13h-132c-8 0 -13 5 -13 13v339h-52c-8 0 -13 5 -13 13v113c0 8 5 13 13 13h52v43c0 128 79 194 212 194h293c8 0 13 -5 13 -13zM611 151l20 -9c15 -8 40 -13 61 -13c57 0 89 44 89 117
s-33 115 -90 115c-51 0 -80 -37 -80 -98v-112z" />
    <glyph glyph-name="f_f_b.liga" unicode="ffb" horiz-adv-x="1330" 
d="M971 715v-109c0 -54 -5 -83 -24 -123c-8 -17 2 -27 18 -15c30 21 64 34 113 34c133 0 216 -99 216 -256c0 -158 -92 -257 -244 -257c-38 0 -80 5 -122 22l-106 42c-7 3 -10 7 -10 15v521h-146c-33 0 -54 -15 -54 -55v-43h113c8 0 13 -5 13 -13v-113c0 -8 -5 -13 -13 -13
h-113v-339c0 -8 -5 -13 -13 -13h-132c-8 0 -13 5 -13 13v339h-201v-339c0 -8 -5 -13 -13 -13h-132c-8 0 -13 5 -13 13v339h-52c-8 0 -13 5 -13 13v113c0 8 5 13 13 13h52v50c0 124 76 198 204 198c19 0 41 -4 69 -11l7 -2c8 -2 12 -7 9 -16l-30 -108c-3 -9 -8 -12 -17 -9
l-4 1c-10 3 -20 4 -34 4c-28 0 -46 -21 -46 -57v-50h201v43c0 128 79 194 212 194h292c8 0 13 -5 13 -13zM969 151l20 -9c18 -7 41 -13 61 -13c56 0 89 44 89 117s-34 115 -87 115c-58 0 -83 -42 -83 -98v-112z" />
    <glyph glyph-name="f_f_h.liga" unicode="ffh" horiz-adv-x="1311" 
d="M971 715v-109c0 -54 -7 -88 -25 -126c-6 -12 0 -23 17 -13c33 23 68 35 108 35c118 0 190 -68 190 -185v-304c0 -8 -5 -13 -13 -13h-133c-8 0 -13 5 -13 13v284c0 41 -21 64 -56 64c-46 0 -74 -34 -75 -102v-246c0 -8 -5 -13 -13 -13h-133c-8 0 -13 5 -13 13v576h-146
c-33 0 -54 -15 -54 -55v-43h113c8 0 13 -5 13 -13v-113c0 -8 -5 -13 -13 -13h-113v-339c0 -8 -5 -13 -13 -13h-132c-8 0 -13 5 -13 13v339h-201v-339c0 -8 -5 -13 -13 -13h-132c-8 0 -13 5 -13 13v339h-52c-8 0 -13 5 -13 13v113c0 8 5 13 13 13h52v50c0 124 76 198 204 198
c19 0 41 -4 69 -11l7 -2c8 -2 12 -7 9 -16l-30 -108c-3 -9 -8 -12 -17 -9l-4 1c-10 3 -20 4 -34 4c-28 0 -46 -21 -46 -57v-50h201v43c0 128 79 194 212 194h292c8 0 13 -5 13 -13z" />
    <glyph glyph-name="f_f_i.liga" unicode="ffi" horiz-adv-x="1032" 
d="M613 491h346c8 0 13 -5 13 -13v-465c0 -8 -5 -13 -13 -13h-132c-8 0 -13 5 -13 13v339h-201v-339c0 -8 -5 -13 -13 -13h-132c-8 0 -13 5 -13 13v339h-202v-339c0 -8 -5 -13 -13 -13h-132c-8 0 -13 5 -13 13v339h-52c-8 0 -13 5 -13 13v113c0 8 5 13 13 13h52v50
c0 124 76 198 204 198c19 0 41 -4 69 -11l7 -2c8 -2 12 -7 9 -16l-30 -108c-3 -9 -8 -12 -17 -9l-4 1c-10 3 -20 4 -34 4c-28 0 -46 -21 -46 -57v-50h202v50c0 124 74 198 200 198c12 0 29 -1 58 -6l16 -3c8 -1 12 -7 11 -15l-21 -112c-1 -9 -6 -12 -15 -11l-15 3
c-15 2 -23 3 -34 3c-25 0 -42 -21 -42 -57v-50zM887 555c-54 0 -88 35 -88 92c0 58 34 91 88 91c56 0 90 -33 90 -91c0 -57 -34 -92 -90 -92z" />
    <glyph glyph-name="f_f_j.liga" unicode="ffj" horiz-adv-x="1034" 
d="M613 491h346c8 0 13 -5 13 -13v-462c0 -100 -48 -171 -150 -230l-20 -12c-7 -5 -13 -3 -17 5l-57 104c-4 7 -2 13 4 18l17 11c44 25 65 58 65 104v336h-201v-339c0 -8 -5 -13 -13 -13h-132c-8 0 -13 5 -13 13v339h-202v-339c0 -8 -5 -13 -13 -13h-132c-8 0 -13 5 -13 13
v339h-52c-8 0 -13 5 -13 13v113c0 8 5 13 13 13h52v50c0 124 76 198 204 198c19 0 41 -4 69 -11l7 -2c8 -2 12 -7 9 -16l-30 -108c-3 -9 -8 -12 -17 -9l-4 1c-10 3 -20 4 -34 4c-28 0 -46 -21 -46 -57v-50h202v50c0 124 74 198 199 198c12 0 29 -1 58 -6l16 -3
c8 -1 12 -7 11 -15l-21 -112c-1 -9 -6 -12 -15 -11l-15 3c-15 2 -22 3 -34 3c-25 0 -41 -21 -41 -57v-50zM889 555c-54 0 -88 35 -88 92c0 58 34 91 88 91c56 0 90 -33 90 -91c0 -57 -34 -92 -90 -92z" />
    <glyph glyph-name="f_f_k.liga" unicode="ffk" horiz-adv-x="1326" 
d="M1203 180l85 -165c5 -9 1 -15 -9 -15h-143c-8 0 -12 3 -16 9l-54 107c-20 37 -41 63 -87 63h-8v-166c0 -8 -5 -13 -13 -13h-133c-8 0 -13 5 -13 13v576h-146c-33 0 -54 -15 -54 -55v-43h113c8 0 13 -5 13 -13v-113c0 -8 -5 -13 -13 -13h-113v-339c0 -8 -5 -13 -13 -13
h-132c-8 0 -13 5 -13 13v339h-201v-339c0 -8 -5 -13 -13 -13h-132c-8 0 -13 5 -13 13v339h-52c-8 0 -13 5 -13 13v113c0 8 5 13 13 13h52v50c0 124 76 198 204 198c19 0 41 -4 69 -11l7 -2c8 -2 12 -7 9 -16l-30 -108c-3 -9 -8 -12 -17 -9l-4 1c-10 3 -20 4 -34 4
c-28 0 -46 -21 -46 -57v-50h201v43c0 128 79 194 212 194h292c8 0 13 -5 13 -13v-397h9c43 0 61 33 80 69l49 95c4 6 8 9 16 9h143c10 0 14 -6 9 -15l-80 -156c-18 -34 -42 -53 -73 -65c-3 -1 -4 -6 0 -8c31 -14 63 -35 79 -67z" />
    <glyph glyph-name="f_f_l.liga" unicode="ffl" horiz-adv-x="1074" 
d="M1007 122l41 -104c3 -8 1 -14 -6 -17c-18 -8 -40 -12 -58 -12c-107 0 -172 59 -172 159v441h-146c-33 0 -54 -15 -54 -55v-43h113c8 0 13 -5 13 -13v-113c0 -8 -5 -13 -13 -13h-113v-339c0 -8 -5 -13 -13 -13h-132c-8 0 -13 5 -13 13v339h-201v-339c0 -8 -5 -13 -13 -13
h-132c-8 0 -13 5 -13 13v339h-52c-8 0 -13 5 -13 13v113c0 8 5 13 13 13h52v50c0 124 76 198 204 198c19 0 41 -4 69 -11l7 -2c8 -2 12 -7 9 -16l-30 -108c-3 -9 -8 -12 -17 -9l-4 1c-10 3 -20 4 -34 4c-28 0 -46 -21 -46 -57v-50h201v43c0 128 79 194 212 194h292
c8 0 13 -5 13 -13v-567c0 -11 4 -19 13 -19h6c8 2 14 0 17 -7z" />
    <glyph glyph-name="f_f_t.liga" unicode="fft" horiz-adv-x="1132" 
d="M966 352v-182c0 -26 10 -41 26 -41c9 0 17 1 25 4s14 2 18 -6l47 -96c3 -7 2 -14 -4 -18c-24 -16 -56 -24 -86 -24c-116 0 -184 67 -184 181v182h-196v-339c0 -8 -5 -13 -13 -13h-132c-8 0 -13 5 -13 13v339h-201v-339c0 -8 -5 -13 -13 -13h-132c-8 0 -13 5 -13 13v339
h-52c-8 0 -13 5 -13 13v113c0 8 5 13 13 13h52v50c0 124 76 198 204 198c19 0 41 -4 69 -11l7 -2c8 -2 12 -7 9 -16l-30 -108c-3 -9 -8 -12 -17 -9l-4 1c-10 3 -20 4 -34 4c-28 0 -46 -21 -46 -57v-50h201v50c0 124 76 198 204 198c19 0 41 -4 69 -11l7 -2c8 -2 12 -7 9 -16
l-30 -108c-3 -9 -8 -12 -17 -9l-4 1c-10 3 -20 4 -34 4c-28 0 -46 -21 -46 -57v-50h196v109c0 7 3 12 11 15l132 44c9 3 15 -1 15 -11v-157h113c8 0 13 -5 13 -13v-113c0 -8 -5 -13 -13 -13h-113z" />
    <glyph glyph-name="f_t_i.liga" unicode="fti" horiz-adv-x="1056" 
d="M607 491h381c8 0 13 -5 13 -13v-465c0 -8 -5 -13 -13 -13h-132c-8 0 -13 5 -13 13v339h-236v-182c0 -26 10 -41 26 -41c9 0 17 1 25 4s14 2 18 -6l47 -96c3 -7 2 -14 -4 -18c-24 -16 -56 -24 -86 -24c-116 0 -184 67 -184 181v182h-196v-339c0 -8 -5 -13 -13 -13h-132
c-8 0 -13 5 -13 13v339h-52c-8 0 -13 5 -13 13v113c0 8 5 13 13 13h52v50c0 124 76 198 204 198c19 0 41 -4 69 -11l7 -2c8 -2 12 -7 9 -16l-30 -108c-3 -9 -8 -12 -17 -9l-4 1c-10 3 -20 4 -34 4c-28 0 -46 -21 -46 -57v-50h196v109c0 7 3 12 11 15l132 44
c9 3 15 -1 15 -11v-157zM909 555c-56 0 -89 35 -89 92c0 58 33 91 89 91c57 0 89 -33 89 -91c0 -57 -32 -92 -89 -92z" />
    <glyph glyph-name="f_t_t.liga" unicode="ftt" horiz-adv-x="1157" 
d="M991 352v-182c0 -26 10 -41 26 -41c9 0 17 1 25 4s14 2 18 -6l47 -96c3 -7 2 -14 -4 -18c-24 -16 -56 -24 -86 -24c-116 0 -184 67 -184 181v182h-226v-182c0 -26 10 -41 26 -41c9 0 17 1 25 4s14 2 18 -6l47 -96c3 -7 2 -14 -4 -18c-24 -16 -56 -24 -86 -24
c-116 0 -184 67 -184 181v182h-196v-339c0 -8 -5 -13 -13 -13h-132c-8 0 -13 5 -13 13v339h-52c-8 0 -13 5 -13 13v113c0 8 5 13 13 13h52v50c0 124 76 198 204 198c19 0 41 -4 69 -11l7 -2c8 -2 12 -7 9 -16l-30 -108c-3 -9 -8 -12 -17 -9l-4 1c-10 3 -20 4 -34 4
c-28 0 -46 -21 -46 -57v-50h196v109c0 7 3 12 11 15l132 44c9 3 15 -1 15 -11v-157h226v109c0 7 3 12 11 15l132 44c9 3 15 -1 15 -11v-157h113c8 0 13 -5 13 -13v-113c0 -8 -5 -13 -13 -13h-113z" />
    <glyph glyph-name="t_t_i.liga" unicode="tti" horiz-adv-x="1086" 
d="M939 555c-56 0 -89 35 -89 92c0 58 33 91 89 91c57 0 89 -33 89 -91c0 -57 -32 -92 -89 -92zM637 491h381c8 0 13 -5 13 -13v-465c0 -8 -5 -13 -13 -13h-132c-8 0 -13 5 -13 13v339h-236v-182c0 -26 10 -41 26 -41c9 0 17 1 25 4s14 2 18 -6l47 -96c3 -7 2 -14 -4 -18
c-24 -16 -56 -24 -86 -24c-116 0 -184 67 -184 181v182h-226v-182c0 -26 10 -41 26 -41c9 0 17 1 25 4s14 2 18 -6l47 -96c3 -7 2 -14 -4 -18c-24 -16 -56 -24 -86 -24c-116 0 -184 67 -184 181v182h-52c-8 0 -13 5 -13 13v113c0 8 5 13 13 13h52v109c0 7 3 12 11 15l132 44
c9 3 15 -1 15 -11v-157h226v109c0 7 3 12 11 15l132 44c9 3 15 -1 15 -11v-157z" />
    <glyph glyph-name="t_t_j.liga" unicode="ttj" horiz-adv-x="1087" 
d="M941 555c-56 0 -89 35 -89 92c0 58 33 91 89 91c57 0 89 -33 89 -91c0 -57 -32 -92 -89 -92zM637 491h382c8 0 13 -5 13 -13v-462c0 -100 -48 -170 -151 -230l-22 -12c-7 -5 -13 -3 -17 5l-56 106c-4 7 -2 13 5 17l18 11c44 26 65 57 65 103v336h-237v-182
c0 -26 10 -41 26 -41c9 0 17 1 25 4s14 2 18 -6l47 -96c3 -7 2 -14 -4 -18c-24 -16 -56 -24 -86 -24c-116 0 -184 67 -184 181v182h-226v-182c0 -26 10 -41 26 -41c9 0 17 1 25 4s14 2 18 -6l47 -96c3 -7 2 -14 -4 -18c-24 -16 -56 -24 -86 -24c-116 0 -184 67 -184 181v182
h-52c-8 0 -13 5 -13 13v113c0 8 5 13 13 13h52v109c0 7 3 12 11 15l132 44c9 3 15 -1 15 -11v-157h226v109c0 7 3 12 11 15l132 44c9 3 15 -1 15 -11v-157z" />
    <glyph glyph-name="f_b.liga" unicode="fb" horiz-adv-x="971" 
d="M613 715v-109c0 -54 -5 -83 -24 -123c-8 -17 2 -27 18 -15c30 21 64 34 113 34c133 0 216 -99 216 -256c0 -158 -92 -257 -244 -257c-38 0 -80 5 -122 22l-106 42c-7 3 -10 7 -10 15v521h-147c-33 0 -54 -15 -54 -55v-43h113c8 0 13 -5 13 -13v-113c0 -8 -5 -13 -13 -13
h-113v-339c0 -8 -5 -13 -13 -13h-132c-8 0 -13 5 -13 13v339h-52c-8 0 -13 5 -13 13v113c0 8 5 13 13 13h52v43c0 128 79 194 212 194h293c8 0 13 -5 13 -13zM611 151l20 -9c18 -7 41 -13 61 -13c56 0 89 44 89 117s-34 115 -87 115c-58 0 -83 -42 -83 -98v-112z" />
    <glyph glyph-name="f_f.liga" unicode="ff" horiz-adv-x="772" 
d="M612 491h113c8 0 13 -5 13 -13v-113c0 -8 -5 -13 -13 -13h-113v-339c0 -8 -5 -13 -13 -13h-132c-8 0 -13 5 -13 13v339h-201v-339c0 -8 -5 -13 -13 -13h-132c-8 0 -13 5 -13 13v339h-52c-8 0 -13 5 -13 13v113c0 8 5 13 13 13h52v50c0 124 76 198 204 198
c19 0 41 -4 69 -11l7 -2c8 -2 12 -7 9 -16l-30 -108c-3 -9 -8 -12 -17 -9l-4 1c-10 3 -20 4 -34 4c-28 0 -46 -21 -46 -57v-50h201v43c0 128 79 205 212 205c25 0 44 -2 78 -13l21 -6c8 -3 11 -8 8 -16l-33 -110c-3 -8 -8 -11 -16 -8l-17 5c-16 5 -24 7 -41 7
c-33 0 -54 -24 -54 -64v-43z" />
    <glyph glyph-name="f_h.liga" unicode="fh" horiz-adv-x="953" 
d="M613 715v-109c0 -54 -7 -88 -25 -126c-6 -12 0 -23 17 -13c33 23 68 35 108 35c118 0 190 -68 190 -185v-304c0 -8 -5 -13 -13 -13h-133c-8 0 -13 5 -13 13v284c0 41 -21 64 -56 64c-46 0 -74 -34 -75 -102v-246c0 -8 -5 -13 -13 -13h-133c-8 0 -13 5 -13 13v576h-147
c-33 0 -54 -15 -54 -55v-43h113c8 0 13 -5 13 -13v-113c0 -8 -5 -13 -13 -13h-113v-339c0 -8 -5 -13 -13 -13h-132c-8 0 -13 5 -13 13v339h-52c-8 0 -13 5 -13 13v113c0 8 5 13 13 13h52v43c0 128 79 194 212 194h293c8 0 13 -5 13 -13z" />
    <glyph glyph-name="f_i.liga" unicode="fi" horiz-adv-x="674" 
d="M96 491v50c0 124 74 198 200 198c12 0 29 -1 58 -6l16 -3c8 -1 12 -7 11 -15l-21 -112c-1 -9 -6 -12 -15 -11l-15 3c-15 2 -23 3 -34 3c-25 0 -42 -21 -42 -57v-50h346c8 0 13 -5 13 -13v-465c0 -8 -5 -13 -13 -13h-132c-8 0 -13 5 -13 13v339h-201v-339
c0 -8 -5 -13 -13 -13h-132c-8 0 -13 5 -13 13v339h-53c-8 0 -13 5 -13 13v113c0 8 5 13 13 13h53zM528 738c56 0 90 -33 90 -91c0 -57 -34 -92 -90 -92c-54 0 -88 35 -88 92c0 58 34 91 88 91z" />
    <glyph glyph-name="f_j.liga" unicode="fj" horiz-adv-x="676" 
d="M96 491v50c0 124 74 198 199 198c12 0 29 -1 58 -6l16 -3c8 -1 12 -7 11 -15l-21 -112c-1 -9 -6 -12 -15 -11l-15 3c-15 2 -22 3 -34 3c-25 0 -41 -21 -41 -57v-50h346c8 0 13 -5 13 -13v-462c0 -100 -48 -171 -150 -230l-20 -12c-7 -5 -13 -3 -17 5l-57 104
c-4 7 -2 13 4 18l17 11c44 25 65 58 65 104v336h-201v-339c0 -8 -5 -13 -13 -13h-132c-8 0 -13 5 -13 13v339h-53c-8 0 -13 5 -13 13v113c0 8 5 13 13 13h53zM530 738c56 0 90 -33 90 -91c0 -57 -34 -92 -90 -92c-54 0 -88 35 -88 92c0 58 34 91 88 91z" />
    <glyph glyph-name="f_k.liga" unicode="fk" horiz-adv-x="967" 
d="M845 180l85 -165c5 -9 1 -15 -9 -15h-143c-8 0 -12 3 -16 9l-54 107c-20 37 -41 63 -87 63h-8v-166c0 -8 -5 -13 -13 -13h-133c-8 0 -13 5 -13 13v576h-147c-33 0 -54 -15 -54 -55v-43h113c8 0 13 -5 13 -13v-113c0 -8 -5 -13 -13 -13h-113v-339c0 -8 -5 -13 -13 -13
h-132c-8 0 -13 5 -13 13v339h-52c-8 0 -13 5 -13 13v113c0 8 5 13 13 13h52v43c0 128 79 194 212 194h293c8 0 13 -5 13 -13v-397h9c43 0 61 33 80 69l49 95c4 6 8 9 16 9h143c10 0 14 -6 9 -15l-80 -156c-18 -34 -42 -53 -73 -65c-3 -1 -4 -6 0 -8c31 -14 63 -35 79 -67z
" />
    <glyph glyph-name="f_l.liga" unicode="fl" horiz-adv-x="715" 
d="M649 122l41 -104c3 -8 1 -14 -6 -17c-18 -8 -40 -12 -58 -12c-107 0 -172 59 -172 159v441h-147c-33 0 -54 -15 -54 -55v-43h113c8 0 13 -5 13 -13v-113c0 -8 -5 -13 -13 -13h-113v-339c0 -8 -5 -13 -13 -13h-132c-8 0 -13 5 -13 13v339h-52c-8 0 -13 5 -13 13v113
c0 8 5 13 13 13h52v43c0 128 79 194 212 194h293c8 0 13 -5 13 -13v-567c0 -11 4 -19 13 -19h6c8 2 14 0 17 -7z" />
    <glyph glyph-name="f_t.liga" unicode="ft" horiz-adv-x="773" 
d="M607 352v-182c0 -26 10 -41 26 -41c9 0 17 1 25 4s14 2 18 -6l47 -96c3 -7 2 -14 -4 -18c-24 -16 -56 -24 -86 -24c-116 0 -184 67 -184 181v182h-196v-339c0 -8 -5 -13 -13 -13h-132c-8 0 -13 5 -13 13v339h-52c-8 0 -13 5 -13 13v113c0 8 5 13 13 13h52v50
c0 124 76 198 204 198c19 0 41 -4 69 -11l7 -2c8 -2 12 -7 9 -16l-30 -108c-3 -9 -8 -12 -17 -9l-4 1c-10 3 -20 4 -34 4c-28 0 -46 -21 -46 -57v-50h196v109c0 7 3 12 11 15l132 44c9 3 15 -1 15 -11v-157h113c8 0 13 -5 13 -13v-113c0 -8 -5 -13 -13 -13h-113z" />
    <glyph glyph-name="t_i.liga" unicode="ti" horiz-adv-x="703" 
d="M555 555c-56 0 -89 35 -89 92c0 58 33 91 89 91c57 0 89 -33 89 -91c0 -57 -32 -92 -89 -92zM253 491h381c8 0 13 -5 13 -13v-465c0 -8 -5 -13 -13 -13h-132c-8 0 -13 5 -13 13v339h-236v-182c0 -26 10 -41 26 -41c9 0 17 1 25 4s14 2 18 -6l47 -96c3 -7 2 -14 -4 -18
c-24 -16 -56 -24 -86 -24c-116 0 -184 67 -184 181v182h-52c-8 0 -13 5 -13 13v113c0 8 5 13 13 13h52v109c0 7 3 12 11 15l132 44c9 3 15 -1 15 -11v-157z" />
    <glyph glyph-name="t_j.liga" unicode="tj" horiz-adv-x="704" 
d="M557 555c-56 0 -89 35 -89 92c0 58 33 91 89 91c57 0 89 -33 89 -91c0 -57 -32 -92 -89 -92zM253 491h382c8 0 13 -5 13 -13v-462c0 -100 -48 -170 -151 -230l-22 -12c-7 -5 -13 -3 -17 5l-56 106c-4 7 -2 13 5 17l18 11c44 26 65 57 65 103v336h-237v-182
c0 -26 10 -41 26 -41c9 0 17 1 25 4s14 2 18 -6l47 -96c3 -7 2 -14 -4 -18c-24 -16 -56 -24 -86 -24c-116 0 -184 67 -184 181v182h-52c-8 0 -13 5 -13 13v113c0 8 5 13 13 13h52v109c0 7 3 12 11 15l132 44c9 3 15 -1 15 -11v-157z" />
    <glyph glyph-name="t_t.liga" unicode="tt" horiz-adv-x="803" 
d="M637 352v-182c0 -26 10 -41 26 -41c9 0 17 1 25 4s14 2 18 -6l47 -96c3 -7 2 -14 -4 -18c-24 -16 -56 -24 -86 -24c-116 0 -184 67 -184 181v182h-226v-182c0 -26 10 -41 26 -41c9 0 17 1 25 4s14 2 18 -6l47 -96c3 -7 2 -14 -4 -18c-24 -16 -56 -24 -86 -24
c-116 0 -184 67 -184 181v182h-52c-8 0 -13 5 -13 13v113c0 8 5 13 13 13h52v109c0 7 3 12 11 15l132 44c9 3 15 -1 15 -11v-157h226v109c0 7 3 12 11 15l132 44c9 3 15 -1 15 -11v-157h113c8 0 13 -5 13 -13v-113c0 -8 -5 -13 -13 -13h-113z" />
    <glyph glyph-name="uni04070407.liga" unicode="&#x407;&#x407;" horiz-adv-x="584" 
d="M50 938c56 0 87 -28 87 -82s-31 -82 -87 -82c-58 0 -88 28 -88 82s30 82 88 82zM272 938c56 0 86 -28 86 -82s-30 -82 -86 -82c-58 0 -89 28 -89 82s31 82 89 82zM500 938c56 0 87 -28 87 -82s-31 -82 -87 -82c-58 0 -88 28 -88 82s30 82 88 82zM65 13v683
c0 8 5 13 13 13h136c8 0 13 -5 13 -13v-683c0 -8 -5 -13 -13 -13h-136c-8 0 -13 5 -13 13zM357 13v683c0 8 5 13 13 13h136c8 0 13 -5 13 -13v-683c0 -8 -5 -13 -13 -13h-136c-8 0 -13 5 -13 13z" />
    <glyph glyph-name="uni04570457.liga" unicode="&#x457;&#x457;" horiz-adv-x="593" 
d="M93 737c51 0 80 -30 80 -82s-29 -83 -80 -83c-50 0 -80 31 -80 83s30 82 80 82zM298 737c51 0 80 -29 80 -82c0 -52 -29 -83 -80 -83c-50 0 -80 31 -80 83c0 53 30 82 80 82zM504 737c51 0 80 -30 80 -82s-29 -83 -80 -83c-50 0 -80 31 -80 83s30 82 80 82zM95 352h-52
c-8 0 -13 5 -13 13v113c0 8 5 13 13 13h197c8 0 13 -5 13 -13v-465c0 -8 -5 -13 -13 -13h-132c-8 0 -13 5 -13 13v339zM391 352h-52c-8 0 -13 5 -13 13v113c0 8 5 13 13 13h197c8 0 13 -5 13 -13v-465c0 -8 -5 -13 -13 -13h-132c-8 0 -13 5 -13 13v339z" />
    <glyph glyph-name=".notdef" horiz-adv-x="485" 
 />
    <glyph glyph-name="A" unicode="A" horiz-adv-x="748" 
d="M521 94h-294l-30 -84c-3 -7 -8 -10 -15 -10h-141c-10 0 -14 6 -11 15l141 382c37 102 70 200 95 301c2 7 7 11 15 11h186c8 0 13 -4 15 -11c25 -101 58 -199 95 -301l141 -382c3 -9 -1 -15 -11 -15h-141c-7 0 -12 3 -15 10zM470 235l-14 40c-29 79 -61 173 -73 238
c-3 12 -15 12 -18 0c-13 -65 -44 -158 -73 -238l-14 -40h192z" />
    <glyph glyph-name="Aacute" unicode="&#xc1;" horiz-adv-x="748" 
d="M371 927h175c12 0 15 -8 7 -16l-112 -119c-4 -5 -9 -7 -16 -7h-125c-11 0 -14 7 -9 16l65 117c3 6 8 9 15 9zM227 94l-30 -84c-3 -7 -8 -10 -15 -10h-141c-10 0 -14 6 -11 15l141 382c37 102 70 200 95 301c2 7 7 11 15 11h186c8 0 13 -4 15 -11c25 -101 58 -199 95 -301
l141 -382c3 -9 -1 -15 -11 -15h-141c-7 0 -12 3 -15 10l-30 84h-294zM470 235l-14 40c-29 79 -61 173 -73 238c-3 12 -15 12 -18 0c-13 -65 -44 -158 -73 -238l-14 -40h192z" />
    <glyph glyph-name="Abreve" unicode="&#x102;" horiz-adv-x="748" 
d="M531 914v-12c0 -87 -50 -127 -158 -127s-157 40 -157 127v12c0 8 5 13 13 13h95c8 0 13 -5 13 -13v-6c0 -21 10 -36 36 -36s36 15 36 36v6c0 8 5 13 13 13h96c8 0 13 -5 13 -13zM227 94l-30 -84c-3 -7 -8 -10 -15 -10h-141c-10 0 -14 6 -11 15l141 382
c37 102 70 200 95 301c2 7 7 11 15 11h186c8 0 13 -4 15 -11c25 -101 58 -199 95 -301l141 -382c3 -9 -1 -15 -11 -15h-141c-7 0 -12 3 -15 10l-30 84h-294zM470 235l-14 40c-29 79 -61 173 -73 238c-3 12 -15 12 -18 0c-13 -65 -44 -158 -73 -238l-14 -40h192z" />
    <glyph glyph-name="Acaron" unicode="&#x1cd;" horiz-adv-x="748" 
d="M454 785h-161c-7 0 -12 2 -16 7l-99 119c-7 9 -3 16 8 16h113c6 0 11 -2 16 -6l59 -50l59 50c5 4 10 6 16 6h113c11 0 15 -7 8 -16l-100 -119c-4 -5 -9 -7 -16 -7zM577 397l141 -382c3 -9 -1 -15 -11 -15h-141c-7 0 -12 3 -15 10l-30 84h-294l-30 -84
c-3 -7 -8 -10 -15 -10h-141c-10 0 -14 6 -11 15l141 382c37 102 70 200 95 301c2 7 7 11 15 11h186c8 0 13 -4 15 -11c25 -101 58 -199 95 -301zM470 235l-14 40c-29 79 -61 173 -73 238c-3 12 -15 12 -18 0c-13 -65 -44 -158 -73 -238l-14 -40h192z" />
    <glyph glyph-name="Acircumflex" unicode="&#xc2;" horiz-adv-x="748" 
d="M374 841l-59 -50c-5 -4 -10 -6 -16 -6h-113c-11 0 -15 7 -8 16l99 119c4 5 9 7 16 7h161c7 0 12 -2 16 -7l100 -119c7 -9 3 -16 -8 -16h-113c-6 0 -11 2 -16 6zM577 397l141 -382c3 -9 -1 -15 -11 -15h-141c-7 0 -12 3 -15 10l-30 84h-294l-30 -84c-3 -7 -8 -10 -15 -10
h-141c-10 0 -14 6 -11 15l141 382c37 102 70 200 95 301c2 7 7 11 15 11h186c8 0 13 -4 15 -11c25 -101 58 -199 95 -301zM470 235l-14 40c-29 79 -61 173 -73 238c-3 12 -15 12 -18 0c-13 -65 -44 -158 -73 -238l-14 -40h192z" />
    <glyph glyph-name="Adblgrave" unicode="&#x200;" horiz-adv-x="748" 
d="M137 927h133c8 0 12 -3 16 -10l54 -117c4 -9 0 -15 -10 -15h-121c-7 0 -12 3 -15 9l-66 117c-5 9 -1 16 9 16zM362 927h132c7 0 12 -3 15 -11l38 -116c3 -9 -1 -15 -11 -15h-114c-8 0 -12 3 -16 10l-54 117c-4 9 0 15 10 15zM227 94l-30 -84c-3 -7 -8 -10 -15 -10h-141
c-10 0 -14 6 -11 15l141 382c37 102 70 200 95 301c2 7 7 11 15 11h186c8 0 13 -4 15 -11c25 -101 58 -199 95 -301l141 -382c3 -9 -1 -15 -11 -15h-141c-7 0 -12 3 -15 10l-30 84h-294zM470 235l-14 40c-29 79 -61 173 -73 238c-3 12 -15 12 -18 0
c-13 -65 -44 -158 -73 -238l-14 -40h192z" />
    <glyph glyph-name="Adieresis" unicode="&#xc4;" horiz-adv-x="748" 
d="M257 938c56 0 87 -28 87 -82s-31 -82 -87 -82c-57 0 -88 28 -88 82s31 82 88 82zM485 938c56 0 87 -28 87 -82s-31 -82 -87 -82c-57 0 -88 28 -88 82s31 82 88 82zM227 94l-30 -84c-3 -7 -8 -10 -15 -10h-141c-10 0 -14 6 -11 15l141 382c37 102 70 200 95 301
c2 7 7 11 15 11h186c8 0 13 -4 15 -11c25 -101 58 -199 95 -301l141 -382c3 -9 -1 -15 -11 -15h-141c-7 0 -12 3 -15 10l-30 84h-294zM470 235l-14 40c-29 79 -61 173 -73 238c-3 12 -15 12 -18 0c-13 -65 -44 -158 -73 -238l-14 -40h192z" />
    <glyph glyph-name="Agrave" unicode="&#xc0;" horiz-adv-x="748" 
d="M383 918l65 -117c5 -9 2 -16 -9 -16h-125c-7 0 -12 2 -16 7l-112 119c-8 8 -5 16 7 16h175c7 0 12 -3 15 -9zM227 94l-30 -84c-3 -7 -8 -10 -15 -10h-141c-10 0 -14 6 -11 15l141 382c37 102 70 200 95 301c2 7 7 11 15 11h186c8 0 13 -4 15 -11c25 -101 58 -199 95 -301
l141 -382c3 -9 -1 -15 -11 -15h-141c-7 0 -12 3 -15 10l-30 84h-294zM470 235l-14 40c-29 79 -61 173 -73 238c-3 12 -15 12 -18 0c-13 -65 -44 -158 -73 -238l-14 -40h192z" />
    <glyph glyph-name="Ainvertedbreve" unicode="&#x202;" horiz-adv-x="748" 
d="M518 785h-96c-8 0 -13 5 -13 13v6c0 21 -10 36 -36 36s-36 -15 -36 -36v-6c0 -8 -5 -13 -13 -13h-95c-8 0 -13 5 -13 13v12c0 87 49 127 157 127s158 -40 158 -127v-12c0 -8 -5 -13 -13 -13zM227 94l-30 -84c-3 -7 -8 -10 -15 -10h-141c-10 0 -14 6 -11 15l141 382
c37 102 70 200 95 301c2 7 7 11 15 11h186c8 0 13 -4 15 -11c25 -101 58 -199 95 -301l141 -382c3 -9 -1 -15 -11 -15h-141c-7 0 -12 3 -15 10l-30 84h-294zM470 235l-14 40c-29 79 -61 173 -73 238c-3 12 -15 12 -18 0c-13 -65 -44 -158 -73 -238l-14 -40h192z" />
    <glyph glyph-name="Amacron" unicode="&#x100;" horiz-adv-x="748" 
d="M215 910h317c8 0 13 -5 13 -13v-85c0 -8 -5 -13 -13 -13h-317c-8 0 -13 5 -13 13v85c0 8 5 13 13 13zM227 94l-30 -84c-3 -7 -8 -10 -15 -10h-141c-10 0 -14 6 -11 15l141 382c37 102 70 200 95 301c2 7 7 11 15 11h186c8 0 13 -4 15 -11c25 -101 58 -199 95 -301
l141 -382c3 -9 -1 -15 -11 -15h-141c-7 0 -12 3 -15 10l-30 84h-294zM470 235l-14 40c-29 79 -61 173 -73 238c-3 12 -15 12 -18 0c-13 -65 -44 -158 -73 -238l-14 -40h192z" />
    <glyph glyph-name="Aogonek" unicode="&#x104;" horiz-adv-x="748" 
d="M667 -118l10 3c6 3 11 0 13 -8l28 -77c3 -8 1 -13 -8 -16l-15 -5c-15 -6 -33 -9 -56 -9c-74 0 -125 34 -125 92c0 32 12 56 36 77l30 27c24 20 18 34 -6 34h-8c-7 0 -12 3 -15 10l-30 84h-294l-30 -84c-3 -7 -8 -10 -15 -10h-141c-10 0 -14 6 -11 15l141 382
c37 102 70 200 95 301c2 7 7 11 15 11h186c8 0 13 -4 15 -11c25 -101 58 -199 95 -301l143 -389c2 -6 3 -10 2 -16c-1 -13 -9 -23 -35 -45l-49 -42c-7 -6 -9 -10 -9 -16c0 -8 3 -12 11 -12c10 0 18 2 27 5zM470 235l-14 40c-29 79 -61 173 -73 238c-3 12 -15 12 -18 0
c-13 -65 -44 -158 -73 -238l-14 -40h192z" />
    <glyph glyph-name="Aring" unicode="&#xc5;" horiz-adv-x="748" 
d="M373 946c68 0 109 -35 109 -94c0 -56 -41 -90 -109 -90s-109 34 -109 90c0 59 41 94 109 94zM373 889c-24 0 -38 -14 -38 -37s14 -36 38 -36c23 0 37 13 37 36s-14 37 -37 37zM227 94l-30 -84c-3 -7 -8 -10 -15 -10h-141c-10 0 -14 6 -11 15l141 382
c37 102 70 200 95 301c2 7 7 11 15 11h186c8 0 13 -4 15 -11c25 -101 58 -199 95 -301l141 -382c3 -9 -1 -15 -11 -15h-141c-7 0 -12 3 -15 10l-30 84h-294zM470 235l-14 40c-29 79 -61 173 -73 238c-3 12 -15 12 -18 0c-13 -65 -44 -158 -73 -238l-14 -40h192z" />
    <glyph glyph-name="Aringacute" unicode="&#x1fa;" horiz-adv-x="748" 
d="M383 1097h175c12 0 15 -8 7 -16l-112 -119c-4 -5 -9 -7 -16 -7h-125c-11 0 -14 7 -9 16l65 117c3 6 8 9 15 9zM376 927c68 0 109 -35 109 -94c0 -56 -41 -90 -109 -90s-109 34 -109 90c0 59 41 94 109 94zM376 870c-24 0 -38 -14 -38 -37s14 -36 38 -36c23 0 37 13 37 36
s-14 37 -37 37zM227 94l-30 -84c-3 -7 -8 -10 -15 -10h-141c-10 0 -14 6 -11 15l141 382c37 102 70 200 95 301c2 7 7 11 15 11h186c8 0 13 -4 15 -11c25 -101 58 -199 95 -301l141 -382c3 -9 -1 -15 -11 -15h-141c-7 0 -12 3 -15 10l-30 84h-294zM470 235l-14 40
c-29 79 -61 173 -73 238c-3 12 -15 12 -18 0c-13 -65 -44 -158 -73 -238l-14 -40h192z" />
    <glyph glyph-name="Atilde" unicode="&#xc3;" horiz-adv-x="748" 
d="M185 807l27 52c21 43 56 61 102 61c23 0 50 -10 68 -18l29 -12c8 -3 15 -6 19 -6c7 0 15 2 21 15l5 9c3 6 8 9 15 9h83c10 0 14 -6 9 -15l-27 -55c-21 -41 -56 -58 -103 -58c-22 0 -46 9 -64 16l-33 13c-8 3 -15 6 -20 6c-6 0 -13 -2 -20 -14l-4 -9c-4 -6 -8 -9 -16 -9
h-82c-10 0 -14 6 -9 15zM227 94l-30 -84c-3 -7 -8 -10 -15 -10h-141c-10 0 -14 6 -11 15l141 382c37 102 70 200 95 301c2 7 7 11 15 11h186c8 0 13 -4 15 -11c25 -101 58 -199 95 -301l141 -382c3 -9 -1 -15 -11 -15h-141c-7 0 -12 3 -15 10l-30 84h-294zM470 235l-14 40
c-29 79 -61 173 -73 238c-3 12 -15 12 -18 0c-13 -65 -44 -158 -73 -238l-14 -40h192z" />
    <glyph glyph-name="AE" unicode="&#xc6;" horiz-adv-x="952" 
d="M671 141h222c8 0 13 -5 13 -13v-115c0 -8 -5 -13 -13 -13h-327c-7 0 -12 3 -15 10l-30 84h-294l-30 -84c-3 -7 -8 -10 -15 -10h-141c-10 0 -14 6 -10 15l125 341c38 104 87 245 110 342c2 7 7 11 15 11h618c9 0 13 -6 11 -15l-33 -116c-2 -7 -7 -11 -14 -11h-324
c-8 0 -12 -6 -12 -14c0 -11 9 -38 15 -56l22 -62h247c8 0 13 -5 13 -13v-115c0 -8 -5 -13 -13 -13h-196zM470 235l-26 72c-26 73 -46 138 -60 204c-4 15 -16 15 -19 0c-15 -66 -37 -134 -61 -202l-27 -74h193z" />
    <glyph glyph-name="AEacute" unicode="&#x1fc;" horiz-adv-x="952" 
d="M501 927h175c12 0 15 -8 7 -16l-112 -119c-4 -5 -9 -7 -16 -7h-125c-11 0 -14 7 -9 16l65 117c3 6 8 9 15 9zM671 141h222c8 0 13 -5 13 -13v-115c0 -8 -5 -13 -13 -13h-327c-7 0 -12 3 -15 10l-30 84h-294l-30 -84c-3 -7 -8 -10 -15 -10h-141c-10 0 -14 6 -10 15
l125 341c38 104 87 245 110 342c2 7 7 11 15 11h618c9 0 13 -6 11 -15l-33 -116c-2 -7 -7 -11 -14 -11h-324c-8 0 -12 -6 -12 -14c0 -11 9 -38 15 -56l22 -62h247c8 0 13 -5 13 -13v-115c0 -8 -5 -13 -13 -13h-196zM470 235l-26 72c-26 73 -46 138 -60 204
c-4 15 -16 15 -19 0c-15 -66 -37 -134 -61 -202l-27 -74h193z" />
    <glyph glyph-name="B" unicode="B" horiz-adv-x="659" 
d="M78 709h272c154 0 246 -71 246 -190c0 -88 -53 -126 -80 -139c-15 -6 -16 -15 -1 -21c37 -14 103 -58 103 -160c0 -125 -92 -199 -249 -199h-291c-8 0 -13 5 -13 13v683c0 8 5 13 13 13zM227 567v-132h111c65 0 95 22 95 67c0 41 -30 65 -83 65h-123zM227 294v-153h140
c56 0 88 28 88 73c0 54 -33 80 -106 80h-122z" />
    <glyph glyph-name="C" unicode="C" horiz-adv-x="630" 
d="M567 29l-48 -16c-54 -18 -95 -24 -150 -24c-201 0 -324 141 -324 366c0 224 123 365 324 365c57 0 99 -5 149 -21l46 -15c8 -3 11 -8 8 -16l-36 -113c-3 -8 -8 -11 -16 -8l-47 15c-29 9 -58 13 -104 13c-100 0 -161 -81 -161 -220c0 -141 61 -222 161 -222
c37 0 67 3 103 15l47 14c8 3 14 0 16 -8l40 -109c3 -8 1 -13 -8 -16z" />
    <glyph glyph-name="Cacute" unicode="&#x106;" horiz-adv-x="630" 
d="M339 925h175c12 0 15 -8 7 -16l-112 -119c-4 -5 -9 -7 -16 -7h-125c-11 0 -14 7 -9 16l65 117c3 6 8 9 15 9zM567 29l-48 -16c-54 -18 -95 -24 -150 -24c-201 0 -324 141 -324 366c0 224 123 365 324 365c57 0 99 -5 149 -21l46 -15c8 -3 11 -8 8 -16l-36 -113
c-3 -8 -8 -11 -16 -8l-47 15c-29 9 -58 13 -104 13c-100 0 -161 -81 -161 -220c0 -141 61 -222 161 -222c37 0 67 3 103 15l47 14c8 3 14 0 16 -8l40 -109c3 -8 1 -13 -8 -16z" />
    <glyph glyph-name="Ccaron" unicode="&#x10c;" horiz-adv-x="630" 
d="M421 783h-161c-7 0 -12 2 -16 7l-99 119c-7 9 -3 16 8 16h113c6 0 11 -2 16 -6l59 -50l59 50c5 4 10 6 16 6h113c11 0 15 -7 8 -16l-100 -119c-4 -5 -9 -7 -16 -7zM535 154l40 -109c3 -8 1 -13 -8 -16l-48 -16c-54 -18 -95 -24 -150 -24c-201 0 -324 141 -324 366
c0 224 123 365 324 365c57 0 99 -5 149 -21l46 -15c8 -3 11 -8 8 -16l-36 -113c-3 -8 -8 -11 -16 -8l-47 15c-29 9 -58 13 -104 13c-100 0 -161 -81 -161 -220c0 -141 61 -222 161 -222c37 0 67 3 103 15l47 14c8 3 13 0 16 -8z" />
    <glyph glyph-name="Ccedilla" unicode="&#xc7;" horiz-adv-x="630" 
d="M567 29l-48 -16c-50 -17 -89 -23 -139 -24l-8 -20h7c37 0 70 -36 70 -93c0 -63 -39 -106 -113 -106c-23 0 -40 4 -56 9l-16 5c-8 3 -11 8 -8 16l25 73c3 9 8 11 16 8l12 -4c8 -2 16 -3 27 -3c12 0 19 6 19 18s-8 19 -22 19h-37c-7 0 -12 3 -15 9c-3 3 -3 8 -1 15l21 60
c-160 29 -256 162 -256 360c0 224 123 365 324 365c57 0 99 -5 149 -21l46 -15c8 -3 11 -8 8 -16l-36 -113c-3 -8 -8 -11 -16 -8l-47 15c-29 9 -58 13 -104 13c-100 0 -161 -81 -161 -220c0 -141 61 -222 161 -222c37 0 67 3 103 15l47 14c8 3 14 0 16 -8l40 -109
c3 -8 1 -13 -8 -16z" />
    <glyph glyph-name="Ccircumflex" unicode="&#x108;" horiz-adv-x="630" 
d="M341 839l-59 -50c-5 -4 -10 -6 -16 -6h-113c-11 0 -15 7 -8 16l99 119c4 5 9 7 16 7h161c7 0 12 -2 16 -7l100 -119c7 -9 3 -16 -8 -16h-113c-6 0 -11 2 -16 6zM535 154l40 -109c3 -8 1 -13 -8 -16l-48 -16c-54 -18 -95 -24 -150 -24c-201 0 -324 141 -324 366
c0 224 123 365 324 365c57 0 99 -5 149 -21l46 -15c8 -3 11 -8 8 -16l-36 -113c-3 -8 -8 -11 -16 -8l-47 15c-29 9 -58 13 -104 13c-100 0 -161 -81 -161 -220c0 -141 61 -222 161 -222c37 0 67 3 103 15l47 14c8 3 13 0 16 -8z" />
    <glyph glyph-name="Cdotaccent" unicode="&#x10a;" horiz-adv-x="630" 
d="M341 936c62 0 96 -28 96 -82s-34 -82 -96 -82c-64 0 -98 28 -98 82s34 82 98 82zM567 29l-48 -16c-54 -18 -95 -24 -150 -24c-201 0 -324 141 -324 366c0 224 123 365 324 365c57 0 99 -5 149 -21l46 -15c8 -3 11 -8 8 -16l-36 -113c-3 -8 -8 -11 -16 -8l-47 15
c-29 9 -58 13 -104 13c-100 0 -161 -81 -161 -220c0 -141 61 -222 161 -222c37 0 67 3 103 15l47 14c8 3 14 0 16 -8l40 -109c3 -8 1 -13 -8 -16z" />
    <glyph glyph-name="D" unicode="D" horiz-adv-x="691" 
d="M78 709h248c200 0 320 -138 320 -355c0 -212 -124 -354 -320 -354h-248c-8 0 -13 5 -13 13v683c0 8 5 13 13 13zM227 567v-426h99c97 0 157 77 157 213c0 137 -60 213 -157 213h-99z" />
    <glyph glyph-name="Eth" unicode="&#xd0;" horiz-adv-x="754" 
d="M141 709h248c200 0 320 -138 320 -355c0 -212 -124 -354 -320 -354h-248c-8 0 -13 5 -13 13v276h-85c-8 0 -13 5 -13 13v115c0 8 5 13 13 13h85v266c0 8 5 13 13 13zM290 141h99c97 0 157 77 157 213c0 137 -60 213 -157 213h-99v-137h100c8 0 13 -5 13 -13v-115
c0 -8 -5 -13 -13 -13h-100v-148z" />
    <glyph glyph-name="Dcaron" unicode="&#x10e;" horiz-adv-x="691" 
d="M412 785h-161c-7 0 -12 2 -16 7l-99 119c-7 9 -3 16 8 16h113c6 0 11 -2 16 -6l59 -50l59 50c5 4 10 6 16 6h113c11 0 15 -7 8 -16l-100 -119c-4 -5 -9 -7 -16 -7zM78 709h248c200 0 320 -138 320 -355c0 -212 -124 -354 -320 -354h-248c-8 0 -13 5 -13 13v683
c0 8 5 13 13 13zM227 141h99c97 0 157 77 157 213c0 137 -60 213 -157 213h-99v-426z" />
    <glyph glyph-name="Dcroat" unicode="&#x110;" horiz-adv-x="754" 
d="M141 709h248c200 0 320 -138 320 -355c0 -212 -124 -354 -320 -354h-248c-8 0 -13 5 -13 13v276h-85c-8 0 -13 5 -13 13v115c0 8 5 13 13 13h85v266c0 8 5 13 13 13zM290 141h99c97 0 157 77 157 213c0 137 -60 213 -157 213h-99v-137h100c8 0 13 -5 13 -13v-115
c0 -8 -5 -13 -13 -13h-100v-148z" />
    <glyph glyph-name="Ddotbelow" unicode="&#x1e0c;" horiz-adv-x="691" 
d="M78 709h248c200 0 320 -138 320 -355c0 -212 -124 -354 -320 -354h-248c-8 0 -13 5 -13 13v683c0 8 5 13 13 13zM227 141h99c97 0 157 77 157 213c0 137 -60 213 -157 213h-99v-426zM332 -65c62 0 96 -28 96 -82s-34 -82 -96 -82c-64 0 -98 28 -98 82s34 82 98 82z" />
    <glyph glyph-name="E" unicode="E" horiz-adv-x="613" 
d="M227 435h245c8 0 13 -5 13 -13v-115c0 -8 -5 -13 -13 -13h-245v-153h327c8 0 13 -5 13 -13v-115c0 -8 -5 -13 -13 -13h-476c-8 0 -13 5 -13 13v683c0 8 5 13 13 13h481c9 0 13 -6 11 -15l-32 -116c-2 -7 -7 -11 -14 -11h-297v-132z" />
    <glyph glyph-name="Eacute" unicode="&#xc9;" horiz-adv-x="613" 
d="M319 927h175c12 0 15 -8 7 -16l-112 -119c-4 -5 -9 -7 -16 -7h-125c-11 0 -14 7 -9 16l65 117c3 6 8 9 15 9zM227 435h245c8 0 13 -5 13 -13v-115c0 -8 -5 -13 -13 -13h-245v-153h327c8 0 13 -5 13 -13v-115c0 -8 -5 -13 -13 -13h-476c-8 0 -13 5 -13 13v683
c0 8 5 13 13 13h481c9 0 13 -6 11 -15l-32 -116c-2 -7 -7 -11 -14 -11h-297v-132z" />
    <glyph glyph-name="Ebreve" unicode="&#x114;" horiz-adv-x="613" 
d="M479 914v-12c0 -87 -50 -127 -158 -127s-157 40 -157 127v12c0 8 5 13 13 13h95c8 0 13 -5 13 -13v-6c0 -21 10 -36 36 -36s36 15 36 36v6c0 8 5 13 13 13h96c8 0 13 -5 13 -13zM227 435h245c8 0 13 -5 13 -13v-115c0 -8 -5 -13 -13 -13h-245v-153h327c8 0 13 -5 13 -13
v-115c0 -8 -5 -13 -13 -13h-476c-8 0 -13 5 -13 13v683c0 8 5 13 13 13h481c9 0 13 -6 11 -15l-32 -116c-2 -7 -7 -11 -14 -11h-297v-132z" />
    <glyph glyph-name="Ecaron" unicode="&#x11a;" horiz-adv-x="613" 
d="M401 785h-161c-7 0 -12 2 -16 7l-99 119c-7 9 -3 16 8 16h113c6 0 11 -2 16 -6l59 -50l59 50c5 4 10 6 16 6h113c11 0 15 -7 8 -16l-100 -119c-4 -5 -9 -7 -16 -7zM227 141h327c8 0 13 -5 13 -13v-115c0 -8 -5 -13 -13 -13h-476c-8 0 -13 5 -13 13v683c0 8 5 13 13 13
h481c9 0 13 -6 11 -15l-32 -116c-2 -7 -7 -11 -14 -11h-297v-132h245c8 0 13 -5 13 -13v-115c0 -8 -5 -13 -13 -13h-245v-153z" />
    <glyph glyph-name="Ecircumflex" unicode="&#xca;" horiz-adv-x="613" 
d="M321 841l-59 -50c-5 -4 -10 -6 -16 -6h-113c-11 0 -15 7 -8 16l99 119c4 5 9 7 16 7h161c7 0 12 -2 16 -7l100 -119c7 -9 3 -16 -8 -16h-113c-6 0 -11 2 -16 6zM227 141h327c8 0 13 -5 13 -13v-115c0 -8 -5 -13 -13 -13h-476c-8 0 -13 5 -13 13v683c0 8 5 13 13 13h481
c9 0 13 -6 11 -15l-32 -116c-2 -7 -7 -11 -14 -11h-297v-132h245c8 0 13 -5 13 -13v-115c0 -8 -5 -13 -13 -13h-245v-153z" />
    <glyph glyph-name="Edblgrave" unicode="&#x204;" horiz-adv-x="613" 
d="M85 927h133c8 0 12 -3 16 -10l54 -117c4 -9 0 -15 -10 -15h-121c-7 0 -12 3 -15 9l-66 117c-5 9 -1 16 9 16zM310 927h132c7 0 12 -3 15 -11l38 -116c3 -9 -1 -15 -11 -15h-114c-8 0 -12 3 -16 10l-54 117c-4 9 0 15 10 15zM227 435h245c8 0 13 -5 13 -13v-115
c0 -8 -5 -13 -13 -13h-245v-153h327c8 0 13 -5 13 -13v-115c0 -8 -5 -13 -13 -13h-476c-8 0 -13 5 -13 13v683c0 8 5 13 13 13h481c9 0 13 -6 11 -15l-32 -116c-2 -7 -7 -11 -14 -11h-297v-132z" />
    <glyph glyph-name="Edieresis" unicode="&#xcb;" horiz-adv-x="613" 
d="M204 938c56 0 87 -28 87 -82s-31 -82 -87 -82c-57 0 -88 28 -88 82s31 82 88 82zM432 938c56 0 87 -28 87 -82s-31 -82 -87 -82c-57 0 -88 28 -88 82s31 82 88 82zM227 435h245c8 0 13 -5 13 -13v-115c0 -8 -5 -13 -13 -13h-245v-153h327c8 0 13 -5 13 -13v-115
c0 -8 -5 -13 -13 -13h-476c-8 0 -13 5 -13 13v683c0 8 5 13 13 13h481c9 0 13 -6 11 -15l-32 -116c-2 -7 -7 -11 -14 -11h-297v-132z" />
    <glyph glyph-name="Edotaccent" unicode="&#x116;" horiz-adv-x="613" 
d="M321 938c62 0 96 -28 96 -82s-34 -82 -96 -82c-64 0 -98 28 -98 82s34 82 98 82zM227 435h245c8 0 13 -5 13 -13v-115c0 -8 -5 -13 -13 -13h-245v-153h327c8 0 13 -5 13 -13v-115c0 -8 -5 -13 -13 -13h-476c-8 0 -13 5 -13 13v683c0 8 5 13 13 13h481c9 0 13 -6 11 -15
l-32 -116c-2 -7 -7 -11 -14 -11h-297v-132z" />
    <glyph glyph-name="Edotbelow" unicode="&#x1eb8;" horiz-adv-x="613" 
d="M227 435h245c8 0 13 -5 13 -13v-115c0 -8 -5 -13 -13 -13h-245v-153h327c8 0 13 -5 13 -13v-115c0 -8 -5 -13 -13 -13h-476c-8 0 -13 5 -13 13v683c0 8 5 13 13 13h481c9 0 13 -6 11 -15l-32 -116c-2 -7 -7 -11 -14 -11h-297v-132zM321 -65c62 0 96 -28 96 -82
s-34 -82 -96 -82c-64 0 -98 28 -98 82s34 82 98 82z" />
    <glyph glyph-name="Egrave" unicode="&#xc8;" horiz-adv-x="613" 
d="M330 918l65 -117c5 -9 2 -16 -9 -16h-125c-7 0 -12 2 -16 7l-112 119c-8 8 -5 16 7 16h175c7 0 12 -3 15 -9zM227 435h245c8 0 13 -5 13 -13v-115c0 -8 -5 -13 -13 -13h-245v-153h327c8 0 13 -5 13 -13v-115c0 -8 -5 -13 -13 -13h-476c-8 0 -13 5 -13 13v683
c0 8 5 13 13 13h481c9 0 13 -6 11 -15l-32 -116c-2 -7 -7 -11 -14 -11h-297v-132z" />
    <glyph glyph-name="Einvertedbreve" unicode="&#x206;" horiz-adv-x="613" 
d="M466 785h-96c-8 0 -13 5 -13 13v6c0 21 -10 36 -36 36s-36 -15 -36 -36v-6c0 -8 -5 -13 -13 -13h-95c-8 0 -13 5 -13 13v12c0 87 49 127 157 127s158 -40 158 -127v-12c0 -8 -5 -13 -13 -13zM227 435h245c8 0 13 -5 13 -13v-115c0 -8 -5 -13 -13 -13h-245v-153h327
c8 0 13 -5 13 -13v-115c0 -8 -5 -13 -13 -13h-476c-8 0 -13 5 -13 13v683c0 8 5 13 13 13h481c9 0 13 -6 11 -15l-32 -116c-2 -7 -7 -11 -14 -11h-297v-132z" />
    <glyph glyph-name="Emacron" unicode="&#x112;" horiz-adv-x="613" 
d="M162 910h317c8 0 13 -5 13 -13v-85c0 -8 -5 -13 -13 -13h-317c-8 0 -13 5 -13 13v85c0 8 5 13 13 13zM227 435h245c8 0 13 -5 13 -13v-115c0 -8 -5 -13 -13 -13h-245v-153h327c8 0 13 -5 13 -13v-115c0 -8 -5 -13 -13 -13h-476c-8 0 -13 5 -13 13v683c0 8 5 13 13 13h481
c9 0 13 -6 11 -15l-32 -116c-2 -7 -7 -11 -14 -11h-297v-132z" />
    <glyph glyph-name="Eogonek" unicode="&#x118;" horiz-adv-x="613" 
d="M553 -16l-78 -79c-6 -7 -9 -10 -9 -16c0 -8 3 -12 11 -12c9 0 18 2 27 5l8 3c8 3 14 1 17 -7l28 -77c2 -8 0 -13 -8 -16l-17 -6c-15 -6 -33 -9 -56 -9c-75 0 -125 34 -125 92c0 32 17 54 40 77l25 27c22 22 28 34 3 34h-341c-8 0 -13 5 -13 13v683c0 8 5 13 13 13h481
c9 0 13 -6 11 -15l-32 -116c-2 -7 -7 -11 -14 -11h-297v-132h245c8 0 13 -5 13 -13v-115c0 -8 -5 -13 -13 -13h-245v-153h327c8 0 13 -5 13 -13v-128c1 0 -6 -8 -14 -16z" />
    <glyph glyph-name="Etilde" unicode="&#x1ebc;" horiz-adv-x="613" 
d="M132 807l27 52c21 43 56 61 102 61c23 0 50 -10 68 -18l29 -12c8 -3 15 -6 19 -6c7 0 15 2 21 15l5 9c3 6 8 9 15 9h83c10 0 14 -6 9 -15l-27 -55c-21 -41 -56 -58 -103 -58c-22 0 -46 9 -64 16l-33 13c-8 3 -15 6 -20 6c-6 0 -13 -2 -20 -14l-4 -9c-4 -6 -8 -9 -16 -9
h-82c-10 0 -14 6 -9 15zM227 435h245c8 0 13 -5 13 -13v-115c0 -8 -5 -13 -13 -13h-245v-153h327c8 0 13 -5 13 -13v-115c0 -8 -5 -13 -13 -13h-476c-8 0 -13 5 -13 13v683c0 8 5 13 13 13h481c9 0 13 -6 11 -15l-32 -116c-2 -7 -7 -11 -14 -11h-297v-132z" />
    <glyph glyph-name="F" unicode="F" horiz-adv-x="608" 
d="M227 401h255c8 0 13 -5 13 -13v-115c0 -8 -5 -13 -13 -13h-255v-247c0 -8 -5 -13 -13 -13h-136c-8 0 -13 5 -13 13v683c0 8 5 13 13 13h481c9 0 13 -6 11 -15l-32 -116c-2 -7 -7 -11 -14 -11h-297v-166z" />
    <glyph glyph-name="G" unicode="G" horiz-adv-x="688" 
d="M408 401h212c8 0 13 -5 13 -13v-331c0 -7 -3 -12 -11 -14l-93 -29l-12 -4c-51 -16 -88 -21 -149 -21c-201 0 -323 141 -323 365c0 225 122 366 323 366c55 0 96 -7 148 -23l52 -17c9 -3 11 -8 8 -16l-41 -110c-2 -8 -8 -11 -16 -8l-48 15c-33 11 -63 14 -103 14
c-100 0 -160 -82 -160 -221c0 -138 60 -221 160 -221c36 0 71 3 100 13l11 3v110h-107c-9 0 -13 6 -11 15l33 116c2 7 7 11 14 11z" />
    <glyph glyph-name="Gacute" unicode="&#x1f4;" horiz-adv-x="688" 
d="M345 925h175c12 0 15 -8 7 -16l-112 -119c-4 -5 -9 -7 -16 -7h-125c-11 0 -14 7 -9 16l65 117c3 6 8 9 15 9zM633 388v-331c0 -7 -3 -12 -11 -14l-93 -29l-12 -4c-51 -16 -88 -21 -149 -21c-201 0 -323 141 -323 365c0 225 122 366 323 366c55 0 96 -7 148 -23l52 -17
c9 -3 11 -8 8 -16l-41 -110c-2 -8 -8 -11 -16 -8l-48 15c-33 11 -63 14 -103 14c-100 0 -160 -82 -160 -221c0 -138 60 -221 160 -221c36 0 71 3 100 13l11 3v110h-107c-9 0 -13 6 -11 15l33 116c2 7 7 11 14 11h212c8 0 13 -5 13 -13z" />
    <glyph glyph-name="Gbreve" unicode="&#x11e;" horiz-adv-x="688" 
d="M505 912v-12c0 -87 -50 -127 -158 -127s-157 40 -157 127v12c0 8 5 13 13 13h95c8 0 13 -5 13 -13v-6c0 -21 10 -36 36 -36s36 15 36 36v6c0 8 5 13 13 13h96c8 0 13 -5 13 -13zM633 388v-331c0 -7 -3 -12 -11 -14l-93 -29l-12 -4c-51 -16 -88 -21 -149 -21
c-201 0 -323 141 -323 365c0 225 122 366 323 366c55 0 96 -7 148 -23l52 -17c9 -3 11 -8 8 -16l-41 -110c-2 -8 -8 -11 -16 -8l-48 15c-33 11 -63 14 -103 14c-100 0 -160 -82 -160 -221c0 -138 60 -221 160 -221c36 0 71 3 100 13l11 3v110h-107c-9 0 -13 6 -11 15l33 116
c2 7 7 11 14 11h212c8 0 13 -5 13 -13z" />
    <glyph glyph-name="Gcircumflex" unicode="&#x11c;" horiz-adv-x="688" 
d="M348 839l-59 -50c-5 -4 -10 -6 -16 -6h-113c-11 0 -15 7 -8 16l99 119c4 5 9 7 16 7h161c7 0 12 -2 16 -7l100 -119c7 -9 3 -16 -8 -16h-113c-6 0 -11 2 -16 6zM408 401h212c8 0 13 -5 13 -13v-331c0 -7 -3 -12 -11 -14l-93 -29l-12 -4c-51 -16 -88 -21 -149 -21
c-201 0 -323 141 -323 365c0 225 122 366 323 366c55 0 96 -7 148 -23l52 -17c9 -3 11 -8 8 -16l-41 -110c-2 -8 -8 -11 -16 -8l-48 15c-33 11 -63 14 -103 14c-100 0 -160 -82 -160 -221c0 -138 60 -221 160 -221c36 0 71 3 100 13l11 3v110h-107c-9 0 -13 6 -11 15l33 116
c2 7 7 11 14 11z" />
    <glyph glyph-name="Gcommaaccent" unicode="&#x122;" horiz-adv-x="688" 
d="M633 388v-331c0 -7 -3 -12 -11 -14l-93 -29l-12 -4c-51 -16 -88 -21 -149 -21c-201 0 -323 141 -323 365c0 225 122 366 323 366c55 0 96 -7 148 -23l52 -17c9 -3 11 -8 8 -16l-41 -110c-2 -8 -8 -11 -16 -8l-48 15c-33 11 -63 14 -103 14c-100 0 -160 -82 -160 -221
c0 -138 60 -221 160 -221c36 0 71 3 100 13l11 3v110h-107c-9 0 -13 6 -11 15l33 116c2 7 7 11 14 11h212c8 0 13 -5 13 -13zM318 -221l17 30c12 18 8 27 -8 31c-22 6 -37 29 -37 56c0 35 24 56 64 56c38 0 63 -23 63 -65c0 -35 -20 -67 -33 -90l-17 -26c-4 -5 -9 -8 -16 -8
h-24c-10 0 -14 7 -9 16z" />
    <glyph glyph-name="Gdotaccent" unicode="&#x120;" horiz-adv-x="688" 
d="M348 936c62 0 96 -28 96 -82s-34 -82 -96 -82c-64 0 -98 28 -98 82s34 82 98 82zM633 388v-331c0 -7 -3 -12 -11 -14l-93 -29l-12 -4c-51 -16 -88 -21 -149 -21c-201 0 -323 141 -323 365c0 225 122 366 323 366c55 0 96 -7 148 -23l52 -17c9 -3 11 -8 8 -16l-41 -110
c-2 -8 -8 -11 -16 -8l-48 15c-33 11 -63 14 -103 14c-100 0 -160 -82 -160 -221c0 -138 60 -221 160 -221c36 0 71 3 100 13l11 3v110h-107c-9 0 -13 6 -11 15l33 116c2 7 7 11 14 11h212c8 0 13 -5 13 -13z" />
    <glyph glyph-name="H" unicode="H" horiz-adv-x="714" 
d="M648 696v-683c0 -8 -5 -13 -13 -13h-135c-8 0 -13 5 -13 13v281h-260v-281c0 -8 -5 -13 -13 -13h-136c-8 0 -13 5 -13 13v683c0 8 5 13 13 13h136c8 0 13 -5 13 -13v-261h260v261c0 8 5 13 13 13h135c8 0 13 -5 13 -13z" />
    <glyph glyph-name="Hbar" unicode="&#x126;" horiz-adv-x="714" 
d="M500 709h135c8 0 13 -5 13 -13v-683c0 -8 -5 -13 -13 -13h-135c-8 0 -13 5 -13 13v281h-260v-281c0 -8 -5 -13 -13 -13h-136c-8 0 -13 5 -13 13v683c0 8 5 13 13 13h136c8 0 13 -5 13 -13v-100h260v100c0 8 5 13 13 13zM487 435v57h-260v-57h260z" />
    <glyph glyph-name="Hcircumflex" unicode="&#x124;" horiz-adv-x="714" 
d="M357 841l-59 -50c-5 -4 -10 -6 -16 -6h-113c-11 0 -15 7 -8 16l99 119c4 5 9 7 16 7h161c7 0 12 -2 16 -7l100 -119c7 -9 3 -16 -8 -16h-113c-6 0 -11 2 -16 6zM500 709h135c8 0 13 -5 13 -13v-683c0 -8 -5 -13 -13 -13h-135c-8 0 -13 5 -13 13v281h-260v-281
c0 -8 -5 -13 -13 -13h-136c-8 0 -13 5 -13 13v683c0 8 5 13 13 13h136c8 0 13 -5 13 -13v-261h260v261c0 8 5 13 13 13z" />
    <glyph glyph-name="Hdotbelow" unicode="&#x1e24;" horiz-adv-x="714" 
d="M635 0h-135c-8 0 -13 5 -13 13v281h-260v-281c0 -8 -5 -13 -13 -13h-136c-8 0 -13 5 -13 13v683c0 8 5 13 13 13h136c8 0 13 -5 13 -13v-261h260v261c0 8 5 13 13 13h135c8 0 13 -5 13 -13v-683c0 -8 -5 -13 -13 -13zM357 -65c62 0 96 -28 96 -82s-34 -82 -96 -82
c-64 0 -98 28 -98 82s34 82 98 82z" />
    <glyph glyph-name="I" unicode="I" horiz-adv-x="292" 
d="M227 696v-683c0 -8 -5 -13 -13 -13h-136c-8 0 -13 5 -13 13v683c0 8 5 13 13 13h136c8 0 13 -5 13 -13z" />
    <glyph glyph-name="IJ" unicode="&#x132;" horiz-adv-x="726" 
d="M214 0h-136c-8 0 -13 5 -13 13v683c0 8 5 13 13 13h136c8 0 13 -5 13 -13v-683c0 -8 -5 -13 -13 -13zM665 696v-469c0 -150 -82 -238 -220 -238c-28 0 -56 5 -94 19l-16 6c-9 2 -11 8 -8 16l41 109c3 8 9 11 17 8l17 -6c15 -6 27 -8 43 -8c37 0 59 32 59 85v478
c0 8 5 13 13 13h135c8 0 13 -5 13 -13z" />
    <glyph glyph-name="Iacute" unicode="&#xcd;" horiz-adv-x="292" 
d="M144 927h175c12 0 15 -8 7 -16l-112 -119c-4 -5 -9 -7 -16 -7h-125c-11 0 -14 7 -9 16l65 117c3 6 8 9 15 9zM214 0h-136c-8 0 -13 5 -13 13v683c0 8 5 13 13 13h136c8 0 13 -5 13 -13v-683c0 -8 -5 -13 -13 -13z" />
    <glyph glyph-name="Ibreve" unicode="&#x12c;" horiz-adv-x="292" 
d="M304 914v-12c0 -87 -50 -127 -158 -127s-157 40 -157 127v12c0 8 5 13 13 13h95c8 0 13 -5 13 -13v-6c0 -21 10 -36 36 -36s36 15 36 36v6c0 8 5 13 13 13h96c8 0 13 -5 13 -13zM214 0h-136c-8 0 -13 5 -13 13v683c0 8 5 13 13 13h136c8 0 13 -5 13 -13v-683
c0 -8 -5 -13 -13 -13z" />
    <glyph glyph-name="Icaron" unicode="&#x1cf;" horiz-adv-x="292" 
d="M222 927h113c11 0 15 -7 8 -16l-100 -119c-4 -5 -9 -7 -16 -7h-161c-7 0 -12 2 -16 7l-99 119c-7 9 -3 16 8 16h113c6 0 11 -2 16 -6l59 -50l59 50c5 4 10 6 16 6zM65 13v683c0 8 5 13 13 13h136c8 0 13 -5 13 -13v-683c0 -8 -5 -13 -13 -13h-136c-8 0 -13 5 -13 13z" />
    <glyph glyph-name="Icircumflex" unicode="&#xce;" horiz-adv-x="292" 
d="M147 841l-59 -50c-5 -4 -10 -6 -16 -6h-113c-11 0 -15 7 -8 16l99 119c4 5 9 7 16 7h161c7 0 12 -2 16 -7l100 -119c7 -9 3 -16 -8 -16h-113c-6 0 -11 2 -16 6zM65 13v683c0 8 5 13 13 13h136c8 0 13 -5 13 -13v-683c0 -8 -5 -13 -13 -13h-136c-8 0 -13 5 -13 13z" />
    <glyph glyph-name="Idblgrave" unicode="&#x208;" horiz-adv-x="292" 
d="M-90 927h133c8 0 12 -3 16 -10l54 -117c4 -9 0 -15 -10 -15h-121c-7 0 -12 3 -15 9l-66 117c-5 9 -1 16 9 16zM135 927h132c7 0 12 -3 15 -11l38 -116c3 -9 -1 -15 -11 -15h-114c-8 0 -12 3 -16 10l-54 117c-4 9 0 15 10 15zM214 0h-136c-8 0 -13 5 -13 13v683
c0 8 5 13 13 13h136c8 0 13 -5 13 -13v-683c0 -8 -5 -13 -13 -13z" />
    <glyph glyph-name="Idieresis" unicode="&#xcf;" horiz-adv-x="292" 
d="M30 938c56 0 87 -28 87 -82s-31 -82 -87 -82c-57 0 -88 28 -88 82s31 82 88 82zM258 938c56 0 87 -28 87 -82s-31 -82 -87 -82c-57 0 -88 28 -88 82s31 82 88 82zM214 0h-136c-8 0 -13 5 -13 13v683c0 8 5 13 13 13h136c8 0 13 -5 13 -13v-683c0 -8 -5 -13 -13 -13z" />
    <glyph glyph-name="Idotaccent" unicode="&#x130;" horiz-adv-x="292" 
d="M146 938c62 0 96 -28 96 -82s-34 -82 -96 -82c-64 0 -98 28 -98 82s34 82 98 82zM214 0h-136c-8 0 -13 5 -13 13v683c0 8 5 13 13 13h136c8 0 13 -5 13 -13v-683c0 -8 -5 -13 -13 -13z" />
    <glyph glyph-name="Idotbelow" unicode="&#x1eca;" horiz-adv-x="292" 
d="M214 0h-136c-8 0 -13 5 -13 13v683c0 8 5 13 13 13h136c8 0 13 -5 13 -13v-683c0 -8 -5 -13 -13 -13zM146 -65c62 0 96 -28 96 -82s-34 -82 -96 -82c-64 0 -98 28 -98 82s34 82 98 82z" />
    <glyph glyph-name="Igrave" unicode="&#xcc;" horiz-adv-x="292" 
d="M156 918l65 -117c5 -9 2 -16 -9 -16h-125c-7 0 -12 2 -16 7l-112 119c-8 8 -5 16 7 16h175c7 0 12 -3 15 -9zM214 0h-136c-8 0 -13 5 -13 13v683c0 8 5 13 13 13h136c8 0 13 -5 13 -13v-683c0 -8 -5 -13 -13 -13z" />
    <glyph glyph-name="Iinvertedbreve" unicode="&#x20a;" horiz-adv-x="292" 
d="M291 785h-96c-8 0 -13 5 -13 13v6c0 21 -10 36 -36 36s-36 -15 -36 -36v-6c0 -8 -5 -13 -13 -13h-95c-8 0 -13 5 -13 13v12c0 87 49 127 157 127s158 -40 158 -127v-12c0 -8 -5 -13 -13 -13zM214 0h-136c-8 0 -13 5 -13 13v683c0 8 5 13 13 13h136c8 0 13 -5 13 -13v-683
c0 -8 -5 -13 -13 -13z" />
    <glyph glyph-name="Imacron" unicode="&#x12a;" horiz-adv-x="292" 
d="M-12 910h317c8 0 13 -5 13 -13v-85c0 -8 -5 -13 -13 -13h-317c-8 0 -13 5 -13 13v85c0 8 5 13 13 13zM214 0h-136c-8 0 -13 5 -13 13v683c0 8 5 13 13 13h136c8 0 13 -5 13 -13v-683c0 -8 -5 -13 -13 -13z" />
    <glyph glyph-name="Iogonek" unicode="&#x12e;" horiz-adv-x="292" 
d="M191 -53l-49 -42c-7 -6 -9 -10 -9 -17s3 -11 13 -11c7 0 16 2 25 5l7 3c8 2 14 0 16 -8l28 -77c3 -8 1 -13 -8 -16l-15 -5c-15 -6 -33 -9 -56 -9c-75 0 -125 33 -125 93c0 30 12 55 36 76l30 27c24 20 18 34 -6 34c-8 0 -13 5 -13 13v683c0 8 5 13 13 13h136
c8 0 13 -5 13 -13v-687c0 -6 -3 -9 -9 -9c5 0 9 -5 6 -13c-3 -11 -12 -21 -33 -40z" />
    <glyph glyph-name="Itilde" unicode="&#x128;" horiz-adv-x="292" 
d="M-42 807l27 52c21 43 56 61 102 61c23 0 50 -10 68 -18l29 -12c8 -3 15 -6 19 -6c7 0 15 2 21 15l5 9c3 6 8 9 15 9h83c10 0 14 -6 9 -15l-27 -55c-21 -41 -56 -58 -103 -58c-22 0 -46 9 -64 16l-33 13c-8 3 -15 6 -20 6c-6 0 -13 -2 -20 -14l-4 -9c-4 -6 -8 -9 -16 -9
h-82c-10 0 -14 6 -9 15zM214 0h-136c-8 0 -13 5 -13 13v683c0 8 5 13 13 13h136c8 0 13 -5 13 -13v-683c0 -8 -5 -13 -13 -13z" />
    <glyph glyph-name="J" unicode="J" horiz-adv-x="475" 
d="M414 696v-460c0 -155 -85 -247 -231 -247c-38 0 -70 5 -113 21l-28 10c-8 2 -10 8 -8 16l41 110c2 8 8 11 16 8l29 -10c21 -8 39 -11 63 -11c40 0 70 28 70 102v461c0 8 5 13 13 13h135c8 0 13 -5 13 -13z" />
    <glyph glyph-name="Jcircumflex" unicode="&#x134;" horiz-adv-x="475" 
d="M334 841l-59 -50c-5 -4 -10 -6 -16 -6h-113c-11 0 -15 7 -8 16l99 119c4 5 9 7 16 7h161c7 0 12 -2 16 -7l100 -119c7 -9 3 -16 -8 -16h-113c-6 0 -11 2 -16 6zM253 235v461c0 8 5 13 13 13h135c8 0 13 -5 13 -13v-460c0 -155 -85 -247 -231 -247c-38 0 -70 5 -113 21
l-28 10c-8 2 -10 8 -8 16l41 110c2 8 8 11 16 8l29 -10c21 -8 39 -11 63 -11c40 0 70 28 70 102z" />
    <glyph glyph-name="K" unicode="K" horiz-adv-x="701" 
d="M647 694l-106 -203c-31 -61 -71 -97 -125 -118c-5 -2 -7 -9 0 -12c58 -26 100 -67 131 -128l116 -218c5 -9 1 -15 -10 -15h-149c-7 0 -12 3 -15 9l-81 155c-43 81 -103 130 -160 130h-21v-281c0 -8 -5 -13 -13 -13h-136c-8 0 -13 5 -13 13v683c0 8 5 13 13 13h136
c8 0 13 -5 13 -13v-261h20c57 0 115 45 154 119l76 146c3 6 8 9 15 9h146c10 0 14 -6 9 -15z" />
    <glyph glyph-name="Kcommaaccent" unicode="&#x136;" horiz-adv-x="701" 
d="M647 694l-106 -203c-31 -61 -71 -97 -125 -118c-5 -2 -7 -9 0 -12c58 -26 100 -67 131 -128l116 -218c5 -9 1 -15 -10 -15h-149c-7 0 -12 3 -15 9l-81 155c-43 81 -103 130 -160 130h-21v-281c0 -8 -5 -13 -13 -13h-136c-8 0 -13 5 -13 13v683c0 8 5 13 13 13h136
c8 0 13 -5 13 -13v-261h20c57 0 115 45 154 119l76 146c3 6 8 9 15 9h146c10 0 14 -6 9 -15zM313 -221l17 30c12 18 8 27 -8 31c-22 6 -37 29 -37 56c0 35 24 56 64 56c38 0 63 -23 63 -65c0 -35 -20 -67 -33 -90l-17 -26c-4 -5 -9 -8 -16 -8h-24c-10 0 -14 7 -9 16z" />
    <glyph glyph-name="L" unicode="L" horiz-adv-x="576" 
d="M227 141h290c8 0 13 -5 13 -13v-115c0 -8 -5 -13 -13 -13h-439c-8 0 -13 5 -13 13v683c0 8 5 13 13 13h136c8 0 13 -5 13 -13v-555z" />
    <glyph glyph-name="LJ" unicode="&#x1c7;" horiz-adv-x="966" 
d="M227 141h255c8 0 13 -5 13 -13v-115c0 -8 -5 -13 -13 -13h-404c-8 0 -13 5 -13 13v683c0 8 5 13 13 13h136c8 0 13 -5 13 -13v-555zM905 696v-469c0 -150 -84 -238 -225 -238c-28 0 -56 4 -94 18l-18 6c-9 3 -11 8 -8 16l41 110c2 8 8 10 16 8l18 -7c13 -5 28 -7 45 -7
c40 0 64 36 64 94v469c0 8 5 13 13 13h135c8 0 13 -5 13 -13z" />
    <glyph glyph-name="Lacute" unicode="&#x139;" horiz-adv-x="576" 
d="M143 927h175c12 0 15 -8 7 -16l-112 -119c-4 -5 -9 -7 -16 -7h-125c-11 0 -14 7 -9 16l65 117c3 6 8 9 15 9zM227 141h290c8 0 13 -5 13 -13v-115c0 -8 -5 -13 -13 -13h-439c-8 0 -13 5 -13 13v683c0 8 5 13 13 13h136c8 0 13 -5 13 -13v-555z" />
    <glyph glyph-name="Lcaron" unicode="&#x13d;" horiz-adv-x="576" 
d="M227 141h290c8 0 13 -5 13 -13v-115c0 -8 -5 -13 -13 -13h-439c-8 0 -13 5 -13 13v683c0 8 5 13 13 13h136c8 0 13 -5 13 -13v-555zM321 709h90c8 0 13 -5 13 -13v-36c0 -27 -6 -64 -24 -97l-8 -16c-4 -6 -8 -9 -16 -9h-73c-9 0 -14 5 -11 14l5 22c8 25 10 51 11 79v43
c0 8 5 13 13 13z" />
    <glyph glyph-name="Lcommaaccent" unicode="&#x13b;" horiz-adv-x="576" 
d="M227 141h290c8 0 13 -5 13 -13v-115c0 -8 -5 -13 -13 -13h-439c-8 0 -13 5 -13 13v683c0 8 5 13 13 13h136c8 0 13 -5 13 -13v-555zM267 -221l17 30c12 18 8 27 -8 31c-22 6 -37 29 -37 56c0 35 24 56 64 56c38 0 63 -23 63 -65c0 -35 -20 -67 -33 -90l-17 -26
c-4 -5 -9 -8 -16 -8h-24c-10 0 -14 7 -9 16z" />
    <glyph glyph-name="Ldot" unicode="&#x13f;" horiz-adv-x="576" 
d="M227 141h290c8 0 13 -5 13 -13v-115c0 -8 -5 -13 -13 -13h-439c-8 0 -13 5 -13 13v683c0 8 5 13 13 13h136c8 0 13 -5 13 -13v-555zM437 495c58 0 92 -34 92 -93c0 -58 -34 -93 -92 -93c-57 0 -91 35 -91 93c0 59 34 93 91 93z" />
    <glyph glyph-name="Lslash" unicode="&#x141;" horiz-adv-x="640" 
d="M292 141h290c8 0 13 -5 13 -13v-115c0 -8 -5 -13 -13 -13h-439c-8 0 -13 5 -13 13v226l-80 -35c-9 -4 -15 0 -15 10v127c0 8 3 12 10 15l85 38v302c0 8 5 13 13 13h136c8 0 13 -5 13 -13v-229l152 67c9 4 15 0 15 -10v-127c0 -8 -3 -12 -10 -15l-157 -70v-171z" />
    <glyph glyph-name="M" unicode="M" horiz-adv-x="845" 
d="M780 696v-683c0 -8 -5 -13 -13 -13h-135c-8 0 -13 5 -13 13v211c0 75 2 179 12 252c2 14 -10 17 -14 4c-10 -27 -21 -54 -32 -81l-55 -152c-9 -26 -21 -64 -33 -100c-2 -8 -7 -11 -14 -11h-121c-7 0 -12 3 -14 11c-12 36 -24 74 -34 100l-55 153c-10 27 -21 53 -31 80
c-5 13 -17 10 -15 -4c10 -73 14 -177 14 -252v-211c0 -8 -5 -13 -13 -13h-136c-8 0 -13 5 -13 13v683c0 8 5 13 13 13h202c7 0 12 -3 14 -11c7 -22 15 -48 22 -68l52 -151c16 -46 36 -107 47 -152c3 -12 13 -12 16 0c11 46 29 108 44 152l54 151c8 20 16 46 22 68
c2 7 7 11 15 11h201c8 0 13 -5 13 -13z" />
    <glyph glyph-name="N" unicode="N" horiz-adv-x="732" 
d="M667 696v-683c0 -8 -5 -13 -13 -13h-178c-8 0 -12 3 -15 10c-15 35 -34 73 -50 106l-142 288c-13 26 -24 49 -36 75c-8 15 -18 9 -17 -4c9 -63 11 -110 11 -182v-280c0 -8 -5 -13 -13 -13h-136c-8 0 -13 5 -13 13v683c0 8 5 13 13 13h178c8 0 12 -3 15 -10
c16 -35 35 -73 51 -106l143 -290c12 -26 23 -49 36 -73c7 -16 18 -10 16 4c-10 62 -11 108 -11 180v282c0 8 5 13 13 13h135c8 0 13 -5 13 -13z" />
    <glyph glyph-name="NJ" unicode="&#x1ca;" horiz-adv-x="1169" 
d="M654 0h-178c-8 0 -12 3 -15 10c-15 35 -34 73 -50 106l-142 288c-13 26 -24 49 -36 75c-8 15 -18 9 -17 -4c9 -63 11 -110 11 -182v-280c0 -8 -5 -13 -13 -13h-136c-8 0 -13 5 -13 13v683c0 8 5 13 13 13h178c8 0 12 -3 15 -10c16 -35 35 -73 51 -106l143 -290
c12 -26 23 -49 36 -73c7 -16 18 -10 16 4c-10 62 -11 108 -11 180v282c0 8 5 13 13 13h135c8 0 13 -5 13 -13v-683c0 -8 -5 -13 -13 -13zM1109 696v-469c0 -150 -83 -238 -223 -238c-27 0 -57 5 -94 19l-17 6c-8 2 -10 8 -7 16l40 109c2 8 8 11 16 8l18 -6
c13 -5 26 -8 44 -8c38 0 62 35 62 94v469c0 8 5 13 13 13h135c8 0 13 -5 13 -13z" />
    <glyph glyph-name="Nacute" unicode="&#x143;" horiz-adv-x="732" 
d="M365 927h175c12 0 15 -8 7 -16l-112 -119c-4 -5 -9 -7 -16 -7h-125c-11 0 -14 7 -9 16l65 117c3 6 8 9 15 9zM654 0h-178c-8 0 -12 3 -15 10c-15 35 -34 73 -50 106l-142 288c-13 26 -24 49 -36 75c-8 15 -18 9 -17 -4c9 -63 11 -110 11 -182v-280c0 -8 -5 -13 -13 -13
h-136c-8 0 -13 5 -13 13v683c0 8 5 13 13 13h178c8 0 12 -3 15 -10c16 -35 35 -73 51 -106l143 -290c12 -26 23 -49 36 -73c7 -16 18 -10 16 4c-10 62 -11 108 -11 180v282c0 8 5 13 13 13h135c8 0 13 -5 13 -13v-683c0 -8 -5 -13 -13 -13z" />
    <glyph glyph-name="Ncaron" unicode="&#x147;" horiz-adv-x="732" 
d="M447 785h-161c-7 0 -12 2 -16 7l-99 119c-7 9 -3 16 8 16h113c6 0 11 -2 16 -6l59 -50l59 50c5 4 10 6 16 6h113c11 0 15 -7 8 -16l-100 -119c-4 -5 -9 -7 -16 -7zM519 709h135c8 0 13 -5 13 -13v-683c0 -8 -5 -13 -13 -13h-178c-8 0 -12 3 -15 10c-15 35 -34 73 -50 106
l-142 288c-13 26 -24 49 -36 75c-8 15 -18 9 -17 -4c9 -63 11 -110 11 -182v-280c0 -8 -5 -13 -13 -13h-136c-8 0 -13 5 -13 13v683c0 8 5 13 13 13h178c8 0 12 -3 15 -10c16 -35 35 -73 51 -106l143 -290c12 -26 23 -49 36 -73c7 -16 18 -10 16 4c-10 62 -11 108 -11 180
v282c0 8 5 13 13 13z" />
    <glyph glyph-name="Ncommaaccent" unicode="&#x145;" horiz-adv-x="732" 
d="M654 0h-178c-8 0 -12 3 -15 10c-15 35 -34 73 -50 106l-142 288c-13 26 -24 49 -36 75c-8 15 -18 9 -17 -4c9 -63 11 -110 11 -182v-280c0 -8 -5 -13 -13 -13h-136c-8 0 -13 5 -13 13v683c0 8 5 13 13 13h178c8 0 12 -3 15 -10c16 -35 35 -73 51 -106l143 -290
c12 -26 23 -49 36 -73c7 -16 18 -10 16 4c-10 62 -11 108 -11 180v282c0 8 5 13 13 13h135c8 0 13 -5 13 -13v-683c0 -8 -5 -13 -13 -13zM333 -221l17 30c12 18 8 27 -8 31c-22 6 -37 29 -37 56c0 35 24 56 64 56c38 0 63 -23 63 -65c0 -35 -20 -67 -33 -90l-17 -26
c-4 -5 -9 -8 -16 -8h-24c-10 0 -14 7 -9 16z" />
    <glyph glyph-name="Ndotaccent" unicode="&#x1e44;" horiz-adv-x="732" 
d="M367 938c62 0 96 -28 96 -82s-34 -82 -96 -82c-64 0 -98 28 -98 82s34 82 98 82zM654 0h-178c-8 0 -12 3 -15 10c-15 35 -34 73 -50 106l-142 288c-13 26 -24 49 -36 75c-8 15 -18 9 -17 -4c9 -63 11 -110 11 -182v-280c0 -8 -5 -13 -13 -13h-136c-8 0 -13 5 -13 13v683
c0 8 5 13 13 13h178c8 0 12 -3 15 -10c16 -35 35 -73 51 -106l143 -290c12 -26 23 -49 36 -73c7 -16 18 -10 16 4c-10 62 -11 108 -11 180v282c0 8 5 13 13 13h135c8 0 13 -5 13 -13v-683c0 -8 -5 -13 -13 -13z" />
    <glyph glyph-name="Eng" unicode="&#x14a;" horiz-adv-x="711" 
d="M168 700l24 -37c13 -18 23 -17 34 -6c54 50 115 68 179 68c159 0 245 -105 245 -277v-421c0 -142 -85 -226 -230 -226c-34 0 -69 6 -112 21l-20 7c-8 3 -11 8 -8 16l39 112c3 8 8 11 16 8l20 -7c21 -7 41 -10 65 -10c44 0 69 30 69 79v407c0 93 -35 143 -108 143
c-97 0 -153 -78 -154 -216v-348c0 -8 -5 -13 -13 -13h-136c-8 0 -13 5 -13 13v683c0 8 5 13 13 13h75c7 0 12 -3 15 -9z" />
    <glyph glyph-name="Ntilde" unicode="&#xd1;" horiz-adv-x="732" 
d="M178 807l27 52c21 43 56 61 102 61c23 0 50 -10 68 -18l29 -12c8 -3 15 -6 19 -6c7 0 15 2 21 15l5 9c3 6 8 9 15 9h83c10 0 14 -6 9 -15l-27 -55c-21 -41 -56 -58 -103 -58c-22 0 -46 9 -64 16l-33 13c-8 3 -15 6 -20 6c-6 0 -13 -2 -20 -14l-4 -9c-4 -6 -8 -9 -16 -9
h-82c-10 0 -14 6 -9 15zM654 0h-178c-8 0 -12 3 -15 10c-15 35 -34 73 -50 106l-142 288c-13 26 -24 49 -36 75c-8 15 -18 9 -17 -4c9 -63 11 -110 11 -182v-280c0 -8 -5 -13 -13 -13h-136c-8 0 -13 5 -13 13v683c0 8 5 13 13 13h178c8 0 12 -3 15 -10
c16 -35 35 -73 51 -106l143 -290c12 -26 23 -49 36 -73c7 -16 18 -10 16 4c-10 62 -11 108 -11 180v282c0 8 5 13 13 13h135c8 0 13 -5 13 -13v-683c0 -8 -5 -13 -13 -13z" />
    <glyph glyph-name="O" unicode="O" horiz-adv-x="727" 
d="M364 720c197 0 318 -140 318 -365c0 -224 -121 -366 -318 -366c-198 0 -319 142 -319 366c0 225 121 365 319 365zM364 575c-97 0 -156 -80 -156 -220c0 -137 59 -222 156 -222s155 85 155 222c0 140 -58 220 -155 220z" />
    <glyph glyph-name="Oacute" unicode="&#xd3;" horiz-adv-x="727" 
d="M361 927h175c12 0 15 -8 7 -16l-112 -119c-4 -5 -9 -7 -16 -7h-125c-11 0 -14 7 -9 16l65 117c3 6 8 9 15 9zM364 720c197 0 318 -140 318 -365c0 -224 -121 -366 -318 -366c-198 0 -319 142 -319 366c0 225 121 365 319 365zM364 575c-97 0 -156 -80 -156 -220
c0 -137 59 -222 156 -222s155 85 155 222c0 140 -58 220 -155 220z" />
    <glyph glyph-name="Obreve" unicode="&#x14e;" horiz-adv-x="727" 
d="M521 914v-12c0 -87 -50 -127 -158 -127s-157 40 -157 127v12c0 8 5 13 13 13h95c8 0 13 -5 13 -13v-6c0 -21 10 -36 36 -36s36 15 36 36v6c0 8 5 13 13 13h96c8 0 13 -5 13 -13zM364 720c197 0 318 -140 318 -365c0 -224 -121 -366 -318 -366c-198 0 -319 142 -319 366
c0 225 121 365 319 365zM364 575c-97 0 -156 -80 -156 -220c0 -137 59 -222 156 -222s155 85 155 222c0 140 -58 220 -155 220z" />
    <glyph glyph-name="Ocaron" unicode="&#x1d1;" horiz-adv-x="727" 
d="M444 785h-161c-7 0 -12 2 -16 7l-99 119c-7 9 -3 16 8 16h113c6 0 11 -2 16 -6l59 -50l59 50c5 4 10 6 16 6h113c11 0 15 -7 8 -16l-100 -119c-4 -5 -9 -7 -16 -7zM364 720c197 0 318 -140 318 -365c0 -224 -121 -366 -318 -366c-198 0 -319 142 -319 366
c0 225 121 365 319 365zM364 133c97 0 155 85 155 222c0 140 -58 220 -155 220s-156 -80 -156 -220c0 -137 59 -222 156 -222z" />
    <glyph glyph-name="Ocircumflex" unicode="&#xd4;" horiz-adv-x="727" 
d="M364 841l-59 -50c-5 -4 -10 -6 -16 -6h-113c-11 0 -15 7 -8 16l99 119c4 5 9 7 16 7h161c7 0 12 -2 16 -7l100 -119c7 -9 3 -16 -8 -16h-113c-6 0 -11 2 -16 6zM364 720c197 0 318 -140 318 -365c0 -224 -121 -366 -318 -366c-198 0 -319 142 -319 366
c0 225 121 365 319 365zM364 133c97 0 155 85 155 222c0 140 -58 220 -155 220s-156 -80 -156 -220c0 -137 59 -222 156 -222z" />
    <glyph glyph-name="Odblgrave" unicode="&#x20c;" horiz-adv-x="727" 
d="M128 927h133c8 0 12 -3 16 -10l54 -117c4 -9 0 -15 -10 -15h-121c-7 0 -12 3 -15 9l-66 117c-5 9 -1 16 9 16zM353 927h132c7 0 12 -3 15 -11l38 -116c3 -9 -1 -15 -11 -15h-114c-8 0 -12 3 -16 10l-54 117c-4 9 0 15 10 15zM364 720c197 0 318 -140 318 -365
c0 -224 -121 -366 -318 -366c-198 0 -319 142 -319 366c0 225 121 365 319 365zM364 575c-97 0 -156 -80 -156 -220c0 -137 59 -222 156 -222s155 85 155 222c0 140 -58 220 -155 220z" />
    <glyph glyph-name="Odieresis" unicode="&#xd6;" horiz-adv-x="727" 
d="M247 938c56 0 87 -28 87 -82s-31 -82 -87 -82c-57 0 -88 28 -88 82s31 82 88 82zM475 938c56 0 87 -28 87 -82s-31 -82 -87 -82c-57 0 -88 28 -88 82s31 82 88 82zM364 720c197 0 318 -140 318 -365c0 -224 -121 -366 -318 -366c-198 0 -319 142 -319 366
c0 225 121 365 319 365zM364 575c-97 0 -156 -80 -156 -220c0 -137 59 -222 156 -222s155 85 155 222c0 140 -58 220 -155 220z" />
    <glyph glyph-name="Odotbelow" unicode="&#x1ecc;" horiz-adv-x="727" 
d="M364 720c197 0 318 -140 318 -365c0 -224 -121 -366 -318 -366c-198 0 -319 142 -319 366c0 225 121 365 319 365zM364 575c-97 0 -156 -80 -156 -220c0 -137 59 -222 156 -222s155 85 155 222c0 140 -58 220 -155 220zM364 -65c62 0 96 -28 96 -82s-34 -82 -96 -82
c-64 0 -98 28 -98 82s34 82 98 82z" />
    <glyph glyph-name="Ograve" unicode="&#xd2;" horiz-adv-x="727" 
d="M373 918l65 -117c5 -9 2 -16 -9 -16h-125c-7 0 -12 2 -16 7l-112 119c-8 8 -5 16 7 16h175c7 0 12 -3 15 -9zM364 720c197 0 318 -140 318 -365c0 -224 -121 -366 -318 -366c-198 0 -319 142 -319 366c0 225 121 365 319 365zM364 575c-97 0 -156 -80 -156 -220
c0 -137 59 -222 156 -222s155 85 155 222c0 140 -58 220 -155 220z" />
    <glyph glyph-name="Ohungarumlaut" unicode="&#x150;" horiz-adv-x="727" 
d="M385 912l-54 -117c-4 -7 -8 -10 -16 -10h-114c-10 0 -14 6 -11 15l38 116c3 8 8 11 15 11h132c10 0 14 -6 10 -15zM609 911l-66 -117c-3 -6 -8 -9 -15 -9h-121c-10 0 -14 6 -10 15l54 117c4 7 8 10 16 10h133c10 0 14 -7 9 -16zM364 720c197 0 318 -140 318 -365
c0 -224 -121 -366 -318 -366c-198 0 -319 142 -319 366c0 225 121 365 319 365zM364 575c-97 0 -156 -80 -156 -220c0 -137 59 -222 156 -222s155 85 155 222c0 140 -58 220 -155 220z" />
    <glyph glyph-name="Oinvertedbreve" unicode="&#x20e;" horiz-adv-x="727" 
d="M508 785h-96c-8 0 -13 5 -13 13v6c0 21 -10 36 -36 36s-36 -15 -36 -36v-6c0 -8 -5 -13 -13 -13h-95c-8 0 -13 5 -13 13v12c0 87 49 127 157 127s158 -40 158 -127v-12c0 -8 -5 -13 -13 -13zM364 720c197 0 318 -140 318 -365c0 -224 -121 -366 -318 -366
c-198 0 -319 142 -319 366c0 225 121 365 319 365zM364 575c-97 0 -156 -80 -156 -220c0 -137 59 -222 156 -222s155 85 155 222c0 140 -58 220 -155 220z" />
    <glyph glyph-name="Omacron" unicode="&#x14c;" horiz-adv-x="727" 
d="M205 910h317c8 0 13 -5 13 -13v-85c0 -8 -5 -13 -13 -13h-317c-8 0 -13 5 -13 13v85c0 8 5 13 13 13zM364 720c197 0 318 -140 318 -365c0 -224 -121 -366 -318 -366c-198 0 -319 142 -319 366c0 225 121 365 319 365zM364 575c-97 0 -156 -80 -156 -220
c0 -137 59 -222 156 -222s155 85 155 222c0 140 -58 220 -155 220z" />
    <glyph glyph-name="Oogonek" unicode="&#x1ea;" horiz-adv-x="727" 
d="M538 37l-163 -132c-6 -6 -9 -10 -9 -16c0 -8 4 -12 12 -12c10 0 18 2 27 5l9 3c8 3 14 1 16 -7l28 -77c2 -8 0 -13 -8 -16l-18 -6c-15 -6 -33 -9 -55 -9c-75 0 -126 34 -126 92c0 32 12 56 36 77l23 19c19 16 14 27 -2 32c-8 4 -9 5 0 7l-3 -1c-5 -1 -10 -1 -16 0
c-153 32 -244 165 -244 359c0 225 121 365 319 365c197 0 318 -140 318 -365c0 -147 -52 -259 -144 -318zM208 355c0 -137 59 -222 156 -222s155 85 155 222c0 140 -58 220 -155 220s-156 -80 -156 -220z" />
    <glyph glyph-name="Oslash" unicode="&#xd8;" horiz-adv-x="737" 
d="M675 693l-63 -84c49 -62 75 -149 75 -254c0 -224 -121 -366 -318 -366c-71 0 -132 18 -181 52l-24 -33c-4 -6 -9 -8 -16 -8h-78c-11 0 -15 7 -8 16l63 85c-48 62 -75 149 -75 254c0 225 121 365 319 365c70 0 131 -18 180 -51l24 32c4 6 9 8 16 8h78c11 0 15 -7 8 -16z
M230 241l227 304c-24 20 -53 30 -88 30c-97 0 -156 -80 -156 -220c0 -43 6 -82 17 -114zM507 468l-227 -304c24 -20 54 -31 89 -31c97 0 155 85 155 222c0 44 -6 82 -17 113z" />
    <glyph glyph-name="Oslashacute" unicode="&#x1fe;" horiz-adv-x="737" 
d="M354 927h175c12 0 15 -8 7 -16l-112 -119c-4 -5 -9 -7 -16 -7h-125c-11 0 -14 7 -9 16l65 117c3 6 8 9 15 9zM675 693l-63 -84c49 -62 75 -149 75 -254c0 -224 -121 -366 -318 -366c-71 0 -132 18 -181 52l-24 -33c-4 -6 -9 -8 -16 -8h-78c-11 0 -15 7 -8 16l63 85
c-48 62 -75 149 -75 254c0 225 121 365 319 365c70 0 131 -18 180 -51l24 32c4 6 9 8 16 8h78c11 0 15 -7 8 -16zM230 241l227 304c-24 20 -53 30 -88 30c-97 0 -156 -80 -156 -220c0 -43 6 -82 17 -114zM507 468l-227 -304c24 -20 54 -31 89 -31c97 0 155 85 155 222
c0 44 -6 82 -17 113z" />
    <glyph glyph-name="Otilde" unicode="&#xd5;" horiz-adv-x="727" 
d="M175 807l27 52c21 43 56 61 102 61c23 0 50 -10 68 -18l29 -12c8 -3 15 -6 19 -6c7 0 15 2 21 15l5 9c3 6 8 9 15 9h83c10 0 14 -6 9 -15l-27 -55c-21 -41 -56 -58 -103 -58c-22 0 -46 9 -64 16l-33 13c-8 3 -15 6 -20 6c-6 0 -13 -2 -20 -14l-4 -9c-4 -6 -8 -9 -16 -9
h-82c-10 0 -14 6 -9 15zM364 720c197 0 318 -140 318 -365c0 -224 -121 -366 -318 -366c-198 0 -319 142 -319 366c0 225 121 365 319 365zM364 575c-97 0 -156 -80 -156 -220c0 -137 59 -222 156 -222s155 85 155 222c0 140 -58 220 -155 220z" />
    <glyph glyph-name="OE" unicode="&#x152;" horiz-adv-x="1053" 
d="M540 13v14c0 19 -7 22 -24 7c-37 -30 -89 -45 -158 -45c-191 0 -313 139 -313 365s121 366 313 366c67 0 118 -15 158 -47c15 -13 24 -11 24 10v13c0 8 5 13 13 13h455c9 0 13 -6 11 -15l-33 -116c-2 -7 -7 -11 -14 -11h-299v-132h247c8 0 13 -5 13 -13v-115
c0 -8 -5 -13 -13 -13h-247v-153h329c8 0 13 -5 13 -13v-115c0 -8 -5 -13 -13 -13h-449c-8 0 -13 5 -13 13zM358 575c-93 0 -150 -80 -150 -221c0 -139 57 -221 150 -221c100 0 153 74 153 221c0 151 -53 221 -153 221z" />
    <glyph glyph-name="P" unicode="P" horiz-adv-x="646" 
d="M78 709h270c160 0 253 -88 253 -236c0 -156 -106 -247 -288 -247h-86v-213c0 -8 -5 -13 -13 -13h-136c-8 0 -13 5 -13 13v683c0 8 5 13 13 13zM227 567v-200h86c79 0 125 39 125 106c0 59 -33 94 -90 94h-121z" />
    <glyph glyph-name="Thorn" unicode="&#xde;" horiz-adv-x="651" 
d="M227 598h109c167 0 265 -89 265 -239c0 -151 -98 -239 -265 -239h-109v-107c0 -8 -5 -13 -13 -13h-136c-8 0 -13 5 -13 13v683c0 8 5 13 13 13h136c8 0 13 -5 13 -13v-98zM227 457v-195h109c64 0 102 36 102 97s-38 98 -102 98h-109z" />
    <glyph glyph-name="Q" unicode="Q" horiz-adv-x="728" 
d="M734 -95l-100 -78c-6 -5 -13 -4 -18 2l-48 64c-44 59 -100 96 -204 96c-196 0 -319 141 -319 365c0 225 123 366 319 366s318 -141 318 -366c0 -114 -40 -230 -107 -270c-12 -7 -12 -10 0 -14c58 -21 85 -46 116 -86l45 -61c5 -6 4 -13 -2 -18zM208 354
c0 -137 61 -221 156 -221c97 0 155 84 155 221c0 140 -58 221 -155 221c-95 0 -156 -81 -156 -221z" />
    <glyph glyph-name="R" unicode="R" horiz-adv-x="683" 
d="M78 709h279c159 0 252 -81 252 -217c0 -91 -57 -152 -118 -179c-14 -7 -13 -12 -1 -19c44 -27 69 -71 87 -110l70 -169c3 -9 -1 -15 -10 -15h-144c-8 0 -12 3 -15 10l-44 107c-36 87 -68 135 -179 135h-28v-239c0 -8 -5 -13 -13 -13h-136c-8 0 -13 5 -13 13v683
c0 8 5 13 13 13zM227 393h109c75 0 110 28 110 87c0 53 -36 87 -89 87h-130v-174z" />
    <glyph glyph-name="Racute" unicode="&#x154;" horiz-adv-x="683" 
d="M324 927h175c12 0 15 -8 7 -16l-112 -119c-4 -5 -9 -7 -16 -7h-125c-11 0 -14 7 -9 16l65 117c3 6 8 9 15 9zM78 709h279c159 0 252 -81 252 -217c0 -91 -57 -152 -118 -179c-14 -7 -13 -12 -1 -19c44 -27 69 -71 87 -110l70 -169c3 -9 -1 -15 -10 -15h-144
c-8 0 -12 3 -15 10l-44 107c-36 87 -68 135 -179 135h-28v-239c0 -8 -5 -13 -13 -13h-136c-8 0 -13 5 -13 13v683c0 8 5 13 13 13zM227 393h109c75 0 110 28 110 87c0 53 -36 87 -89 87h-130v-174z" />
    <glyph glyph-name="Rcaron" unicode="&#x158;" horiz-adv-x="683" 
d="M406 785h-161c-7 0 -12 2 -16 7l-99 119c-7 9 -3 16 8 16h113c6 0 11 -2 16 -6l59 -50l59 50c5 4 10 6 16 6h113c11 0 15 -7 8 -16l-100 -119c-4 -5 -9 -7 -16 -7zM577 184l70 -169c3 -9 -1 -15 -10 -15h-144c-8 0 -12 3 -15 10l-44 107c-36 87 -68 135 -179 135h-28
v-239c0 -8 -5 -13 -13 -13h-136c-8 0 -13 5 -13 13v683c0 8 5 13 13 13h279c159 0 252 -81 252 -217c0 -91 -57 -152 -118 -179c-14 -7 -13 -12 -1 -19c44 -27 69 -71 87 -110zM227 393h109c75 0 110 28 110 87c0 53 -36 87 -89 87h-130v-174z" />
    <glyph glyph-name="Rcommaaccent" unicode="&#x156;" horiz-adv-x="683" 
d="M78 709h279c159 0 252 -81 252 -217c0 -91 -57 -152 -118 -179c-14 -7 -13 -12 -1 -19c44 -27 69 -71 87 -110l70 -169c3 -9 -1 -15 -10 -15h-144c-8 0 -12 3 -15 10l-44 107c-36 87 -68 135 -179 135h-28v-239c0 -8 -5 -13 -13 -13h-136c-8 0 -13 5 -13 13v683
c0 8 5 13 13 13zM227 393h109c75 0 110 28 110 87c0 53 -36 87 -89 87h-130v-174zM311 -221l17 30c12 18 8 27 -8 31c-22 6 -37 29 -37 56c0 35 24 56 64 56c38 0 63 -23 63 -65c0 -35 -20 -67 -33 -90l-17 -26c-4 -5 -9 -8 -16 -8h-24c-10 0 -14 7 -9 16z" />
    <glyph glyph-name="Rdblgrave" unicode="&#x210;" horiz-adv-x="683" 
d="M90 927h133c8 0 12 -3 16 -10l54 -117c4 -9 0 -15 -10 -15h-121c-7 0 -12 3 -15 9l-66 117c-5 9 -1 16 9 16zM315 927h132c7 0 12 -3 15 -11l38 -116c3 -9 -1 -15 -11 -15h-114c-8 0 -12 3 -16 10l-54 117c-4 9 0 15 10 15zM78 709h279c159 0 252 -81 252 -217
c0 -91 -57 -152 -118 -179c-14 -7 -13 -12 -1 -19c44 -27 69 -71 87 -110l70 -169c3 -9 -1 -15 -10 -15h-144c-8 0 -12 3 -15 10l-44 107c-36 87 -68 135 -179 135h-28v-239c0 -8 -5 -13 -13 -13h-136c-8 0 -13 5 -13 13v683c0 8 5 13 13 13zM227 393h109
c75 0 110 28 110 87c0 53 -36 87 -89 87h-130v-174z" />
    <glyph glyph-name="Rdotbelow" unicode="&#x1e5a;" horiz-adv-x="683" 
d="M78 709h279c159 0 252 -81 252 -217c0 -91 -57 -152 -118 -179c-14 -7 -13 -12 -1 -19c44 -27 69 -71 87 -110l70 -169c3 -9 -1 -15 -10 -15h-144c-8 0 -12 3 -15 10l-44 107c-36 87 -68 135 -179 135h-28v-239c0 -8 -5 -13 -13 -13h-136c-8 0 -13 5 -13 13v683
c0 8 5 13 13 13zM227 393h109c75 0 110 28 110 87c0 53 -36 87 -89 87h-130v-174zM346 -65c62 0 96 -28 96 -82s-34 -82 -96 -82c-64 0 -98 28 -98 82s34 82 98 82z" />
    <glyph glyph-name="Rinvertedbreve" unicode="&#x212;" horiz-adv-x="683" 
d="M471 785h-96c-8 0 -13 5 -13 13v6c0 21 -10 36 -36 36s-36 -15 -36 -36v-6c0 -8 -5 -13 -13 -13h-95c-8 0 -13 5 -13 13v12c0 87 49 127 157 127s158 -40 158 -127v-12c0 -8 -5 -13 -13 -13zM78 709h279c159 0 252 -81 252 -217c0 -91 -57 -152 -118 -179
c-14 -7 -13 -12 -1 -19c44 -27 69 -71 87 -110l70 -169c3 -9 -1 -15 -10 -15h-144c-8 0 -12 3 -15 10l-44 107c-36 87 -68 135 -179 135h-28v-239c0 -8 -5 -13 -13 -13h-136c-8 0 -13 5 -13 13v683c0 8 5 13 13 13zM227 393h109c75 0 110 28 110 87c0 53 -36 87 -89 87h-130
v-174z" />
    <glyph glyph-name="S" unicode="S" horiz-adv-x="620" 
d="M326 273l-84 32c-137 51 -187 101 -187 210c0 131 99 205 257 205c58 0 112 -10 160 -26l66 -22c9 -3 11 -8 9 -16l-41 -112c-3 -8 -8 -11 -16 -8l-59 18c-40 12 -78 21 -119 21c-56 0 -94 -24 -94 -60c0 -35 31 -51 88 -72l84 -31c139 -52 189 -104 189 -213
c0 -137 -93 -210 -263 -210c-60 0 -114 6 -197 33l-66 21c-9 3 -11 8 -9 16l40 111c3 8 8 11 16 8l70 -21c59 -18 103 -24 146 -24c54 0 100 13 100 66c0 30 -35 53 -90 74z" />
    <glyph glyph-name="Sacute" unicode="&#x15a;" horiz-adv-x="620" 
d="M302 925h175c12 0 15 -8 7 -16l-112 -119c-4 -5 -9 -7 -16 -7h-125c-11 0 -14 7 -9 16l65 117c3 6 8 9 15 9zM326 273l-84 32c-137 51 -187 101 -187 210c0 131 99 205 257 205c58 0 112 -10 160 -26l66 -22c9 -3 11 -8 9 -16l-41 -112c-3 -8 -8 -11 -16 -8l-59 18
c-40 12 -78 21 -119 21c-56 0 -94 -24 -94 -60c0 -35 31 -51 88 -72l84 -31c139 -52 189 -104 189 -213c0 -137 -93 -210 -263 -210c-60 0 -114 6 -197 33l-66 21c-9 3 -11 8 -9 16l40 111c3 8 8 11 16 8l70 -21c59 -18 103 -24 146 -24c54 0 100 13 100 66
c0 30 -35 53 -90 74z" />
    <glyph glyph-name="Scaron" unicode="&#x160;" horiz-adv-x="620" 
d="M384 783h-161c-7 0 -12 2 -16 7l-99 119c-7 9 -3 16 8 16h113c6 0 11 -2 16 -6l59 -50l59 50c5 4 10 6 16 6h113c11 0 15 -7 8 -16l-100 -119c-4 -5 -9 -7 -16 -7zM306 443l84 -31c139 -52 189 -104 189 -213c0 -137 -93 -210 -263 -210c-60 0 -114 6 -197 33l-66 21
c-9 3 -11 8 -9 16l40 111c3 8 8 11 16 8l70 -21c59 -18 103 -24 146 -24c54 0 100 13 100 66c0 30 -35 53 -90 74l-84 32c-137 51 -187 101 -187 210c0 131 99 205 257 205c58 0 112 -10 160 -26l66 -22c9 -3 11 -8 9 -16l-41 -112c-3 -8 -8 -11 -16 -8l-59 18
c-40 12 -78 21 -119 21c-56 0 -94 -24 -94 -60c0 -35 31 -51 88 -72z" />
    <glyph glyph-name="Scedilla" unicode="&#x15e;" horiz-adv-x="620" 
d="M306 443l84 -31c139 -52 189 -104 189 -213c0 -129 -82 -201 -233 -209l-9 -21h7c37 0 70 -36 70 -93c0 -63 -39 -106 -113 -106c-23 0 -40 4 -56 9l-16 5c-8 3 -11 8 -8 16l25 73c3 9 8 11 16 8l12 -4c8 -2 16 -3 27 -3c12 0 19 6 19 18s-8 19 -22 19h-37
c-7 0 -12 3 -15 9c-3 3 -3 8 -1 15l19 56c-42 3 -86 12 -145 31l-66 21c-9 3 -11 8 -9 16l40 111c3 8 8 11 16 8l70 -21c59 -18 103 -24 146 -24c54 0 100 13 100 66c0 30 -35 53 -90 74l-84 32c-137 51 -187 101 -187 210c0 131 99 205 257 205c58 0 112 -10 160 -26
l66 -22c9 -3 11 -8 9 -16l-41 -112c-3 -8 -8 -11 -16 -8l-59 18c-40 12 -78 21 -119 21c-56 0 -94 -24 -94 -60c0 -35 31 -51 88 -72z" />
    <glyph glyph-name="Scircumflex" unicode="&#x15c;" horiz-adv-x="620" 
d="M304 839l-59 -50c-5 -4 -10 -6 -16 -6h-113c-11 0 -15 7 -8 16l99 119c4 5 9 7 16 7h161c7 0 12 -2 16 -7l100 -119c7 -9 3 -16 -8 -16h-113c-6 0 -11 2 -16 6zM306 443l84 -31c139 -52 189 -104 189 -213c0 -137 -93 -210 -263 -210c-60 0 -114 6 -197 33l-66 21
c-9 3 -11 8 -9 16l40 111c3 8 8 11 16 8l70 -21c59 -18 103 -24 146 -24c54 0 100 13 100 66c0 30 -35 53 -90 74l-84 32c-137 51 -187 101 -187 210c0 131 99 205 257 205c58 0 112 -10 160 -26l66 -22c9 -3 11 -8 9 -16l-41 -112c-3 -8 -8 -11 -16 -8l-59 18
c-40 12 -78 21 -119 21c-56 0 -94 -24 -94 -60c0 -35 31 -51 88 -72z" />
    <glyph glyph-name="Scommaaccent" unicode="&#x218;" horiz-adv-x="620" 
d="M326 273l-84 32c-137 51 -187 101 -187 210c0 131 99 205 257 205c58 0 112 -10 160 -26l66 -22c9 -3 11 -8 9 -16l-41 -112c-3 -8 -8 -11 -16 -8l-59 18c-40 12 -78 21 -119 21c-56 0 -94 -24 -94 -60c0 -35 31 -51 88 -72l84 -31c139 -52 189 -104 189 -213
c0 -137 -93 -210 -263 -210c-60 0 -114 6 -197 33l-66 21c-9 3 -11 8 -9 16l40 111c3 8 8 11 16 8l70 -21c59 -18 103 -24 146 -24c54 0 100 13 100 66c0 30 -35 53 -90 74zM271 -221l17 30c12 18 8 27 -8 31c-22 6 -37 29 -37 56c0 35 24 56 64 56c38 0 63 -23 63 -65
c0 -35 -20 -67 -33 -90l-17 -26c-4 -5 -9 -8 -16 -8h-24c-10 0 -14 7 -9 16z" />
    <glyph glyph-name="Sdotbelow" unicode="&#x1e62;" horiz-adv-x="620" 
d="M326 273l-84 32c-137 51 -187 101 -187 210c0 131 99 205 257 205c58 0 112 -10 160 -26l66 -22c9 -3 11 -8 9 -16l-41 -112c-3 -8 -8 -11 -16 -8l-59 18c-40 12 -78 21 -119 21c-56 0 -94 -24 -94 -60c0 -35 31 -51 88 -72l84 -31c139 -52 189 -104 189 -213
c0 -137 -93 -210 -263 -210c-60 0 -114 6 -197 33l-66 21c-9 3 -11 8 -9 16l40 111c3 8 8 11 16 8l70 -21c59 -18 103 -24 146 -24c54 0 100 13 100 66c0 30 -35 53 -90 74zM306 -65c62 0 96 -28 96 -82s-34 -82 -96 -82c-64 0 -98 28 -98 82s34 82 98 82z" />
    <glyph glyph-name="uni1E9E" unicode="&#x1e9e;" horiz-adv-x="759" 
d="M61 13v454c0 154 85 242 231 242h345c7 0 12 -3 15 -9l2 -3c4 -6 5 -12 1 -18c-16 -32 -33 -64 -50 -100l-69 -151c-6 -13 -4 -15 6 -19l64 -26c79 -32 113 -89 113 -187c0 -130 -98 -207 -264 -207c-32 0 -79 5 -129 21l-44 14c-9 3 -11 8 -9 16l39 112c3 8 8 11 16 8
l44 -13c30 -10 62 -14 83 -14c63 0 101 24 101 63c0 29 -13 54 -43 66l-153 61c-6 2 -9 5 -13 11l-3 4c-3 6 -4 12 -1 18l60 129c12 26 21 44 34 62c12 17 0 20 -19 20h-126c-40 0 -70 -27 -70 -100v-454c0 -8 -5 -13 -13 -13h-135c-8 0 -13 5 -13 13z" />
    <glyph glyph-name="Schwa" unicode="&#x18f;" horiz-adv-x="664" 
d="M99 681l56 16c54 16 101 23 148 23c194 0 316 -140 316 -367c0 -224 -124 -364 -317 -364c-167 0 -265 86 -265 231c0 120 70 186 207 212l194 36c-18 54 -66 107 -135 107c-44 0 -79 -4 -110 -14l-50 -15c-8 -3 -13 0 -16 8l-37 110c-3 9 1 14 9 17zM454 323l-186 -35
c-47 -9 -68 -31 -68 -68c0 -54 38 -87 102 -87c94 0 149 92 152 190z" />
    <glyph glyph-name="T" unicode="T" horiz-adv-x="652" 
d="M617 696v-116c0 -8 -5 -13 -13 -13h-197v-554c0 -8 -5 -13 -13 -13h-135c-8 0 -13 5 -13 13v554h-198c-8 0 -13 5 -13 13v116c0 8 5 13 13 13h556c8 0 13 -5 13 -13z" />
    <glyph glyph-name="Tbar" unicode="&#x166;" horiz-adv-x="672" 
d="M417 567v-162h117c8 0 13 -5 13 -13v-115c0 -8 -5 -13 -13 -13h-117v-251c0 -8 -5 -13 -13 -13h-135c-8 0 -13 5 -13 13v251h-118c-8 0 -13 5 -13 13v115c0 8 5 13 13 13h118v162h-198c-8 0 -13 5 -13 13v116c0 8 5 13 13 13h556c8 0 13 -5 13 -13v-116
c0 -8 -5 -13 -13 -13h-197z" />
    <glyph glyph-name="Tcaron" unicode="&#x164;" horiz-adv-x="652" 
d="M408 785h-161c-7 0 -12 2 -16 7l-99 119c-7 9 -3 16 8 16h113c6 0 11 -2 16 -6l59 -50l59 50c5 4 10 6 16 6h113c11 0 15 -7 8 -16l-100 -119c-4 -5 -9 -7 -16 -7zM48 709h556c8 0 13 -5 13 -13v-116c0 -8 -5 -13 -13 -13h-197v-554c0 -8 -5 -13 -13 -13h-135
c-8 0 -13 5 -13 13v554h-198c-8 0 -13 5 -13 13v116c0 8 5 13 13 13z" />
    <glyph glyph-name="Tcedilla" unicode="&#x162;" horiz-adv-x="652" 
d="M370 0l-13 -31h7c37 0 70 -36 70 -93c0 -63 -39 -106 -113 -106c-23 0 -40 4 -56 9l-16 5c-8 3 -11 8 -8 16l25 73c3 9 8 11 16 8l12 -4c8 -2 16 -3 27 -3c12 0 19 6 19 18s-8 19 -22 19h-37c-7 0 -12 3 -15 9c-3 3 -3 8 -1 15l23 65h-29c-8 0 -13 5 -13 13v554h-198
c-8 0 -13 5 -13 13v116c0 8 5 13 13 13h556c8 0 13 -5 13 -13v-116c0 -8 -5 -13 -13 -13h-197v-554c0 -8 -5 -13 -13 -13h-24z" />
    <glyph glyph-name="uni021A" unicode="&#x21a;" horiz-adv-x="652" 
d="M407 567v-554c0 -8 -5 -13 -13 -13h-135c-8 0 -13 5 -13 13v554h-198c-8 0 -13 5 -13 13v116c0 8 5 13 13 13h556c8 0 13 -5 13 -13v-116c0 -8 -5 -13 -13 -13h-197zM291 -221l17 30c12 18 8 27 -8 31c-22 6 -37 29 -37 56c0 35 24 56 64 56c38 0 63 -23 63 -65
c0 -35 -20 -67 -33 -90l-17 -26c-4 -5 -9 -8 -16 -8h-24c-10 0 -14 7 -9 16z" />
    <glyph glyph-name="Tdotbelow" unicode="&#x1e6c;" horiz-adv-x="652" 
d="M407 567v-554c0 -8 -5 -13 -13 -13h-135c-8 0 -13 5 -13 13v554h-198c-8 0 -13 5 -13 13v116c0 8 5 13 13 13h556c8 0 13 -5 13 -13v-116c0 -8 -5 -13 -13 -13h-197zM326 -65c62 0 96 -28 96 -82s-34 -82 -96 -82c-64 0 -98 28 -98 82s34 82 98 82z" />
    <glyph glyph-name="U" unicode="U" horiz-adv-x="678" 
d="M622 696v-403c0 -194 -104 -304 -283 -304c-178 0 -284 110 -284 304v403c0 8 5 13 13 13h136c8 0 13 -5 13 -13v-403c0 -103 45 -160 122 -160s122 57 122 160v403c0 8 5 13 13 13h135c8 0 13 -5 13 -13z" />
    <glyph glyph-name="Uacute" unicode="&#xda;" horiz-adv-x="678" 
d="M337 927h175c12 0 15 -8 7 -16l-112 -119c-4 -5 -9 -7 -16 -7h-125c-11 0 -14 7 -9 16l65 117c3 6 8 9 15 9zM622 696v-403c0 -194 -104 -304 -283 -304c-178 0 -284 110 -284 304v403c0 8 5 13 13 13h136c8 0 13 -5 13 -13v-403c0 -103 45 -160 122 -160s122 57 122 160
v403c0 8 5 13 13 13h135c8 0 13 -5 13 -13z" />
    <glyph glyph-name="Ubreve" unicode="&#x16c;" horiz-adv-x="678" 
d="M497 914v-12c0 -87 -50 -127 -158 -127s-157 40 -157 127v12c0 8 5 13 13 13h95c8 0 13 -5 13 -13v-6c0 -21 10 -36 36 -36s36 15 36 36v6c0 8 5 13 13 13h96c8 0 13 -5 13 -13zM622 696v-403c0 -194 -104 -304 -283 -304c-178 0 -284 110 -284 304v403c0 8 5 13 13 13
h136c8 0 13 -5 13 -13v-403c0 -103 45 -160 122 -160s122 57 122 160v403c0 8 5 13 13 13h135c8 0 13 -5 13 -13z" />
    <glyph glyph-name="Ucaron" unicode="&#x1d3;" horiz-adv-x="678" 
d="M419 785h-161c-7 0 -12 2 -16 7l-99 119c-7 9 -3 16 8 16h113c6 0 11 -2 16 -6l59 -50l59 50c5 4 10 6 16 6h113c11 0 15 -7 8 -16l-100 -119c-4 -5 -9 -7 -16 -7zM474 709h135c8 0 13 -5 13 -13v-403c0 -194 -104 -304 -283 -304c-178 0 -284 110 -284 304v403
c0 8 5 13 13 13h136c8 0 13 -5 13 -13v-403c0 -103 45 -160 122 -160s122 57 122 160v403c0 8 5 13 13 13z" />
    <glyph glyph-name="Ucircumflex" unicode="&#xdb;" horiz-adv-x="678" 
d="M339 841l-59 -50c-5 -4 -10 -6 -16 -6h-113c-11 0 -15 7 -8 16l99 119c4 5 9 7 16 7h161c7 0 12 -2 16 -7l100 -119c7 -9 3 -16 -8 -16h-113c-6 0 -11 2 -16 6zM474 709h135c8 0 13 -5 13 -13v-403c0 -194 -104 -304 -283 -304c-178 0 -284 110 -284 304v403
c0 8 5 13 13 13h136c8 0 13 -5 13 -13v-403c0 -103 45 -160 122 -160s122 57 122 160v403c0 8 5 13 13 13z" />
    <glyph glyph-name="Udblgrave" unicode="&#x214;" horiz-adv-x="678" 
d="M103 927h133c8 0 12 -3 16 -10l54 -117c4 -9 0 -15 -10 -15h-121c-7 0 -12 3 -15 9l-66 117c-5 9 -1 16 9 16zM328 927h132c7 0 12 -3 15 -11l38 -116c3 -9 -1 -15 -11 -15h-114c-8 0 -12 3 -16 10l-54 117c-4 9 0 15 10 15zM622 696v-403c0 -194 -104 -304 -283 -304
c-178 0 -284 110 -284 304v403c0 8 5 13 13 13h136c8 0 13 -5 13 -13v-403c0 -103 45 -160 122 -160s122 57 122 160v403c0 8 5 13 13 13h135c8 0 13 -5 13 -13z" />
    <glyph glyph-name="Udieresis" unicode="&#xdc;" horiz-adv-x="678" 
d="M222 938c56 0 87 -28 87 -82s-31 -82 -87 -82c-57 0 -88 28 -88 82s31 82 88 82zM450 938c56 0 87 -28 87 -82s-31 -82 -87 -82c-57 0 -88 28 -88 82s31 82 88 82zM622 696v-403c0 -194 -104 -304 -283 -304c-178 0 -284 110 -284 304v403c0 8 5 13 13 13h136
c8 0 13 -5 13 -13v-403c0 -103 45 -160 122 -160s122 57 122 160v403c0 8 5 13 13 13h135c8 0 13 -5 13 -13z" />
    <glyph glyph-name="Udieresisacute" unicode="&#x1d7;" horiz-adv-x="678" 
d="M351 1096h175c12 0 15 -8 7 -16l-112 -119c-4 -5 -9 -7 -16 -7h-125c-11 0 -14 7 -9 16l65 117c3 6 8 9 15 9zM222 918c56 0 87 -28 87 -82s-31 -82 -87 -82c-57 0 -88 28 -88 82s31 82 88 82zM450 918c56 0 87 -28 87 -82s-31 -82 -87 -82c-57 0 -88 28 -88 82
s31 82 88 82zM622 696v-403c0 -194 -104 -304 -283 -304c-178 0 -284 110 -284 304v403c0 8 5 13 13 13h136c8 0 13 -5 13 -13v-403c0 -103 45 -160 122 -160s122 57 122 160v403c0 8 5 13 13 13h135c8 0 13 -5 13 -13z" />
    <glyph glyph-name="Udieresiscaron" unicode="&#x1d9;" horiz-adv-x="678" 
d="M423 954h-161c-7 0 -12 2 -16 7l-99 119c-7 9 -3 16 8 16h113c6 0 11 -2 16 -6l59 -50l59 50c5 4 10 6 16 6h113c11 0 15 -7 8 -16l-100 -119c-4 -5 -9 -7 -16 -7zM222 754c-57 0 -88 28 -88 82s31 82 88 82c56 0 87 -28 87 -82s-31 -82 -87 -82zM362 836
c0 54 31 82 88 82c56 0 87 -28 87 -82s-31 -82 -87 -82c-57 0 -88 28 -88 82zM474 709h135c8 0 13 -5 13 -13v-403c0 -194 -104 -304 -283 -304c-178 0 -284 110 -284 304v403c0 8 5 13 13 13h136c8 0 13 -5 13 -13v-403c0 -103 45 -160 122 -160s122 57 122 160v403
c0 8 5 13 13 13z" />
    <glyph glyph-name="Udieresisgrave" unicode="&#x1db;" horiz-adv-x="678" 
d="M352 1087l65 -117c5 -9 2 -16 -9 -16h-125c-7 0 -12 2 -16 7l-112 119c-8 8 -5 16 7 16h175c7 0 12 -3 15 -9zM222 918c56 0 87 -28 87 -82s-31 -82 -87 -82c-57 0 -88 28 -88 82s31 82 88 82zM450 918c56 0 87 -28 87 -82s-31 -82 -87 -82c-57 0 -88 28 -88 82
s31 82 88 82zM622 696v-403c0 -194 -104 -304 -283 -304c-178 0 -284 110 -284 304v403c0 8 5 13 13 13h136c8 0 13 -5 13 -13v-403c0 -103 45 -160 122 -160s122 57 122 160v403c0 8 5 13 13 13h135c8 0 13 -5 13 -13z" />
    <glyph glyph-name="Udieresismacron" unicode="&#x1d5;" horiz-adv-x="678" 
d="M184 1079h317c8 0 13 -5 13 -13v-85c0 -8 -5 -13 -13 -13h-317c-8 0 -13 5 -13 13v85c0 8 5 13 13 13zM222 918c56 0 87 -28 87 -82s-31 -82 -87 -82c-57 0 -88 28 -88 82s31 82 88 82zM450 918c56 0 87 -28 87 -82s-31 -82 -87 -82c-57 0 -88 28 -88 82s31 82 88 82z
M622 696v-403c0 -194 -104 -304 -283 -304c-178 0 -284 110 -284 304v403c0 8 5 13 13 13h136c8 0 13 -5 13 -13v-403c0 -103 45 -160 122 -160s122 57 122 160v403c0 8 5 13 13 13h135c8 0 13 -5 13 -13z" />
    <glyph glyph-name="Udotbelow" unicode="&#x1ee4;" horiz-adv-x="678" 
d="M622 696v-403c0 -194 -104 -304 -283 -304c-178 0 -284 110 -284 304v403c0 8 5 13 13 13h136c8 0 13 -5 13 -13v-403c0 -103 45 -160 122 -160s122 57 122 160v403c0 8 5 13 13 13h135c8 0 13 -5 13 -13zM339 -65c62 0 96 -28 96 -82s-34 -82 -96 -82
c-64 0 -98 28 -98 82s34 82 98 82z" />
    <glyph glyph-name="Ugrave" unicode="&#xd9;" horiz-adv-x="678" 
d="M348 918l65 -117c5 -9 2 -16 -9 -16h-125c-7 0 -12 2 -16 7l-112 119c-8 8 -5 16 7 16h175c7 0 12 -3 15 -9zM622 696v-403c0 -194 -104 -304 -283 -304c-178 0 -284 110 -284 304v403c0 8 5 13 13 13h136c8 0 13 -5 13 -13v-403c0 -103 45 -160 122 -160s122 57 122 160
v403c0 8 5 13 13 13h135c8 0 13 -5 13 -13z" />
    <glyph glyph-name="Uhungarumlaut" unicode="&#x170;" horiz-adv-x="678" 
d="M360 912l-54 -117c-4 -7 -8 -10 -16 -10h-114c-10 0 -14 6 -11 15l38 116c3 8 8 11 15 11h132c10 0 14 -6 10 -15zM584 911l-66 -117c-3 -6 -8 -9 -15 -9h-121c-10 0 -14 6 -10 15l54 117c4 7 8 10 16 10h133c10 0 14 -7 9 -16zM622 696v-403c0 -194 -104 -304 -283 -304
c-178 0 -284 110 -284 304v403c0 8 5 13 13 13h136c8 0 13 -5 13 -13v-403c0 -103 45 -160 122 -160s122 57 122 160v403c0 8 5 13 13 13h135c8 0 13 -5 13 -13z" />
    <glyph glyph-name="Uinvertedbreve" unicode="&#x216;" horiz-adv-x="678" 
d="M484 785h-96c-8 0 -13 5 -13 13v6c0 21 -10 36 -36 36s-36 -15 -36 -36v-6c0 -8 -5 -13 -13 -13h-95c-8 0 -13 5 -13 13v12c0 87 49 127 157 127s158 -40 158 -127v-12c0 -8 -5 -13 -13 -13zM622 696v-403c0 -194 -104 -304 -283 -304c-178 0 -284 110 -284 304v403
c0 8 5 13 13 13h136c8 0 13 -5 13 -13v-403c0 -103 45 -160 122 -160s122 57 122 160v403c0 8 5 13 13 13h135c8 0 13 -5 13 -13z" />
    <glyph glyph-name="Umacron" unicode="&#x16a;" horiz-adv-x="678" 
d="M180 910h317c8 0 13 -5 13 -13v-85c0 -8 -5 -13 -13 -13h-317c-8 0 -13 5 -13 13v85c0 8 5 13 13 13zM622 696v-403c0 -194 -104 -304 -283 -304c-178 0 -284 110 -284 304v403c0 8 5 13 13 13h136c8 0 13 -5 13 -13v-403c0 -103 45 -160 122 -160s122 57 122 160v403
c0 8 5 13 13 13h135c8 0 13 -5 13 -13z" />
    <glyph glyph-name="Uogonek" unicode="&#x172;" horiz-adv-x="678" 
d="M474 709h135c8 0 13 -5 13 -13v-403c0 -117 -38 -204 -108 -254l-156 -134c-7 -6 -9 -10 -9 -16c0 -8 3 -12 12 -12c10 0 18 2 27 5l9 3c8 3 14 1 16 -7l28 -77c2 -8 0 -13 -8 -16l-18 -6c-15 -6 -33 -9 -55 -9c-75 0 -126 34 -126 92c0 32 12 56 36 77l23 19
c22 19 11 31 -12 35c-143 22 -226 128 -226 300v403c0 8 5 13 13 13h136c8 0 13 -5 13 -13v-403c0 -103 45 -160 122 -160s122 57 122 160v403c0 8 5 13 13 13z" />
    <glyph glyph-name="Uring" unicode="&#x16e;" horiz-adv-x="678" 
d="M338 946c68 0 109 -35 109 -94c0 -56 -41 -90 -109 -90s-109 34 -109 90c0 59 41 94 109 94zM338 889c-24 0 -38 -14 -38 -37s14 -36 38 -36c23 0 37 13 37 36s-14 37 -37 37zM622 696v-403c0 -194 -104 -304 -283 -304c-178 0 -284 110 -284 304v403c0 8 5 13 13 13h136
c8 0 13 -5 13 -13v-403c0 -103 45 -160 122 -160s122 57 122 160v403c0 8 5 13 13 13h135c8 0 13 -5 13 -13z" />
    <glyph glyph-name="Utilde" unicode="&#x168;" horiz-adv-x="678" 
d="M150 807l27 52c21 43 56 61 102 61c23 0 50 -10 68 -18l29 -12c8 -3 15 -6 19 -6c7 0 15 2 21 15l5 9c3 6 8 9 15 9h83c10 0 14 -6 9 -15l-27 -55c-21 -41 -56 -58 -103 -58c-22 0 -46 9 -64 16l-33 13c-8 3 -15 6 -20 6c-6 0 -13 -2 -20 -14l-4 -9c-4 -6 -8 -9 -16 -9
h-82c-10 0 -14 6 -9 15zM622 696v-403c0 -194 -104 -304 -283 -304c-178 0 -284 110 -284 304v403c0 8 5 13 13 13h136c8 0 13 -5 13 -13v-403c0 -103 45 -160 122 -160s122 57 122 160v403c0 8 5 13 13 13h135c8 0 13 -5 13 -13z" />
    <glyph glyph-name="V" unicode="V" horiz-adv-x="727" 
d="M702 694l-141 -383c-37 -102 -68 -200 -94 -300c-2 -7 -7 -11 -15 -11h-177c-8 0 -13 4 -15 11c-26 100 -57 198 -94 300l-141 383c-3 9 1 15 11 15h141c7 0 12 -3 15 -10l96 -265c29 -79 54 -166 66 -231c2 -13 17 -13 19 0c12 65 37 152 66 231l96 265c3 7 8 10 15 10
h141c10 0 14 -6 11 -15z" />
    <glyph glyph-name="W" unicode="W" horiz-adv-x="1018" 
d="M984 695l-123 -480c-18 -69 -33 -135 -46 -203c-1 -8 -6 -12 -14 -12h-183c-8 0 -13 4 -14 12c-11 58 -22 111 -36 166l-31 130c-6 26 -14 68 -20 103c-2 14 -14 14 -16 0c-6 -35 -14 -76 -20 -103l-31 -130c-13 -55 -24 -108 -36 -166c-1 -8 -6 -12 -14 -12h-183
c-8 0 -13 4 -14 12c-13 68 -28 134 -46 203l-123 480c-3 8 2 14 11 14h138c8 0 13 -4 15 -11l68 -270c17 -68 31 -155 37 -220c1 -13 16 -14 18 0c9 64 25 152 44 220l73 270c2 7 7 11 14 11h114c7 0 12 -4 14 -11l74 -270c19 -68 35 -156 44 -220c1 -14 16 -13 17 0
c5 65 20 152 37 220l68 270c2 7 7 11 15 11h138c9 0 14 -6 11 -14z" />
    <glyph glyph-name="Wacute" unicode="&#x1e82;" horiz-adv-x="1018" 
d="M506 927h175c12 0 15 -8 7 -16l-112 -119c-4 -5 -9 -7 -16 -7h-125c-11 0 -14 7 -9 16l65 117c3 6 8 9 15 9zM984 695l-123 -480c-18 -69 -33 -135 -46 -203c-1 -8 -6 -12 -14 -12h-183c-8 0 -13 4 -14 12c-11 58 -22 111 -36 166l-31 130c-6 26 -14 68 -20 103
c-2 14 -14 14 -16 0c-6 -35 -14 -76 -20 -103l-31 -130c-13 -55 -24 -108 -36 -166c-1 -8 -6 -12 -14 -12h-183c-8 0 -13 4 -14 12c-13 68 -28 134 -46 203l-123 480c-3 8 2 14 11 14h138c8 0 13 -4 15 -11l68 -270c17 -68 31 -155 37 -220c1 -13 16 -14 18 0
c9 64 25 152 44 220l73 270c2 7 7 11 14 11h114c7 0 12 -4 14 -11l74 -270c19 -68 35 -156 44 -220c1 -14 16 -13 17 0c5 65 20 152 37 220l68 270c2 7 7 11 15 11h138c9 0 14 -6 11 -14z" />
    <glyph glyph-name="Wcircumflex" unicode="&#x174;" horiz-adv-x="1018" 
d="M509 841l-59 -50c-5 -4 -10 -6 -16 -6h-113c-11 0 -15 7 -8 16l99 119c4 5 9 7 16 7h161c7 0 12 -2 16 -7l100 -119c7 -9 3 -16 -8 -16h-113c-6 0 -11 2 -16 6zM835 709h138c9 0 14 -6 11 -14l-123 -480c-18 -69 -33 -135 -46 -203c-1 -8 -6 -12 -14 -12h-183
c-8 0 -13 4 -14 12c-11 58 -22 111 -36 166l-31 130c-6 26 -14 68 -20 103c-2 14 -14 14 -16 0c-6 -35 -14 -76 -20 -103l-31 -130c-13 -55 -24 -108 -36 -166c-1 -8 -6 -12 -14 -12h-183c-8 0 -13 4 -14 12c-13 68 -28 134 -46 203l-123 480c-3 8 2 14 11 14h138
c8 0 13 -4 15 -11l68 -270c17 -68 31 -155 37 -220c1 -13 16 -14 18 0c9 64 25 152 44 220l73 270c2 7 7 11 14 11h114c7 0 12 -4 14 -11l74 -270c19 -68 35 -156 44 -220c1 -14 16 -13 17 0c5 65 20 152 37 220l68 270c2 7 7 11 15 11z" />
    <glyph glyph-name="Wdieresis" unicode="&#x1e84;" horiz-adv-x="1018" 
d="M392 938c56 0 87 -28 87 -82s-31 -82 -87 -82c-57 0 -88 28 -88 82s31 82 88 82zM620 938c56 0 87 -28 87 -82s-31 -82 -87 -82c-57 0 -88 28 -88 82s31 82 88 82zM984 695l-123 -480c-18 -69 -33 -135 -46 -203c-1 -8 -6 -12 -14 -12h-183c-8 0 -13 4 -14 12
c-11 58 -22 111 -36 166l-31 130c-6 26 -14 68 -20 103c-2 14 -14 14 -16 0c-6 -35 -14 -76 -20 -103l-31 -130c-13 -55 -24 -108 -36 -166c-1 -8 -6 -12 -14 -12h-183c-8 0 -13 4 -14 12c-13 68 -28 134 -46 203l-123 480c-3 8 2 14 11 14h138c8 0 13 -4 15 -11l68 -270
c17 -68 31 -155 37 -220c1 -13 16 -14 18 0c9 64 25 152 44 220l73 270c2 7 7 11 14 11h114c7 0 12 -4 14 -11l74 -270c19 -68 35 -156 44 -220c1 -14 16 -13 17 0c5 65 20 152 37 220l68 270c2 7 7 11 15 11h138c9 0 14 -6 11 -14z" />
    <glyph glyph-name="Wgrave" unicode="&#x1e80;" horiz-adv-x="1018" 
d="M518 918l65 -117c5 -9 2 -16 -9 -16h-125c-7 0 -12 2 -16 7l-112 119c-8 8 -5 16 7 16h175c7 0 12 -3 15 -9zM984 695l-123 -480c-18 -69 -33 -135 -46 -203c-1 -8 -6 -12 -14 -12h-183c-8 0 -13 4 -14 12c-11 58 -22 111 -36 166l-31 130c-6 26 -14 68 -20 103
c-2 14 -14 14 -16 0c-6 -35 -14 -76 -20 -103l-31 -130c-13 -55 -24 -108 -36 -166c-1 -8 -6 -12 -14 -12h-183c-8 0 -13 4 -14 12c-13 68 -28 134 -46 203l-123 480c-3 8 2 14 11 14h138c8 0 13 -4 15 -11l68 -270c17 -68 31 -155 37 -220c1 -13 16 -14 18 0
c9 64 25 152 44 220l73 270c2 7 7 11 14 11h114c7 0 12 -4 14 -11l74 -270c19 -68 35 -156 44 -220c1 -14 16 -13 17 0c5 65 20 152 37 220l68 270c2 7 7 11 15 11h138c9 0 14 -6 11 -14z" />
    <glyph glyph-name="X" unicode="X" horiz-adv-x="719" 
d="M663 694l-122 -231c-24 -48 -52 -76 -91 -99c-3 -2 -4 -5 -4 -8c0 -6 6 -7 11 -10c33 -22 63 -53 86 -99l123 -232c5 -9 1 -15 -10 -15h-147c-7 0 -12 3 -15 9l-126 234c-8 15 -10 15 -18 0l-125 -234c-3 -6 -8 -9 -15 -9h-147c-11 0 -15 6 -10 15l123 232
c24 45 52 76 86 99c4 3 10 4 10 10c1 3 0 6 -4 8c-37 23 -65 50 -90 98l-122 232c-5 9 -1 15 9 15h147c7 0 12 -3 15 -9l121 -231c8 -16 15 -15 22 0l122 231c3 6 8 9 15 9h147c10 0 14 -6 9 -15z" />
    <glyph glyph-name="Y" unicode="Y" horiz-adv-x="696" 
d="M668 694l-125 -234c-83 -158 -114 -214 -114 -353v-94c0 -8 -5 -13 -13 -13h-135c-8 0 -13 5 -13 13v94c0 139 -30 195 -115 353l-125 234c-5 9 -1 15 10 15h147c7 0 12 -3 15 -9l70 -128c32 -59 56 -120 69 -156c4 -12 15 -12 19 0c12 36 38 98 69 156l69 128
c3 6 8 9 15 9h147c11 0 15 -6 10 -15z" />
    <glyph glyph-name="Yacute" unicode="&#xdd;" horiz-adv-x="696" 
d="M346 927h175c12 0 15 -8 7 -16l-112 -119c-4 -5 -9 -7 -16 -7h-125c-11 0 -14 7 -9 16l65 117c3 6 8 9 15 9zM668 694l-125 -234c-83 -158 -114 -214 -114 -353v-94c0 -8 -5 -13 -13 -13h-135c-8 0 -13 5 -13 13v94c0 139 -30 195 -115 353l-125 234c-5 9 -1 15 10 15
h147c7 0 12 -3 15 -9l70 -128c32 -59 56 -120 69 -156c4 -12 15 -12 19 0c12 36 38 98 69 156l69 128c3 6 8 9 15 9h147c11 0 15 -6 10 -15z" />
    <glyph glyph-name="Ycircumflex" unicode="&#x176;" horiz-adv-x="696" 
d="M349 841l-59 -50c-5 -4 -10 -6 -16 -6h-113c-11 0 -15 7 -8 16l99 119c4 5 9 7 16 7h161c7 0 12 -2 16 -7l100 -119c7 -9 3 -16 -8 -16h-113c-6 0 -11 2 -16 6zM511 709h147c11 0 15 -6 10 -15l-125 -234c-83 -158 -114 -214 -114 -353v-94c0 -8 -5 -13 -13 -13h-135
c-8 0 -13 5 -13 13v94c0 139 -30 195 -115 353l-125 234c-5 9 -1 15 10 15h147c7 0 12 -3 15 -9l70 -128c32 -59 56 -120 69 -156c4 -12 15 -12 19 0c12 36 38 98 69 156l69 128c3 6 8 9 15 9z" />
    <glyph glyph-name="Ydieresis" unicode="&#x178;" horiz-adv-x="696" 
d="M232 938c56 0 87 -28 87 -82s-31 -82 -87 -82c-57 0 -88 28 -88 82s31 82 88 82zM460 938c56 0 87 -28 87 -82s-31 -82 -87 -82c-57 0 -88 28 -88 82s31 82 88 82zM668 694l-125 -234c-83 -158 -114 -214 -114 -353v-94c0 -8 -5 -13 -13 -13h-135c-8 0 -13 5 -13 13v94
c0 139 -30 195 -115 353l-125 234c-5 9 -1 15 10 15h147c7 0 12 -3 15 -9l70 -128c32 -59 56 -120 69 -156c4 -12 15 -12 19 0c12 36 38 98 69 156l69 128c3 6 8 9 15 9h147c11 0 15 -6 10 -15z" />
    <glyph glyph-name="Ygrave" unicode="&#x1ef2;" horiz-adv-x="696" 
d="M358 918l65 -117c5 -9 2 -16 -9 -16h-125c-7 0 -12 2 -16 7l-112 119c-8 8 -5 16 7 16h175c7 0 12 -3 15 -9zM668 694l-125 -234c-83 -158 -114 -214 -114 -353v-94c0 -8 -5 -13 -13 -13h-135c-8 0 -13 5 -13 13v94c0 139 -30 195 -115 353l-125 234c-5 9 -1 15 10 15
h147c7 0 12 -3 15 -9l70 -128c32 -59 56 -120 69 -156c4 -12 15 -12 19 0c12 36 38 98 69 156l69 128c3 6 8 9 15 9h147c11 0 15 -6 10 -15z" />
    <glyph glyph-name="Ytilde" unicode="&#x1ef8;" horiz-adv-x="696" 
d="M160 807l27 52c21 43 56 61 102 61c23 0 50 -10 68 -18l29 -12c8 -3 15 -6 19 -6c7 0 15 2 21 15l5 9c3 6 8 9 15 9h83c10 0 14 -6 9 -15l-27 -55c-21 -41 -56 -58 -103 -58c-22 0 -46 9 -64 16l-33 13c-8 3 -15 6 -20 6c-6 0 -13 -2 -20 -14l-4 -9c-4 -6 -8 -9 -16 -9
h-82c-10 0 -14 6 -9 15zM668 694l-125 -234c-83 -158 -114 -214 -114 -353v-94c0 -8 -5 -13 -13 -13h-135c-8 0 -13 5 -13 13v94c0 139 -30 195 -115 353l-125 234c-5 9 -1 15 10 15h147c7 0 12 -3 15 -9l70 -128c32 -59 56 -120 69 -156c4 -12 15 -12 19 0
c12 36 38 98 69 156l69 128c3 6 8 9 15 9h147c11 0 15 -6 10 -15z" />
    <glyph glyph-name="Z" unicode="Z" horiz-adv-x="636" 
d="M63 580v116c0 8 5 13 13 13h492c7 0 12 -3 15 -9l2 -3c4 -6 4 -12 0 -18c-38 -57 -60 -94 -98 -169l-124 -240c-18 -33 -46 -80 -70 -112c-9 -13 -6 -17 10 -17h94h164c9 0 13 -6 11 -15l-32 -115c-2 -7 -7 -11 -14 -11h-453c-7 0 -12 3 -15 9l-2 3c-4 6 -4 12 0 18
c47 71 67 112 97 170l124 239c16 34 42 87 65 111c10 9 7 17 -5 17h-92h-169c-8 0 -13 5 -13 13z" />
    <glyph glyph-name="Zacute" unicode="&#x179;" horiz-adv-x="636" 
d="M318 927h175c12 0 15 -8 7 -16l-112 -119c-4 -5 -9 -7 -16 -7h-125c-11 0 -14 7 -9 16l65 117c3 6 8 9 15 9zM76 709h492c7 0 12 -3 15 -9l2 -3c4 -6 4 -12 0 -18c-38 -57 -60 -94 -98 -169l-124 -240c-18 -33 -46 -80 -70 -112c-9 -13 -6 -17 10 -17h258
c9 0 13 -6 11 -15l-32 -115c-2 -7 -7 -11 -14 -11h-453c-7 0 -12 3 -15 9l-2 3c-4 6 -4 12 0 18c47 71 67 112 97 170l124 239c16 34 42 87 65 111c10 9 7 17 -5 17h-261c-8 0 -13 5 -13 13v116c0 8 5 13 13 13z" />
    <glyph glyph-name="Zcaron" unicode="&#x17d;" horiz-adv-x="636" 
d="M400 785h-161c-7 0 -12 2 -16 7l-99 119c-7 9 -3 16 8 16h113c6 0 11 -2 16 -6l59 -50l59 50c5 4 10 6 16 6h113c11 0 15 -7 8 -16l-100 -119c-4 -5 -9 -7 -16 -7zM303 141h258c9 0 13 -6 11 -15l-32 -115c-2 -7 -7 -11 -14 -11h-453c-7 0 -12 3 -15 9l-2 3
c-4 6 -4 12 0 18c47 71 67 112 97 170l124 239c16 34 42 87 65 111c10 9 7 17 -5 17h-261c-8 0 -13 5 -13 13v116c0 8 5 13 13 13h492c7 0 12 -3 15 -9l2 -3c4 -6 4 -12 0 -18c-38 -57 -60 -94 -98 -169l-124 -240c-18 -33 -46 -80 -70 -112c-9 -13 -6 -17 10 -17z" />
    <glyph glyph-name="Zdotaccent" unicode="&#x17b;" horiz-adv-x="636" 
d="M320 938c62 0 96 -28 96 -82s-34 -82 -96 -82c-64 0 -98 28 -98 82s34 82 98 82zM76 709h492c7 0 12 -3 15 -9l2 -3c4 -6 4 -12 0 -18c-38 -57 -60 -94 -98 -169l-124 -240c-18 -33 -46 -80 -70 -112c-9 -13 -6 -17 10 -17h258c9 0 13 -6 11 -15l-32 -115
c-2 -7 -7 -11 -14 -11h-453c-7 0 -12 3 -15 9l-2 3c-4 6 -4 12 0 18c47 71 67 112 97 170l124 239c16 34 42 87 65 111c10 9 7 17 -5 17h-261c-8 0 -13 5 -13 13v116c0 8 5 13 13 13z" />
    <glyph glyph-name="Zdotbelow" unicode="&#x1e92;" horiz-adv-x="636" 
d="M76 709h492c7 0 12 -3 15 -9l2 -3c4 -6 4 -12 0 -18c-38 -57 -60 -94 -98 -169l-124 -240c-18 -33 -46 -80 -70 -112c-9 -13 -6 -17 10 -17h258c9 0 13 -6 11 -15l-32 -115c-2 -7 -7 -11 -14 -11h-453c-7 0 -12 3 -15 9l-2 3c-4 6 -4 12 0 18c47 71 67 112 97 170
l124 239c16 34 42 87 65 111c10 9 7 17 -5 17h-261c-8 0 -13 5 -13 13v116c0 8 5 13 13 13zM310 -65c62 0 96 -28 96 -82s-34 -82 -96 -82c-64 0 -98 28 -98 82s34 82 98 82z" />
    <glyph glyph-name="a" unicode="a" horiz-adv-x="524" 
d="M83 475l39 11c37 10 72 16 110 16c152 0 241 -72 241 -194v-295c0 -8 -5 -13 -13 -13h-75c-8 0 -12 3 -16 9l-9 18c-6 12 -15 14 -32 0c-26 -23 -66 -38 -108 -38c-119 0 -190 59 -190 160c0 93 74 148 198 148h94v2c-4 43 -41 68 -98 68c-20 0 -43 -4 -65 -10l-38 -11
c-8 -2 -13 1 -16 9l-31 104c-3 9 0 14 9 16zM322 198h-94c-29 0 -50 -16 -50 -38c0 -28 21 -44 57 -44c52 0 81 25 87 80v2z" />
    <glyph glyph-name="aacute" unicode="&#xe1;" horiz-adv-x="524" 
d="M264 728h147c11 0 14 -7 9 -16l-98 -147c-4 -5 -9 -8 -16 -8h-107c-9 0 -14 6 -10 15l60 146c3 7 7 10 15 10zM83 475l39 11c37 10 72 16 110 16c152 0 241 -72 241 -194v-295c0 -8 -5 -13 -13 -13h-75c-8 0 -12 3 -16 9l-9 18c-6 12 -15 14 -32 0
c-26 -23 -66 -38 -108 -38c-119 0 -190 59 -190 160c0 93 74 148 198 148h94v2c-4 43 -41 68 -98 68c-20 0 -43 -4 -65 -10l-38 -11c-8 -2 -13 1 -16 9l-31 104c-3 9 0 14 9 16zM322 198h-94c-29 0 -50 -16 -50 -38c0 -28 21 -44 57 -44c52 0 81 25 87 80v2z" />
    <glyph glyph-name="abreve" unicode="&#x103;" horiz-adv-x="524" 
d="M409 715v-24c0 -89 -55 -141 -149 -141c-92 0 -148 52 -148 141v24c0 8 5 13 13 13h82c8 0 13 -5 13 -13v-26c0 -26 14 -42 40 -42c27 0 41 16 41 42v26c0 8 5 13 13 13h82c8 0 13 -5 13 -13zM83 475l39 11c37 10 72 16 110 16c152 0 241 -72 241 -194v-295
c0 -8 -5 -13 -13 -13h-75c-8 0 -12 3 -16 9l-9 18c-6 12 -15 14 -32 0c-26 -23 -66 -38 -108 -38c-119 0 -190 59 -190 160c0 93 74 148 198 148h94v2c-4 43 -41 68 -98 68c-20 0 -43 -4 -65 -10l-38 -11c-8 -2 -13 1 -16 9l-31 104c-3 9 0 14 9 16zM322 198h-94
c-29 0 -50 -16 -50 -38c0 -28 21 -44 57 -44c52 0 81 25 87 80v2z" />
    <glyph glyph-name="acaron" unicode="&#x1ce;" horiz-adv-x="524" 
d="M324 557h-118c-7 0 -12 3 -16 8l-98 147c-5 9 -2 16 9 16h95c7 0 12 -2 16 -7l53 -63l52 63c4 5 9 7 16 7h95c11 0 14 -7 9 -16l-97 -147c-4 -5 -9 -8 -16 -8zM83 475l39 11c37 10 72 16 110 16c152 0 241 -72 241 -194v-295c0 -8 -5 -13 -13 -13h-75c-8 0 -12 3 -16 9
l-9 18c-6 12 -15 14 -32 0c-26 -23 -66 -38 -108 -38c-119 0 -190 59 -190 160c0 93 74 148 198 148h94v2c-4 43 -41 68 -98 68c-20 0 -43 -4 -65 -10l-38 -11c-8 -2 -13 1 -16 9l-31 104c-3 9 0 14 9 16zM322 198h-94c-29 0 -50 -16 -50 -38c0 -28 21 -44 57 -44
c52 0 81 25 87 80v2z" />
    <glyph glyph-name="acircumflex" unicode="&#xe2;" horiz-adv-x="524" 
d="M260 627l-52 -63c-4 -5 -9 -7 -16 -7h-95c-11 0 -14 7 -9 16l97 147c4 5 9 8 16 8h118c7 0 12 -3 16 -8l98 -147c5 -9 2 -16 -9 -16h-95c-7 0 -12 2 -16 7zM83 475l39 11c37 10 72 16 110 16c152 0 241 -72 241 -194v-295c0 -8 -5 -13 -13 -13h-75c-8 0 -12 3 -16 9
l-9 18c-6 12 -15 14 -32 0c-26 -23 -66 -38 -108 -38c-119 0 -190 59 -190 160c0 93 74 148 198 148h94v2c-4 43 -41 68 -98 68c-20 0 -43 -4 -65 -10l-38 -11c-8 -2 -13 1 -16 9l-31 104c-3 9 0 14 9 16zM322 198h-94c-29 0 -50 -16 -50 -38c0 -28 21 -44 57 -44
c52 0 81 25 87 80v2z" />
    <glyph glyph-name="adblgrave" unicode="&#x201;" horiz-adv-x="524" 
d="M57 728h113c7 0 12 -3 14 -11l46 -145c3 -9 -1 -15 -10 -15h-98c-8 0 -12 3 -15 10l-60 146c-4 9 1 15 10 15zM256 728h113c8 0 13 -4 15 -11l32 -146c2 -9 -2 -14 -12 -14h-98c-7 0 -12 3 -14 11l-46 145c-3 9 1 15 10 15zM83 475l39 11c37 10 72 16 110 16
c152 0 241 -72 241 -194v-295c0 -8 -5 -13 -13 -13h-75c-8 0 -12 3 -16 9l-9 18c-6 12 -15 14 -32 0c-26 -23 -66 -38 -108 -38c-119 0 -190 59 -190 160c0 93 74 148 198 148h94v2c-4 43 -41 68 -98 68c-20 0 -43 -4 -65 -10l-38 -11c-8 -2 -13 1 -16 9l-31 104
c-3 9 0 14 9 16zM322 198h-94c-29 0 -50 -16 -50 -38c0 -28 21 -44 57 -44c52 0 81 25 87 80v2z" />
    <glyph glyph-name="adieresis" unicode="&#xe4;" horiz-adv-x="524" 
d="M159 737c51 0 80 -29 80 -82c0 -52 -29 -83 -80 -83c-50 0 -80 31 -80 83c0 53 30 82 80 82zM360 737c51 0 80 -29 80 -82c0 -52 -29 -83 -80 -83c-50 0 -80 31 -80 83c0 53 30 82 80 82zM83 475l39 11c37 10 72 16 110 16c152 0 241 -72 241 -194v-295
c0 -8 -5 -13 -13 -13h-75c-8 0 -12 3 -16 9l-9 18c-6 12 -15 14 -32 0c-26 -23 -66 -38 -108 -38c-119 0 -190 59 -190 160c0 93 74 148 198 148h94v2c-4 43 -41 68 -98 68c-20 0 -43 -4 -65 -10l-38 -11c-8 -2 -13 1 -16 9l-31 104c-3 9 0 14 9 16zM322 198h-94
c-29 0 -50 -16 -50 -38c0 -28 21 -44 57 -44c52 0 81 25 87 80v2z" />
    <glyph glyph-name="agrave" unicode="&#xe0;" horiz-adv-x="524" 
d="M274 718l60 -146c4 -9 -1 -15 -10 -15h-107c-7 0 -12 3 -16 8l-98 147c-5 9 -2 16 9 16h147c8 0 12 -3 15 -10zM83 475l39 11c37 10 72 16 110 16c152 0 241 -72 241 -194v-295c0 -8 -5 -13 -13 -13h-75c-8 0 -12 3 -16 9l-9 18c-6 12 -15 14 -32 0
c-26 -23 -66 -38 -108 -38c-119 0 -190 59 -190 160c0 93 74 148 198 148h94v2c-4 43 -41 68 -98 68c-20 0 -43 -4 -65 -10l-38 -11c-8 -2 -13 1 -16 9l-31 104c-3 9 0 14 9 16zM322 198h-94c-29 0 -50 -16 -50 -38c0 -28 21 -44 57 -44c52 0 81 25 87 80v2z" />
    <glyph glyph-name="ainvertedbreve" unicode="&#x203;" horiz-adv-x="524" 
d="M396 557h-82c-8 0 -13 5 -13 13v26c0 26 -14 42 -41 42c-26 0 -40 -16 -40 -42v-26c0 -8 -5 -13 -13 -13h-82c-8 0 -13 5 -13 13v24c0 89 56 141 148 141c94 0 149 -52 149 -141v-24c0 -8 -5 -13 -13 -13zM83 475l39 11c37 10 72 16 110 16c152 0 241 -72 241 -194v-295
c0 -8 -5 -13 -13 -13h-75c-8 0 -12 3 -16 9l-9 18c-6 12 -15 14 -32 0c-26 -23 -66 -38 -108 -38c-119 0 -190 59 -190 160c0 93 74 148 198 148h94v2c-4 43 -41 68 -98 68c-20 0 -43 -4 -65 -10l-38 -11c-8 -2 -13 1 -16 9l-31 104c-3 9 0 14 9 16zM322 198h-94
c-29 0 -50 -16 -50 -38c0 -28 21 -44 57 -44c52 0 81 25 87 80v2z" />
    <glyph glyph-name="amacron" unicode="&#x101;" horiz-adv-x="524" 
d="M130 692h261c8 0 13 -5 13 -13v-79c0 -8 -5 -13 -13 -13h-261c-8 0 -13 5 -13 13v79c0 8 5 13 13 13zM83 475l39 11c37 10 72 16 110 16c152 0 241 -72 241 -194v-295c0 -8 -5 -13 -13 -13h-75c-8 0 -12 3 -16 9l-9 18c-6 12 -15 14 -32 0c-26 -23 -66 -38 -108 -38
c-119 0 -190 59 -190 160c0 93 74 148 198 148h94v2c-4 43 -41 68 -98 68c-20 0 -43 -4 -65 -10l-38 -11c-8 -2 -13 1 -16 9l-31 104c-3 9 0 14 9 16zM322 198h-94c-29 0 -50 -16 -50 -38c0 -28 21 -44 57 -44c52 0 81 25 87 80v2z" />
    <glyph glyph-name="aogonek" unicode="&#x105;" horiz-adv-x="524" 
d="M451 -113l28 -77c3 -8 1 -13 -8 -16l-15 -5c-15 -6 -33 -9 -56 -9c-75 0 -125 34 -125 92c0 32 12 55 36 77l47 42l14 13l-12 23c-6 12 -15 14 -32 0c-26 -23 -66 -38 -108 -38c-119 0 -190 59 -190 160c0 93 74 148 198 148h94v2c-4 43 -41 68 -98 68
c-20 0 -43 -4 -65 -10l-38 -11c-8 -2 -13 1 -16 9l-31 104c-3 9 0 14 9 16l39 11c37 10 72 16 110 16c152 0 241 -72 241 -194v-296c7 -1 11 -6 9 -14c-3 -11 -12 -22 -34 -41l-49 -42c-7 -6 -9 -10 -9 -16c0 -8 3 -12 11 -12c9 0 18 2 27 5l7 2c8 3 14 1 16 -7zM322 198
h-94c-29 0 -50 -16 -50 -38c0 -28 21 -44 57 -44c52 0 81 25 87 80v2z" />
    <glyph glyph-name="aring" unicode="&#xe5;" horiz-adv-x="524" 
d="M261 736c64 0 102 -35 102 -94s-38 -94 -102 -94c-66 0 -105 35 -105 94s39 94 105 94zM261 677c-26 0 -42 -13 -42 -35s16 -35 42 -35c25 0 40 13 40 35s-15 35 -40 35zM83 475l39 11c37 10 72 16 110 16c152 0 241 -72 241 -194v-295c0 -8 -5 -13 -13 -13h-75
c-8 0 -12 3 -16 9l-9 18c-6 12 -15 14 -32 0c-26 -23 -66 -38 -108 -38c-119 0 -190 59 -190 160c0 93 74 148 198 148h94v2c-4 43 -41 68 -98 68c-20 0 -43 -4 -65 -10l-38 -11c-8 -2 -13 1 -16 9l-31 104c-3 9 0 14 9 16zM322 198h-94c-29 0 -50 -16 -50 -38
c0 -28 21 -44 57 -44c52 0 81 25 87 80v2z" />
    <glyph glyph-name="aringacute" unicode="&#x1fb;" horiz-adv-x="524" 
d="M258 935h147c11 0 14 -7 9 -16l-98 -147c-4 -5 -9 -8 -16 -8h-107c-9 0 -14 6 -10 15l60 146c3 7 7 10 15 10zM258 725c64 0 102 -35 102 -94s-38 -94 -102 -94c-66 0 -105 35 -105 94s39 94 105 94zM258 666c-26 0 -42 -13 -42 -35s16 -35 42 -35c25 0 40 13 40 35
s-15 35 -40 35zM83 475l39 11c37 10 72 16 110 16c152 0 241 -72 241 -194v-295c0 -8 -5 -13 -13 -13h-75c-8 0 -12 3 -16 9l-9 18c-6 12 -15 14 -32 0c-26 -23 -66 -38 -108 -38c-119 0 -190 59 -190 160c0 93 74 148 198 148h94v2c-4 43 -41 68 -98 68
c-20 0 -43 -4 -65 -10l-38 -11c-8 -2 -13 1 -16 9l-31 104c-3 9 0 14 9 16zM322 198h-94c-29 0 -50 -16 -50 -38c0 -28 21 -44 57 -44c52 0 81 25 87 80v2z" />
    <glyph glyph-name="atilde" unicode="&#xe3;" horiz-adv-x="524" 
d="M95 615l26 54c22 44 49 63 94 63c30 0 45 -7 60 -18l24 -19c6 -5 12 -7 16 -7c5 0 9 5 17 18l9 13c3 6 8 9 15 9h71c10 0 14 -6 9 -15l-27 -55c-22 -43 -48 -62 -93 -62c-30 0 -46 9 -63 20l-23 15c-7 5 -12 8 -15 8c-5 0 -10 -4 -17 -16l-9 -14c-3 -6 -8 -9 -15 -9h-70
c-10 0 -14 6 -9 15zM83 475l39 11c37 10 72 16 110 16c152 0 241 -72 241 -194v-295c0 -8 -5 -13 -13 -13h-75c-8 0 -12 3 -16 9l-9 18c-6 12 -15 14 -32 0c-26 -23 -66 -38 -108 -38c-119 0 -190 59 -190 160c0 93 74 148 198 148h94v2c-4 43 -41 68 -98 68
c-20 0 -43 -4 -65 -10l-38 -11c-8 -2 -13 1 -16 9l-31 104c-3 9 0 14 9 16zM322 198h-94c-29 0 -50 -16 -50 -38c0 -28 21 -44 57 -44c52 0 81 25 87 80v2z" />
    <glyph glyph-name="ae" unicode="&#xe6;" horiz-adv-x="799" 
d="M82 476l55 15c29 8 59 11 94 11c69 0 122 -21 163 -54c8 -5 15 -5 21 0c36 33 86 54 142 54c126 0 202 -65 202 -176c0 -77 -57 -119 -175 -136l-108 -15c7 -27 50 -51 81 -51c32 0 60 5 73 8l57 13c8 2 13 -1 15 -9l29 -105c2 -8 -2 -14 -10 -16l-60 -14
c-35 -8 -64 -12 -104 -12c-64 0 -116 23 -154 63c-7 8 -14 8 -21 1c-40 -41 -92 -64 -154 -64c-124 0 -198 61 -198 166c0 71 48 142 201 142h91l-2 10c-6 33 -33 60 -91 60c-28 0 -49 -3 -70 -9l-41 -11c-8 -3 -13 0 -16 8l-29 105c-3 9 0 14 9 16zM466 277l107 15
c20 4 38 15 38 35c0 29 -18 40 -54 40c-43 0 -81 -26 -91 -90zM322 198h-94c-34 0 -50 -16 -50 -41c0 -24 21 -41 49 -41c59 0 91 29 95 82z" />
    <glyph glyph-name="aeacute" unicode="&#x1fd;" horiz-adv-x="800" 
d="M405 728h147c11 0 14 -7 9 -16l-98 -147c-4 -5 -9 -8 -16 -8h-107c-9 0 -14 6 -10 15l60 146c3 7 7 10 15 10zM82 476l55 15c29 8 59 11 94 11c69 0 122 -21 163 -54c8 -5 15 -5 21 0c36 33 86 54 142 54c126 0 202 -65 202 -176c0 -77 -57 -119 -175 -136l-108 -15
c7 -27 50 -51 81 -51c32 0 60 5 73 8l57 13c8 2 13 -1 15 -9l29 -105c2 -8 -2 -14 -10 -16l-60 -14c-35 -8 -64 -12 -104 -12c-64 0 -116 23 -154 63c-7 8 -14 8 -21 1c-40 -41 -92 -64 -154 -64c-124 0 -198 61 -198 166c0 71 48 142 201 142h91l-2 10c-6 33 -33 60 -91 60
c-28 0 -49 -3 -70 -9l-41 -11c-8 -3 -13 0 -16 8l-29 105c-3 9 0 14 9 16zM466 277l107 15c20 4 38 15 38 35c0 29 -18 40 -54 40c-43 0 -81 -26 -91 -90zM322 198h-94c-34 0 -50 -16 -50 -41c0 -24 21 -41 49 -41c59 0 91 29 95 82z" />
    <glyph glyph-name="b" unicode="b" horiz-adv-x="573" 
d="M214 715v-109c0 -54 -5 -83 -24 -123c-8 -17 2 -27 18 -15c30 21 64 34 113 34c133 0 216 -99 216 -256c0 -158 -92 -257 -244 -257c-38 0 -80 5 -122 22l-106 42c-7 3 -10 7 -10 15v647c0 8 5 13 13 13h133c8 0 13 -5 13 -13zM212 151l20 -9c18 -7 41 -13 61 -13
c56 0 89 44 89 117s-34 115 -87 115c-58 0 -83 -42 -83 -98v-112z" />
    <glyph glyph-name="c" unicode="c" horiz-adv-x="481" 
d="M428 15l-57 -16c-28 -8 -59 -10 -86 -10c-160 0 -250 99 -250 257c0 157 89 256 253 256c22 0 51 -2 80 -10l55 -15c9 -3 12 -8 9 -17l-32 -110c-3 -8 -8 -11 -16 -9l-40 11c-20 6 -42 9 -56 9c-68 0 -98 -43 -98 -114c0 -74 32 -118 97 -118c16 0 41 4 61 10l40 10
c8 2 13 -1 16 -9l33 -109c3 -9 0 -14 -9 -16z" />
    <glyph glyph-name="cacute" unicode="&#x107;" horiz-adv-x="481" 
d="M262 728h147c11 0 14 -7 9 -16l-98 -147c-4 -5 -9 -8 -16 -8h-107c-9 0 -14 6 -10 15l60 146c3 7 7 10 15 10zM428 15l-57 -16c-28 -8 -59 -10 -86 -10c-160 0 -250 99 -250 257c0 157 89 256 253 256c22 0 51 -2 80 -10l55 -15c9 -3 12 -8 9 -17l-32 -110
c-3 -8 -8 -11 -16 -9l-40 11c-20 6 -42 9 -56 9c-68 0 -98 -43 -98 -114c0 -74 32 -118 97 -118c16 0 41 4 61 10l40 10c8 2 13 -1 16 -9l33 -109c3 -9 0 -14 -9 -16z" />
    <glyph glyph-name="ccaron" unicode="&#x10d;" horiz-adv-x="481" 
d="M321 557h-118c-7 0 -12 3 -16 8l-98 147c-5 9 -2 16 9 16h95c7 0 12 -2 16 -7l53 -63l52 63c4 5 9 7 16 7h95c11 0 14 -7 9 -16l-97 -147c-4 -5 -9 -8 -16 -8zM348 139l40 10c8 2 13 -1 16 -9l33 -109c3 -9 0 -14 -9 -16l-57 -16c-28 -8 -59 -10 -86 -10
c-160 0 -250 99 -250 257c0 157 89 256 253 256c22 0 51 -2 80 -10l55 -15c9 -3 12 -8 9 -17l-32 -110c-3 -8 -8 -11 -16 -9l-40 11c-20 6 -42 9 -56 9c-68 0 -98 -43 -98 -114c0 -74 32 -118 97 -118c16 0 41 4 61 10z" />
    <glyph glyph-name="ccedilla" unicode="&#xe7;" horiz-adv-x="481" 
d="M428 15l-57 -16c-26 -7 -55 -10 -81 -10l-8 -20h7c37 0 70 -36 70 -93c0 -63 -39 -106 -113 -106c-23 0 -40 4 -56 9l-16 5c-8 3 -11 8 -8 16l25 73c3 9 8 11 16 8l12 -4c8 -2 16 -3 27 -3c12 0 19 6 19 18s-8 19 -22 19h-37c-7 0 -12 3 -15 9c-3 3 -3 8 -1 15l21 62
c-113 26 -176 117 -176 249c0 157 89 256 253 256c22 0 51 -2 80 -10l55 -15c9 -3 12 -8 9 -17l-32 -110c-3 -8 -8 -11 -16 -9l-40 11c-20 6 -42 9 -56 9c-68 0 -98 -43 -98 -114c0 -74 32 -118 97 -118c16 0 41 4 61 10l40 10c8 2 13 -1 16 -9l33 -109c3 -9 0 -14 -9 -16z
" />
    <glyph glyph-name="ccircumflex" unicode="&#x109;" horiz-adv-x="481" 
d="M257 627l-52 -63c-4 -5 -9 -7 -16 -7h-95c-11 0 -14 7 -9 16l97 147c4 5 9 8 16 8h118c7 0 12 -3 16 -8l98 -147c5 -9 2 -16 -9 -16h-95c-7 0 -12 2 -16 7zM404 140l33 -109c3 -9 -1 -14 -9 -16l-57 -16c-28 -8 -59 -10 -86 -10c-160 0 -250 99 -250 257
c0 157 89 256 253 256c22 0 51 -2 80 -10l55 -15c9 -3 12 -8 9 -17l-32 -110c-3 -8 -8 -11 -16 -9l-40 11c-20 6 -42 9 -56 9c-68 0 -98 -43 -98 -114c0 -74 32 -118 97 -118c16 0 41 4 61 10l40 10c8 2 13 -1 16 -9z" />
    <glyph glyph-name="cdotaccent" unicode="&#x10b;" horiz-adv-x="481" 
d="M258 738c56 0 88 -33 88 -91s-32 -92 -88 -92s-89 34 -89 92s33 91 89 91zM428 15l-57 -16c-28 -8 -59 -10 -86 -10c-160 0 -250 99 -250 257c0 157 89 256 253 256c22 0 51 -2 80 -10l55 -15c9 -3 12 -8 9 -17l-32 -110c-3 -8 -8 -11 -16 -9l-40 11c-20 6 -42 9 -56 9
c-68 0 -98 -43 -98 -114c0 -74 32 -118 97 -118c16 0 41 4 61 10l40 10c8 2 13 -1 16 -9l33 -109c3 -9 0 -14 -9 -16z" />
    <glyph glyph-name="d" unicode="d" horiz-adv-x="573" 
d="M517 715v-702c0 -8 -5 -13 -13 -13h-70c-7 0 -12 3 -15 9l-16 24c-6 9 -13 12 -25 0c-36 -32 -80 -44 -127 -44c-134 0 -216 99 -216 257c0 157 88 256 233 256c25 0 47 -3 65 -12l26 -11v236c0 8 5 13 13 13h132c8 0 13 -5 13 -13zM361 340l-20 9c-17 7 -41 12 -62 12
c-56 0 -89 -43 -89 -115c1 -72 34 -117 91 -117c51 0 80 40 80 95v116z" />
    <glyph glyph-name="eth" unicode="&#xf0;" horiz-adv-x="564" 
d="M485 645l-64 -29c94 -117 102 -234 102 -344c0 -180 -79 -282 -249 -282c-148 0 -239 93 -239 241c0 149 87 239 214 239c51 0 82 -14 99 -25s23 0 15 12c-29 36 -54 66 -85 97l-85 -38c-8 -3 -14 -1 -18 7l-14 30c-4 8 -2 14 6 17l65 29l-116 113c-9 8 -6 16 6 16h178
c6 0 11 -2 16 -6l56 -53l6 -5l81 36c8 3 14 1 17 -7l15 -31c4 -8 2 -14 -6 -17zM280 130c55 0 88 37 88 100s-33 100 -88 100c-56 0 -90 -37 -90 -100s34 -100 90 -100z" />
    <glyph glyph-name="dcaron" unicode="&#x10f;" horiz-adv-x="584" 
d="M517 715v-702c0 -8 -5 -13 -13 -13h-70c-7 0 -12 3 -15 9l-16 24c-6 9 -13 12 -25 0c-36 -32 -80 -44 -127 -44c-134 0 -216 99 -216 257c0 157 88 256 233 256c25 0 47 -3 65 -12l26 -11v236c0 8 5 13 13 13h132c8 0 13 -5 13 -13zM589 728h90c8 0 13 -5 13 -13v-36
c0 -27 -6 -64 -24 -97l-8 -16c-4 -6 -8 -9 -16 -9h-73c-9 0 -14 5 -11 14l5 22c8 25 10 51 11 79v43c0 8 5 13 13 13zM361 340l-20 9c-17 7 -41 12 -62 12c-56 0 -89 -43 -89 -115c1 -72 34 -117 91 -117c51 0 80 40 80 95v116z" />
    <glyph glyph-name="dcroat" unicode="&#x111;" horiz-adv-x="578" 
d="M587 645v-73c0 -8 -5 -13 -13 -13h-57v-546c0 -8 -5 -13 -13 -13h-70c-7 0 -12 3 -15 9l-16 24c-6 9 -13 12 -25 0c-36 -32 -80 -44 -127 -44c-134 0 -216 99 -216 257c0 157 88 256 233 256c25 0 47 -3 65 -12l26 -11v80h-103c-8 0 -13 5 -13 13v73c0 8 5 13 13 13h103
v57c0 8 5 13 13 13h132c8 0 13 -5 13 -13v-57h57c8 0 13 -5 13 -13zM361 340l-20 9c-17 7 -41 12 -62 12c-56 0 -89 -43 -89 -115c1 -72 34 -117 91 -117c51 0 80 40 80 95v116z" />
    <glyph glyph-name="ddotbelow" unicode="&#x1e0d;" horiz-adv-x="573" 
d="M517 715v-702c0 -8 -5 -13 -13 -13h-70c-7 0 -12 3 -15 9l-16 24c-6 9 -13 12 -25 0c-36 -32 -80 -44 -127 -44c-134 0 -216 99 -216 257c0 157 88 256 233 256c25 0 47 -3 65 -12l26 -11v236c0 8 5 13 13 13h132c8 0 13 -5 13 -13zM361 340l-20 9c-17 7 -41 12 -62 12
c-56 0 -89 -43 -89 -115c1 -72 34 -117 91 -117c51 0 80 40 80 95v116zM289 -65c55 0 86 -31 86 -82s-31 -82 -86 -82s-88 31 -88 82s33 82 88 82z" />
    <glyph glyph-name="e" unicode="e" horiz-adv-x="521" 
d="M445 15l-62 -15c-35 -8 -69 -11 -95 -11c-164 0 -253 99 -253 256c0 158 91 257 248 257c125 0 202 -66 202 -169c0 -80 -56 -126 -171 -142l-117 -17c19 -35 44 -50 91 -50c21 0 50 4 64 7l60 13c8 2 13 -1 15 -9l28 -104c2 -9 -2 -14 -10 -16zM187 276l104 16
c31 3 46 17 46 39c0 24 -20 36 -60 36c-43 0 -87 -28 -90 -91z" />
    <glyph glyph-name="eacute" unicode="&#xe9;" horiz-adv-x="521" 
d="M269 728h147c11 0 14 -7 9 -16l-98 -147c-4 -5 -9 -8 -16 -8h-107c-9 0 -14 6 -10 15l60 146c3 7 7 10 15 10zM445 15l-62 -15c-35 -8 -69 -11 -95 -11c-164 0 -253 99 -253 256c0 158 91 257 248 257c125 0 202 -66 202 -169c0 -80 -56 -126 -171 -142l-117 -17
c19 -35 44 -50 91 -50c21 0 50 4 64 7l60 13c8 2 13 -1 15 -9l28 -104c2 -9 -2 -14 -10 -16zM187 276l104 16c31 3 46 17 46 39c0 24 -20 36 -60 36c-43 0 -87 -28 -90 -91z" />
    <glyph glyph-name="ebreve" unicode="&#x115;" horiz-adv-x="521" 
d="M414 715v-24c0 -89 -55 -141 -149 -141c-92 0 -148 52 -148 141v24c0 8 5 13 13 13h82c8 0 13 -5 13 -13v-26c0 -26 14 -42 40 -42c27 0 41 16 41 42v26c0 8 5 13 13 13h82c8 0 13 -5 13 -13zM445 15l-62 -15c-35 -8 -69 -11 -95 -11c-164 0 -253 99 -253 256
c0 158 91 257 248 257c125 0 202 -66 202 -169c0 -80 -56 -126 -171 -142l-117 -17c19 -35 44 -50 91 -50c21 0 50 4 64 7l60 13c8 2 13 -1 15 -9l28 -104c2 -9 -2 -14 -10 -16zM187 276l104 16c31 3 46 17 46 39c0 24 -20 36 -60 36c-43 0 -87 -28 -90 -91z" />
    <glyph glyph-name="ecaron" unicode="&#x11b;" horiz-adv-x="521" 
d="M329 557h-118c-7 0 -12 3 -16 8l-98 147c-5 9 -2 16 9 16h95c7 0 12 -2 16 -7l53 -63l52 63c4 5 9 7 16 7h95c11 0 14 -7 9 -16l-97 -147c-4 -5 -9 -8 -16 -8zM352 131l60 13c8 2 13 -1 15 -9l28 -104c2 -9 -2 -14 -10 -16l-62 -15c-35 -8 -69 -11 -95 -11
c-164 0 -253 99 -253 256c0 158 91 257 248 257c125 0 202 -66 202 -169c0 -80 -56 -126 -171 -142l-117 -17c19 -35 44 -50 91 -50c21 0 50 4 64 7zM187 276l104 16c31 3 46 17 46 39c0 24 -20 36 -60 36c-43 0 -87 -28 -90 -91z" />
    <glyph glyph-name="ecircumflex" unicode="&#xea;" horiz-adv-x="521" 
d="M265 627l-52 -63c-4 -5 -9 -7 -16 -7h-95c-11 0 -14 7 -9 16l97 147c4 5 9 8 16 8h118c7 0 12 -3 16 -8l98 -147c5 -9 2 -16 -9 -16h-95c-7 0 -12 2 -16 7zM352 131l60 13c8 2 13 -1 15 -9l28 -104c2 -9 -2 -14 -10 -16l-62 -15c-35 -8 -69 -11 -95 -11
c-164 0 -253 99 -253 256c0 158 91 257 248 257c125 0 202 -66 202 -169c0 -80 -56 -126 -171 -142l-117 -17c19 -35 44 -50 91 -50c21 0 50 4 64 7zM187 276l104 16c31 3 46 17 46 39c0 24 -20 36 -60 36c-43 0 -87 -28 -90 -91z" />
    <glyph glyph-name="edblgrave" unicode="&#x205;" horiz-adv-x="521" 
d="M62 728h113c7 0 12 -3 14 -11l46 -145c3 -9 -1 -15 -10 -15h-98c-8 0 -12 3 -15 10l-60 146c-4 9 1 15 10 15zM261 728h113c8 0 13 -4 15 -11l32 -146c2 -9 -2 -14 -12 -14h-98c-7 0 -12 3 -14 11l-46 145c-3 9 1 15 10 15zM445 15l-62 -15c-35 -8 -69 -11 -95 -11
c-164 0 -253 99 -253 256c0 158 91 257 248 257c125 0 202 -66 202 -169c0 -80 -56 -126 -171 -142l-117 -17c19 -35 44 -50 91 -50c21 0 50 4 64 7l60 13c8 2 13 -1 15 -9l28 -104c2 -9 -2 -14 -10 -16zM187 276l104 16c31 3 46 17 46 39c0 24 -20 36 -60 36
c-43 0 -87 -28 -90 -91z" />
    <glyph glyph-name="edieresis" unicode="&#xeb;" horiz-adv-x="521" 
d="M164 737c51 0 80 -29 80 -82c0 -52 -29 -83 -80 -83c-50 0 -80 31 -80 83c0 53 30 82 80 82zM365 737c51 0 80 -29 80 -82c0 -52 -29 -83 -80 -83c-50 0 -80 31 -80 83c0 53 30 82 80 82zM445 15l-62 -15c-35 -8 -69 -11 -95 -11c-164 0 -253 99 -253 256
c0 158 91 257 248 257c125 0 202 -66 202 -169c0 -80 -56 -126 -171 -142l-117 -17c19 -35 44 -50 91 -50c21 0 50 4 64 7l60 13c8 2 13 -1 15 -9l28 -104c2 -9 -2 -14 -10 -16zM187 276l104 16c31 3 46 17 46 39c0 24 -20 36 -60 36c-43 0 -87 -28 -90 -91z" />
    <glyph glyph-name="edotaccent" unicode="&#x117;" horiz-adv-x="521" 
d="M266 738c56 0 88 -33 88 -91s-32 -92 -88 -92s-89 34 -89 92s33 91 89 91zM445 15l-62 -15c-35 -8 -69 -11 -95 -11c-164 0 -253 99 -253 256c0 158 91 257 248 257c125 0 202 -66 202 -169c0 -80 -56 -126 -171 -142l-117 -17c19 -35 44 -50 91 -50c21 0 50 4 64 7
l60 13c8 2 13 -1 15 -9l28 -104c2 -9 -2 -14 -10 -16zM187 276l104 16c31 3 46 17 46 39c0 24 -20 36 -60 36c-43 0 -87 -28 -90 -91z" />
    <glyph glyph-name="edotbelow" unicode="&#x1eb9;" horiz-adv-x="521" 
d="M445 15l-62 -15c-35 -8 -69 -11 -95 -11c-164 0 -253 99 -253 256c0 158 91 257 248 257c125 0 202 -66 202 -169c0 -80 -56 -126 -171 -142l-117 -17c19 -35 44 -50 91 -50c21 0 50 4 64 7l60 13c8 2 13 -1 15 -9l28 -104c2 -9 -2 -14 -10 -16zM187 276l104 16
c31 3 46 17 46 39c0 24 -20 36 -60 36c-43 0 -87 -28 -90 -91zM269 -65c55 0 86 -31 86 -82s-31 -82 -86 -82s-88 31 -88 82s33 82 88 82z" />
    <glyph glyph-name="egrave" unicode="&#xe8;" horiz-adv-x="521" 
d="M279 718l60 -146c4 -9 -1 -15 -10 -15h-107c-7 0 -12 3 -16 8l-98 147c-5 9 -2 16 9 16h147c8 0 12 -3 15 -10zM445 15l-62 -15c-35 -8 -69 -11 -95 -11c-164 0 -253 99 -253 256c0 158 91 257 248 257c125 0 202 -66 202 -169c0 -80 -56 -126 -171 -142l-117 -17
c19 -35 44 -50 91 -50c21 0 50 4 64 7l60 13c8 2 13 -1 15 -9l28 -104c2 -9 -2 -14 -10 -16zM187 276l104 16c31 3 46 17 46 39c0 24 -20 36 -60 36c-43 0 -87 -28 -90 -91z" />
    <glyph glyph-name="einvertedbreve" unicode="&#x207;" horiz-adv-x="521" 
d="M401 557h-82c-8 0 -13 5 -13 13v26c0 26 -14 42 -41 42c-26 0 -40 -16 -40 -42v-26c0 -8 -5 -13 -13 -13h-82c-8 0 -13 5 -13 13v24c0 89 56 141 148 141c94 0 149 -52 149 -141v-24c0 -8 -5 -13 -13 -13zM445 15l-62 -15c-35 -8 -69 -11 -95 -11
c-164 0 -253 99 -253 256c0 158 91 257 248 257c125 0 202 -66 202 -169c0 -80 -56 -126 -171 -142l-117 -17c19 -35 44 -50 91 -50c21 0 50 4 64 7l60 13c8 2 13 -1 15 -9l28 -104c2 -9 -2 -14 -10 -16zM187 276l104 16c31 3 46 17 46 39c0 24 -20 36 -60 36
c-43 0 -87 -28 -90 -91z" />
    <glyph glyph-name="emacron" unicode="&#x113;" horiz-adv-x="521" 
d="M135 692h261c8 0 13 -5 13 -13v-79c0 -8 -5 -13 -13 -13h-261c-8 0 -13 5 -13 13v79c0 8 5 13 13 13zM445 15l-62 -15c-35 -8 -69 -11 -95 -11c-164 0 -253 99 -253 256c0 158 91 257 248 257c125 0 202 -66 202 -169c0 -80 -56 -126 -171 -142l-117 -17
c19 -35 44 -50 91 -50c21 0 50 4 64 7l60 13c8 2 13 -1 15 -9l28 -104c2 -9 -2 -14 -10 -16zM187 276l104 16c31 3 46 17 46 39c0 24 -20 36 -60 36c-43 0 -87 -28 -90 -91z" />
    <glyph glyph-name="eogonek" unicode="&#x119;" horiz-adv-x="521" 
d="M430 -4l-109 -94c-4 -4 -7 -7 -7 -14s5 -11 13 -11c10 0 17 3 24 5l11 4c8 3 13 0 16 -8l27 -77c2 -8 0 -13 -9 -16l-21 -7c-12 -4 -31 -8 -51 -8c-78 0 -125 35 -125 94c0 31 12 56 41 80l40 34c6 4 7 11 -3 11c-157 4 -242 102 -242 256c0 158 91 257 248 257
c125 0 202 -66 202 -169c0 -80 -56 -126 -171 -142l-117 -17c19 -35 44 -50 91 -50c21 0 50 4 64 7l60 13c8 2 13 -1 15 -9l28 -104c2 -9 -2 -14 -10 -16c4 1 -5 -11 -15 -19zM187 276l104 16c31 3 46 17 46 39c0 24 -20 36 -60 36c-43 0 -87 -28 -90 -91z" />
    <glyph glyph-name="etilde" unicode="&#x1ebd;" horiz-adv-x="521" 
d="M100 615l26 54c22 44 49 63 94 63c30 0 45 -7 60 -18l24 -19c6 -5 12 -7 16 -7c5 0 9 5 17 18l9 13c3 6 8 9 15 9h71c10 0 14 -6 9 -15l-27 -55c-22 -43 -48 -62 -93 -62c-30 0 -46 9 -63 20l-23 15c-7 5 -12 8 -15 8c-5 0 -10 -4 -17 -16l-9 -14c-3 -6 -8 -9 -15 -9h-70
c-10 0 -14 6 -9 15zM445 15l-62 -15c-35 -8 -69 -11 -95 -11c-164 0 -253 99 -253 256c0 158 91 257 248 257c125 0 202 -66 202 -169c0 -80 -56 -126 -171 -142l-117 -17c19 -35 44 -50 91 -50c21 0 50 4 64 7l60 13c8 2 13 -1 15 -9l28 -104c2 -9 -2 -14 -10 -16zM187 276
l104 16c31 3 46 17 46 39c0 24 -20 36 -60 36c-43 0 -87 -28 -90 -91z" />
    <glyph glyph-name="f" unicode="f" horiz-adv-x="413" 
d="M95 491v43c0 128 79 205 212 205c25 0 44 -2 78 -13l21 -6c8 -3 11 -8 8 -16l-33 -110c-3 -8 -8 -11 -16 -8l-17 5c-16 5 -24 7 -41 7c-33 0 -54 -24 -54 -64v-43h113c8 0 13 -5 13 -13v-113c0 -8 -5 -13 -13 -13h-113v-339c0 -8 -5 -13 -13 -13h-132c-8 0 -13 5 -13 13
v339h-52c-8 0 -13 5 -13 13v113c0 8 5 13 13 13h52z" />
    <glyph glyph-name="g" unicode="g" horiz-adv-x="568" 
d="M139 -69l39 -11c21 -6 50 -9 72 -9c40 0 109 8 137 77c4 9 6 23 6 31c0 6 -4 12 -16 4c-33 -25 -78 -34 -120 -34c-140 0 -222 100 -222 253c0 164 93 260 246 260c36 0 79 -4 121 -21l105 -42c7 -3 10 -7 10 -15v-402c0 -164 -97 -252 -260 -252c-34 0 -74 3 -103 11
l-55 15c-9 3 -12 8 -9 17l33 109c3 8 8 11 16 9zM361 340l-20 9c-18 8 -42 12 -61 12c-57 0 -90 -43 -90 -116c0 -70 31 -116 86 -116c53 0 85 28 85 101v110z" />
    <glyph glyph-name="gacute" unicode="&#x1f5;" horiz-adv-x="568" 
d="M287 728h147c11 0 14 -7 9 -16l-98 -147c-4 -5 -9 -8 -16 -8h-107c-9 0 -14 6 -10 15l60 146c3 7 7 10 15 10zM139 -69l39 -11c21 -6 50 -9 72 -9c40 0 109 8 137 77c4 9 6 23 6 31c0 6 -4 12 -16 4c-33 -25 -78 -34 -120 -34c-140 0 -222 100 -222 253
c0 164 93 260 246 260c36 0 79 -4 121 -21l105 -42c7 -3 10 -7 10 -15v-402c0 -164 -97 -252 -260 -252c-34 0 -74 3 -103 11l-55 15c-9 3 -12 8 -9 17l33 109c3 8 8 11 16 9zM361 340l-20 9c-18 8 -42 12 -61 12c-57 0 -90 -43 -90 -116c0 -70 31 -116 86 -116
c53 0 85 28 85 101v110z" />
    <glyph glyph-name="gbreve" unicode="&#x11f;" horiz-adv-x="568" 
d="M432 715v-24c0 -89 -55 -141 -149 -141c-92 0 -148 52 -148 141v24c0 8 5 13 13 13h82c8 0 13 -5 13 -13v-26c0 -26 14 -42 40 -42c27 0 41 16 41 42v26c0 8 5 13 13 13h82c8 0 13 -5 13 -13zM139 -69l39 -11c21 -6 50 -9 72 -9c40 0 109 8 137 77c4 9 6 23 6 31
c0 6 -4 12 -16 4c-33 -25 -78 -34 -120 -34c-140 0 -222 100 -222 253c0 164 93 260 246 260c36 0 79 -4 121 -21l105 -42c7 -3 10 -7 10 -15v-402c0 -164 -97 -252 -260 -252c-34 0 -74 3 -103 11l-55 15c-9 3 -12 8 -9 17l33 109c3 8 8 11 16 9zM361 340l-20 9
c-18 8 -42 12 -61 12c-57 0 -90 -43 -90 -116c0 -70 31 -116 86 -116c53 0 85 28 85 101v110z" />
    <glyph glyph-name="gcircumflex" unicode="&#x11d;" horiz-adv-x="568" 
d="M283 627l-52 -63c-4 -5 -9 -7 -16 -7h-95c-11 0 -14 7 -9 16l97 147c4 5 9 8 16 8h118c7 0 12 -3 16 -8l98 -147c5 -9 2 -16 -9 -16h-95c-7 0 -12 2 -16 7zM402 481l105 -42c7 -3 10 -7 10 -15v-402c0 -164 -97 -252 -260 -252c-34 0 -74 3 -103 11l-55 15
c-9 3 -12 8 -9 17l33 109c3 8 8 11 16 9l39 -11c21 -6 50 -9 72 -9c40 0 109 8 137 77c4 9 6 23 6 31c0 6 -4 12 -16 4c-33 -25 -78 -34 -120 -34c-140 0 -222 100 -222 253c0 164 93 260 246 260c36 0 79 -4 121 -21zM361 340l-20 9c-18 8 -42 12 -61 12
c-57 0 -90 -43 -90 -116c0 -70 31 -116 86 -116c53 0 85 28 85 101v110z" />
    <glyph glyph-name="gcommaaccent" unicode="&#x123;" horiz-adv-x="568" 
d="M320 723l-17 -30c-12 -18 -8 -27 8 -31c22 -6 37 -29 37 -56c0 -35 -24 -56 -64 -56c-38 0 -63 23 -63 65c0 35 20 67 33 90l17 26c4 5 9 8 16 8h24c10 0 14 -7 9 -16zM139 -69l39 -11c21 -6 50 -9 72 -9c40 0 109 8 137 77c4 9 6 23 6 31c0 6 -4 12 -16 4
c-33 -25 -78 -34 -120 -34c-140 0 -222 100 -222 253c0 164 93 260 246 260c36 0 79 -4 121 -21l105 -42c7 -3 10 -7 10 -15v-402c0 -164 -97 -252 -260 -252c-34 0 -74 3 -103 11l-55 15c-9 3 -12 8 -9 17l33 109c3 8 8 11 16 9zM361 340l-20 9c-18 8 -42 12 -61 12
c-57 0 -90 -43 -90 -116c0 -70 31 -116 86 -116c53 0 85 28 85 101v110z" />
    <glyph glyph-name="gdotaccent" unicode="&#x121;" horiz-adv-x="568" 
d="M284 738c56 0 88 -33 88 -91s-32 -92 -88 -92s-89 34 -89 92s33 91 89 91zM139 -69l39 -11c21 -6 50 -9 72 -9c40 0 109 8 137 77c4 9 6 23 6 31c0 6 -4 12 -16 4c-33 -25 -78 -34 -120 -34c-140 0 -222 100 -222 253c0 164 93 260 246 260c36 0 79 -4 121 -21l105 -42
c7 -3 10 -7 10 -15v-402c0 -164 -97 -252 -260 -252c-34 0 -74 3 -103 11l-55 15c-9 3 -12 8 -9 17l33 109c3 8 8 11 16 9zM361 340l-20 9c-18 8 -42 12 -61 12c-57 0 -90 -43 -90 -116c0 -70 31 -116 86 -116c53 0 85 28 85 101v110z" />
    <glyph glyph-name="h" unicode="h" 
d="M214 715v-109c0 -54 -7 -88 -25 -126c-6 -12 0 -23 17 -13c33 23 68 35 108 35c118 0 190 -68 190 -185v-304c0 -8 -5 -13 -13 -13h-133c-8 0 -13 5 -13 13v284c0 41 -21 64 -56 64c-46 0 -74 -34 -75 -102v-246c0 -8 -5 -13 -13 -13h-133c-8 0 -13 5 -13 13v702
c0 8 5 13 13 13h133c8 0 13 -5 13 -13z" />
    <glyph glyph-name="hbar" unicode="&#x127;" horiz-adv-x="559" 
d="M321 557h-105c-3 -29 -10 -52 -22 -77c-6 -12 0 -23 17 -13c33 23 68 35 108 35c118 0 190 -68 190 -185v-304c0 -8 -5 -13 -13 -13h-133c-8 0 -13 5 -13 13v284c0 41 -21 64 -56 64c-46 0 -74 -34 -75 -102v-246c0 -8 -5 -13 -13 -13h-133c-8 0 -13 5 -13 13v544h-56
c-8 0 -13 5 -13 13v77c0 8 5 13 13 13h56v55c0 8 5 13 13 13h133c8 0 13 -5 13 -13v-55h102c8 0 13 -5 13 -13v-77c0 -8 -5 -13 -13 -13z" />
    <glyph glyph-name="hcircumflex" unicode="&#x125;" 
d="M131 860l-59 -50c-5 -4 -10 -6 -16 -6h-113c-11 0 -15 7 -8 16l99 119c4 5 9 7 16 7h161c7 0 12 -2 16 -7l100 -119c7 -9 3 -16 -8 -16h-113c-6 0 -11 2 -16 6zM214 715v-109c0 -54 -7 -88 -25 -126c-6 -12 0 -23 17 -13c33 23 68 35 108 35c118 0 190 -68 190 -185v-304
c0 -8 -5 -13 -13 -13h-133c-8 0 -13 5 -13 13v284c0 41 -21 64 -56 64c-46 0 -74 -34 -75 -102v-246c0 -8 -5 -13 -13 -13h-133c-8 0 -13 5 -13 13v702c0 8 5 13 13 13h133c8 0 13 -5 13 -13z" />
    <glyph glyph-name="hdotbelow" unicode="&#x1e25;" 
d="M214 715v-109c0 -54 -7 -88 -25 -126c-6 -12 0 -23 17 -13c33 23 68 35 108 35c118 0 190 -68 190 -185v-304c0 -8 -5 -13 -13 -13h-133c-8 0 -13 5 -13 13v284c0 41 -21 64 -56 64c-46 0 -74 -34 -75 -102v-246c0 -8 -5 -13 -13 -13h-133c-8 0 -13 5 -13 13v702
c0 8 5 13 13 13h133c8 0 13 -5 13 -13zM280 -65c55 0 86 -31 86 -82s-31 -82 -86 -82s-88 31 -88 82s33 82 88 82z" />
    <glyph glyph-name="i" unicode="i" horiz-adv-x="309" 
d="M161 738c57 0 89 -33 89 -91c0 -57 -32 -92 -89 -92c-56 0 -89 35 -89 92c0 58 33 91 89 91zM253 478v-465c0 -8 -5 -13 -13 -13h-132c-8 0 -13 5 -13 13v339h-52c-8 0 -13 5 -13 13v113c0 8 5 13 13 13h197c8 0 13 -5 13 -13z" />
    <glyph glyph-name="dotlessi" unicode="&#x131;" horiz-adv-x="309" 
d="M253 478v-465c0 -8 -5 -13 -13 -13h-132c-8 0 -13 5 -13 13v339h-52c-8 0 -13 5 -13 13v113c0 8 5 13 13 13h197c8 0 13 -5 13 -13z" />
    <glyph glyph-name="iacute" unicode="&#xed;" horiz-adv-x="309" 
d="M294 713l-78 -147c-3 -6 -8 -9 -15 -9h-100c-9 0 -13 6 -11 15l41 145c2 7 7 11 14 11h139c11 0 15 -6 10 -15zM240 0h-132c-8 0 -13 5 -13 13v339h-52c-8 0 -13 5 -13 13v113c0 8 5 13 13 13h197c8 0 13 -5 13 -13v-465c0 -8 -5 -13 -13 -13z" />
    <glyph glyph-name="ibreve" unicode="&#x12d;" horiz-adv-x="309" 
d="M289 715v-31c0 -84 -49 -134 -133 -134c-83 0 -133 50 -133 134v31c0 8 5 13 13 13h80c8 0 13 -5 13 -13v-32c0 -23 10 -36 27 -36s27 13 27 36v32c0 8 5 13 13 13h80c8 0 13 -5 13 -13zM240 0h-132c-8 0 -13 5 -13 13v339h-52c-8 0 -13 5 -13 13v113c0 8 5 13 13 13h197
c8 0 13 -5 13 -13v-465c0 -8 -5 -13 -13 -13z" />
    <glyph glyph-name="icaron" unicode="&#x1d0;" horiz-adv-x="309" 
d="M224 556h-128c-7 0 -12 3 -15 9l-77 147c-5 9 -1 15 9 15h92c7 0 12 -2 16 -8l39 -57l40 57c4 6 9 8 16 8h91c10 0 14 -6 9 -15l-76 -147c-4 -6 -8 -9 -16 -9zM30 365v113c0 8 5 13 13 13h197c8 0 13 -5 13 -13v-465c0 -8 -5 -13 -13 -13h-132c-8 0 -13 5 -13 13v339h-52
c-8 0 -13 5 -13 13z" />
    <glyph glyph-name="icircumflex" unicode="&#xee;" horiz-adv-x="309" 
d="M157 622l-40 -57c-4 -6 -9 -8 -16 -8h-91c-10 0 -14 6 -9 15l76 147c4 6 8 9 16 9h128c7 0 12 -3 15 -9l77 -147c5 -9 1 -15 -9 -15h-92c-7 0 -12 2 -16 8zM30 365v113c0 8 5 13 13 13h197c8 0 13 -5 13 -13v-465c0 -8 -5 -13 -13 -13h-132c-8 0 -13 5 -13 13v339h-52
c-8 0 -13 5 -13 13z" />
    <glyph glyph-name="idblgrave" unicode="&#x209;" horiz-adv-x="309" 
d="M-52 728h108c7 0 12 -3 14 -11l46 -145c3 -9 -1 -15 -10 -15h-93c-8 0 -12 3 -15 10l-60 146c-4 9 1 15 10 15zM133 728h107c8 0 13 -4 15 -11l32 -146c2 -9 -2 -14 -12 -14h-92c-7 0 -12 3 -14 11l-46 145c-3 9 1 15 10 15zM240 0h-132c-8 0 -13 5 -13 13v339h-52
c-8 0 -13 5 -13 13v113c0 8 5 13 13 13h197c8 0 13 -5 13 -13v-465c0 -8 -5 -13 -13 -13z" />
    <glyph glyph-name="idieresis" unicode="&#xef;" horiz-adv-x="309" 
d="M52 743c51 0 80 -29 80 -82c0 -52 -29 -83 -80 -83c-50 0 -80 31 -80 83c0 53 30 82 80 82zM256 743c51 0 80 -29 80 -82c0 -52 -29 -83 -80 -83c-50 0 -80 31 -80 83c0 53 30 82 80 82zM240 0h-132c-8 0 -13 5 -13 13v339h-52c-8 0 -13 5 -13 13v113c0 8 5 13 13 13h197
c8 0 13 -5 13 -13v-465c0 -8 -5 -13 -13 -13z" />
    <glyph glyph-name="idotbelow" unicode="&#x1ecb;" horiz-adv-x="309" 
d="M161 738c57 0 89 -33 89 -91c0 -57 -32 -92 -89 -92c-56 0 -89 35 -89 92c0 58 33 91 89 91zM240 0h-132c-8 0 -13 5 -13 13v339h-52c-8 0 -13 5 -13 13v113c0 8 5 13 13 13h197c8 0 13 -5 13 -13v-465c0 -8 -5 -13 -13 -13zM164 -65c55 0 86 -31 86 -82s-31 -82 -86 -82
s-88 31 -88 82s33 82 88 82z" />
    <glyph glyph-name="igrave" unicode="&#xec;" horiz-adv-x="309" 
d="M32 728h139c7 0 12 -4 14 -11l41 -145c2 -9 -2 -15 -11 -15h-100c-7 0 -12 3 -15 9l-78 147c-5 9 -1 15 10 15zM240 0h-132c-8 0 -13 5 -13 13v339h-52c-8 0 -13 5 -13 13v113c0 8 5 13 13 13h197c8 0 13 -5 13 -13v-465c0 -8 -5 -13 -13 -13z" />
    <glyph glyph-name="iinvertedbreve" unicode="&#x20b;" horiz-adv-x="309" 
d="M276 557h-80c-8 0 -13 5 -13 13v32c0 23 -10 36 -27 36s-27 -13 -27 -36v-32c0 -8 -5 -13 -13 -13h-80c-8 0 -13 5 -13 13v31c0 84 50 134 133 134c84 0 133 -50 133 -134v-31c0 -8 -5 -13 -13 -13zM240 0h-132c-8 0 -13 5 -13 13v339h-52c-8 0 -13 5 -13 13v113
c0 8 5 13 13 13h197c8 0 13 -5 13 -13v-465c0 -8 -5 -13 -13 -13z" />
    <glyph glyph-name="ij" unicode="&#x133;" horiz-adv-x="618" 
d="M161 738c57 0 89 -33 89 -91c0 -57 -32 -92 -89 -92c-56 0 -89 35 -89 92c0 58 33 91 89 91zM471 738c57 0 89 -33 89 -91c0 -57 -32 -92 -89 -92c-56 0 -89 35 -89 92c0 58 33 91 89 91zM240 0h-132c-8 0 -13 5 -13 13v339h-52c-8 0 -13 5 -13 13v113c0 8 5 13 13 13
h197c8 0 13 -5 13 -13v-465c0 -8 -5 -13 -13 -13zM562 478v-462c0 -100 -48 -170 -151 -230l-22 -12c-7 -5 -13 -3 -17 5l-56 106c-4 7 -2 13 5 17l18 11c44 26 65 57 65 103v336h-52c-8 0 -13 5 -13 13v113c0 8 5 13 13 13h197c8 0 13 -5 13 -13z" />
    <glyph glyph-name="imacron" unicode="&#x12b;" horiz-adv-x="309" 
d="M29 692h236c8 0 13 -5 13 -13v-79c0 -8 -5 -13 -13 -13h-236c-8 0 -13 5 -13 13v79c0 8 5 13 13 13zM240 0h-132c-8 0 -13 5 -13 13v339h-52c-8 0 -13 5 -13 13v113c0 8 5 13 13 13h197c8 0 13 -5 13 -13v-465c0 -8 -5 -13 -13 -13z" />
    <glyph glyph-name="iogonek" unicode="&#x12f;" horiz-adv-x="309" 
d="M161 555c-56 0 -89 35 -89 92c0 58 33 91 89 91c57 0 89 -33 89 -91c0 -57 -32 -92 -89 -92zM221 -123l28 -77c3 -8 1 -13 -8 -16l-15 -5c-15 -6 -33 -9 -56 -9c-75 0 -125 33 -125 93c0 30 12 55 36 76l30 27c24 20 18 34 -6 34c-6 0 -10 5 -10 13v339h-52
c-8 0 -13 5 -13 13v113c0 8 5 13 13 13h197c8 0 13 -5 13 -13v-478c0 -17 -5 -27 -35 -53l-49 -42c-7 -6 -9 -10 -9 -17s3 -11 13 -11c7 0 16 2 25 5l7 2c8 3 14 1 16 -7z" />
    <glyph glyph-name="itilde" unicode="&#x129;" horiz-adv-x="309" 
d="M-3 591l20 46c22 49 48 69 89 69c23 0 40 -8 58 -20l18 -13c4 -3 10 -5 16 -5c10 0 17 5 22 18l3 8c3 7 7 10 15 10h69c10 0 14 -6 10 -15l-20 -45c-21 -48 -48 -70 -89 -70c-25 0 -39 6 -59 20l-16 11c-8 5 -13 8 -17 8c-10 0 -16 -6 -22 -20l-3 -7
c-3 -7 -7 -10 -15 -10h-69c-10 0 -14 6 -10 15zM240 0h-132c-8 0 -13 5 -13 13v339h-52c-8 0 -13 5 -13 13v113c0 8 5 13 13 13h197c8 0 13 -5 13 -13v-465c0 -8 -5 -13 -13 -13z" />
    <glyph glyph-name="j" unicode="j" horiz-adv-x="309" 
d="M162 738c57 0 89 -33 89 -91c0 -57 -32 -92 -89 -92c-56 0 -89 35 -89 92c0 58 33 91 89 91zM253 478v-462c0 -100 -48 -170 -151 -230l-22 -12c-7 -5 -13 -3 -17 5l-56 106c-4 7 -2 13 5 17l18 11c44 26 65 57 65 103v336h-52c-8 0 -13 5 -13 13v113c0 8 5 13 13 13h197
c8 0 13 -5 13 -13z" />
    <glyph glyph-name="jcircumflex" unicode="&#x135;" horiz-adv-x="309" 
d="M157 622l-40 -57c-4 -6 -9 -8 -16 -8h-91c-10 0 -14 6 -9 15l76 147c4 6 8 9 16 9h128c7 0 12 -3 15 -9l77 -147c5 -9 1 -15 -9 -15h-92c-7 0 -12 2 -16 8zM25 365v113c0 8 5 13 13 13h196c8 0 13 -5 13 -13v-462c0 -100 -48 -171 -151 -230l-22 -12c-7 -5 -13 -3 -17 5
l-56 106c-4 7 -2 13 5 17l18 11c44 26 65 57 65 103v336h-51c-8 0 -13 5 -13 13z" />
    <glyph glyph-name="k" unicode="k" horiz-adv-x="569" 
d="M446 180l85 -165c5 -9 1 -15 -9 -15h-143c-8 0 -12 3 -16 9l-54 107c-20 37 -41 63 -87 63h-8v-166c0 -8 -5 -13 -13 -13h-133c-8 0 -13 5 -13 13v702c0 8 5 13 13 13h133c8 0 13 -5 13 -13v-397h9c43 0 61 33 80 69l49 95c4 6 8 9 16 9h143c10 0 14 -6 9 -15l-80 -156
c-18 -34 -42 -53 -73 -65c-3 -1 -4 -6 0 -8c31 -14 63 -35 79 -67z" />
    <glyph glyph-name="kcommaaccent" unicode="&#x137;" horiz-adv-x="569" 
d="M522 0h-143c-8 0 -12 3 -16 9l-54 107c-20 37 -41 63 -87 63h-8v-166c0 -8 -5 -13 -13 -13h-133c-8 0 -13 5 -13 13v702c0 8 5 13 13 13h133c8 0 13 -5 13 -13v-397h9c43 0 61 33 80 69l49 95c4 6 8 9 16 9h143c10 0 14 -6 9 -15l-80 -156c-18 -34 -42 -53 -73 -65
c-3 -1 -4 -6 0 -8c31 -14 63 -35 79 -67l85 -165c5 -9 1 -15 -9 -15zM254 -221l17 30c12 18 8 27 -8 31c-22 6 -37 29 -37 56c0 35 24 56 64 56c38 0 63 -23 63 -65c0 -35 -20 -67 -33 -90l-17 -26c-4 -5 -9 -8 -16 -8h-24c-10 0 -14 7 -9 16z" />
    <glyph glyph-name="kgreenlandic" unicode="&#x138;" horiz-adv-x="569" 
d="M214 318h9c43 0 61 33 80 69l49 95c4 6 8 9 16 9h143c10 0 14 -6 9 -15l-80 -156c-18 -34 -42 -53 -73 -65c-3 -1 -4 -6 0 -8c31 -14 63 -35 79 -67l85 -165c5 -9 1 -15 -9 -15h-143c-8 0 -12 3 -16 9l-54 107c-20 37 -41 63 -87 63h-8v-166c0 -8 -5 -13 -13 -13h-133
c-8 0 -13 5 -13 13v465c0 8 5 13 13 13h133c8 0 13 -5 13 -13v-160z" />
    <glyph glyph-name="l" unicode="l" horiz-adv-x="317" 
d="M214 715v-567c0 -11 4 -19 13 -19h6c8 2 14 0 17 -7l41 -104c3 -8 1 -14 -6 -17c-18 -8 -40 -12 -58 -12c-107 0 -172 59 -172 159v567c0 8 5 13 13 13h133c8 0 13 -5 13 -13z" />
    <glyph glyph-name="lacute" unicode="&#x13a;" horiz-adv-x="317" 
d="M129 946h175c12 0 15 -8 7 -16l-112 -119c-4 -5 -9 -7 -16 -7h-125c-11 0 -14 7 -9 16l65 117c3 6 8 9 15 9zM214 715v-567c0 -11 4 -19 13 -19h6c8 2 14 0 17 -7l41 -104c3 -8 1 -14 -6 -17c-18 -8 -40 -12 -58 -12c-107 0 -172 59 -172 159v567c0 8 5 13 13 13h133
c8 0 13 -5 13 -13z" />
    <glyph glyph-name="lcaron" unicode="&#x13e;" horiz-adv-x="334" 
d="M214 715v-567c0 -11 4 -19 13 -19h6c8 2 14 0 17 -7l41 -104c3 -8 1 -14 -6 -17c-18 -8 -40 -12 -58 -12c-107 0 -172 59 -172 159v567c0 8 5 13 13 13h133c8 0 13 -5 13 -13zM287 728h90c8 0 13 -5 13 -13v-36c0 -27 -6 -64 -24 -97l-8 -16c-4 -6 -8 -9 -16 -9h-73
c-9 0 -14 5 -11 14l5 22c8 25 10 51 11 79v43c0 8 5 13 13 13z" />
    <glyph glyph-name="lcommaaccent" unicode="&#x13c;" horiz-adv-x="317" 
d="M214 715v-567c0 -11 4 -19 13 -19h6c8 2 14 0 17 -7l41 -104c3 -8 1 -14 -6 -17c-18 -8 -40 -12 -58 -12c-107 0 -172 59 -172 159v567c0 8 5 13 13 13h133c8 0 13 -5 13 -13zM125 -221l17 30c12 18 8 27 -8 31c-22 6 -37 29 -37 56c0 35 24 56 64 56c38 0 63 -23 63 -65
c0 -35 -20 -67 -33 -90l-17 -26c-4 -5 -9 -8 -16 -8h-24c-10 0 -14 7 -9 16z" />
    <glyph glyph-name="ldot" unicode="&#x140;" horiz-adv-x="437" 
d="M214 715v-567c0 -11 4 -19 13 -19h6c8 2 14 0 17 -7l41 -104c3 -8 1 -14 -6 -17c-18 -8 -40 -12 -58 -12c-107 0 -172 59 -172 159v567c0 8 5 13 13 13h133c8 0 13 -5 13 -13zM356 494c58 0 92 -34 92 -93c0 -58 -34 -93 -92 -93c-57 0 -91 35 -91 93c0 59 34 93 91 93z
" />
    <glyph glyph-name="lj" unicode="&#x1c9;" horiz-adv-x="607" 
d="M460 738c57 0 89 -33 89 -91c0 -57 -32 -92 -89 -92c-56 0 -89 35 -89 92c0 58 33 91 89 91zM214 715v-567c0 -11 4 -19 13 -19h6c8 2 14 0 17 -7l41 -104c3 -8 1 -14 -6 -17c-18 -8 -40 -12 -58 -12c-107 0 -172 59 -172 159v567c0 8 5 13 13 13h133c8 0 13 -5 13 -13z
M551 478v-462c0 -100 -48 -170 -151 -230l-22 -12c-7 -5 -13 -3 -17 5l-56 106c-4 7 -2 13 5 17l18 11c44 26 65 57 65 103v336h-52c-8 0 -13 5 -13 13v113c0 8 5 13 13 13h197c8 0 13 -5 13 -13z" />
    <glyph glyph-name="lslash" unicode="&#x142;" horiz-adv-x="406" 
d="M273 325v-177c0 -11 4 -19 13 -19h6c8 2 14 0 17 -7l41 -104c3 -8 1 -14 -6 -17c-18 -8 -40 -12 -58 -12c-107 0 -172 59 -172 159v118l-69 -25c-9 -4 -15 0 -15 10v121c0 8 3 12 10 15l74 28v300c0 8 5 13 13 13h133c8 0 13 -5 13 -13v-240l78 29c9 4 15 0 15 -10v-123
c0 -7 -3 -12 -10 -15z" />
    <glyph glyph-name="m" unicode="m" horiz-adv-x="828" 
d="M154 482l13 -21c10 -15 16 -14 32 0c39 32 81 41 110 41c42 0 89 -15 121 -45c19 -17 30 -12 47 1c47 38 85 44 114 44c120 0 186 -68 186 -185v-304c0 -8 -5 -13 -13 -13h-132c-8 0 -13 5 -13 13v284c0 41 -15 64 -53 64c-46 0 -71 -35 -71 -102v-246
c0 -8 -5 -13 -13 -13h-132c-8 0 -13 5 -13 13v286c0 39 -17 62 -53 62c-48 0 -70 -35 -70 -102v-246c0 -8 -5 -13 -13 -13h-133c-8 0 -13 5 -13 13v465c0 8 5 13 13 13h71c7 0 12 -3 15 -9z" />
    <glyph glyph-name="n" unicode="n" 
d="M154 482l13 -21c10 -15 16 -14 31 -1c40 34 86 42 116 42c118 0 190 -68 190 -185v-304c0 -8 -5 -13 -13 -13h-133c-8 0 -13 5 -13 13v284c0 41 -21 64 -56 64c-48 0 -75 -35 -75 -102v-246c0 -8 -5 -13 -13 -13h-133c-8 0 -13 5 -13 13v465c0 8 5 13 13 13h71
c7 0 12 -3 15 -9z" />
    <glyph glyph-name="nacute" unicode="&#x144;" 
d="M280 728h147c11 0 14 -7 9 -16l-98 -147c-4 -5 -9 -8 -16 -8h-107c-9 0 -14 6 -10 15l60 146c3 7 7 10 15 10zM154 482l13 -21c10 -15 16 -14 31 -1c40 34 86 42 116 42c118 0 190 -68 190 -185v-304c0 -8 -5 -13 -13 -13h-133c-8 0 -13 5 -13 13v284c0 41 -21 64 -56 64
c-48 0 -75 -35 -75 -102v-246c0 -8 -5 -13 -13 -13h-133c-8 0 -13 5 -13 13v465c0 8 5 13 13 13h71c7 0 12 -3 15 -9z" />
    <glyph glyph-name="ncaron" unicode="&#x148;" 
d="M339 557h-118c-7 0 -12 3 -16 8l-98 147c-5 9 -2 16 9 16h95c7 0 12 -2 16 -7l53 -63l52 63c4 5 9 7 16 7h95c11 0 14 -7 9 -16l-97 -147c-4 -5 -9 -8 -16 -8zM154 482l13 -21c10 -15 16 -14 31 -1c40 34 86 42 116 42c118 0 190 -68 190 -185v-304c0 -8 -5 -13 -13 -13
h-133c-8 0 -13 5 -13 13v284c0 41 -21 64 -56 64c-48 0 -75 -35 -75 -102v-246c0 -8 -5 -13 -13 -13h-133c-8 0 -13 5 -13 13v465c0 8 5 13 13 13h71c7 0 12 -3 15 -9z" />
    <glyph glyph-name="ncommaaccent" unicode="&#x146;" 
d="M154 482l13 -21c10 -15 16 -14 31 -1c40 34 86 42 116 42c118 0 190 -68 190 -185v-304c0 -8 -5 -13 -13 -13h-133c-8 0 -13 5 -13 13v284c0 41 -21 64 -56 64c-48 0 -75 -35 -75 -102v-246c0 -8 -5 -13 -13 -13h-133c-8 0 -13 5 -13 13v465c0 8 5 13 13 13h71
c7 0 12 -3 15 -9zM243 -221l17 30c12 18 8 27 -8 31c-22 6 -37 29 -37 56c0 35 24 56 64 56c38 0 63 -23 63 -65c0 -35 -20 -67 -33 -90l-17 -26c-4 -5 -9 -8 -16 -8h-24c-10 0 -14 7 -9 16z" />
    <glyph glyph-name="ndotaccent" unicode="&#x1e45;" 
d="M276 738c56 0 88 -33 88 -91s-32 -92 -88 -92s-89 34 -89 92s33 91 89 91zM154 482l13 -21c10 -15 16 -14 31 -1c40 34 86 42 116 42c118 0 190 -68 190 -185v-304c0 -8 -5 -13 -13 -13h-133c-8 0 -13 5 -13 13v284c0 41 -21 64 -56 64c-48 0 -75 -35 -75 -102v-246
c0 -8 -5 -13 -13 -13h-133c-8 0 -13 5 -13 13v465c0 8 5 13 13 13h71c7 0 12 -3 15 -9z" />
    <glyph glyph-name="ndotbelow" unicode="&#x1e47;" 
d="M154 482l13 -21c10 -15 16 -14 31 -1c40 34 86 42 116 42c118 0 190 -68 190 -185v-304c0 -8 -5 -13 -13 -13h-133c-8 0 -13 5 -13 13v284c0 41 -21 64 -56 64c-48 0 -75 -35 -75 -102v-246c0 -8 -5 -13 -13 -13h-133c-8 0 -13 5 -13 13v465c0 8 5 13 13 13h71
c7 0 12 -3 15 -9zM278 -65c55 0 86 -31 86 -82s-31 -82 -86 -82s-88 31 -88 82s33 82 88 82z" />
    <glyph glyph-name="eng" unicode="&#x14b;" 
d="M345 -42v339c0 41 -21 64 -56 64c-48 0 -74 -35 -75 -102v-246c0 -8 -5 -13 -13 -13h-133c-8 0 -13 5 -13 13v465c0 8 5 13 13 13h71c7 0 12 -3 15 -9l13 -20c12 -19 15 -14 39 4c40 30 78 36 108 36c118 0 190 -68 190 -185v-359c0 -118 -76 -188 -205 -188
c-27 0 -54 3 -88 15l-32 11c-8 3 -10 8 -8 16l38 107c3 8 8 11 16 8l25 -7c17 -6 32 -9 49 -9c29 0 46 18 46 47z" />
    <glyph glyph-name="nj" unicode="&#x1cc;" horiz-adv-x="863" 
d="M716 738c57 0 89 -33 89 -91c0 -57 -32 -92 -89 -92c-56 0 -89 35 -89 92c0 58 33 91 89 91zM154 482l13 -21c10 -15 16 -14 31 -1c40 34 86 42 116 42c118 0 190 -68 190 -185v-304c0 -8 -5 -13 -13 -13h-133c-8 0 -13 5 -13 13v284c0 41 -21 64 -56 64
c-48 0 -75 -35 -75 -102v-246c0 -8 -5 -13 -13 -13h-133c-8 0 -13 5 -13 13v465c0 8 5 13 13 13h71c7 0 12 -3 15 -9zM807 478v-462c0 -100 -48 -170 -151 -230l-22 -12c-7 -5 -13 -3 -17 5l-56 106c-4 7 -2 13 5 17l18 11c44 26 65 57 65 103v336h-52c-8 0 -13 5 -13 13
v113c0 8 5 13 13 13h197c8 0 13 -5 13 -13z" />
    <glyph glyph-name="ntilde" unicode="&#xf1;" 
d="M111 615l26 54c22 44 49 63 94 63c30 0 45 -7 60 -18l24 -19c6 -5 12 -7 16 -7c5 0 9 5 17 18l9 13c3 6 8 9 15 9h71c10 0 14 -6 9 -15l-27 -55c-22 -43 -48 -62 -93 -62c-30 0 -46 9 -63 20l-23 15c-7 5 -12 8 -15 8c-5 0 -10 -4 -17 -16l-9 -14c-3 -6 -8 -9 -15 -9h-70
c-10 0 -14 6 -9 15zM154 482l13 -21c10 -15 16 -14 31 -1c40 34 86 42 116 42c118 0 190 -68 190 -185v-304c0 -8 -5 -13 -13 -13h-133c-8 0 -13 5 -13 13v284c0 41 -21 64 -56 64c-48 0 -75 -35 -75 -102v-246c0 -8 -5 -13 -13 -13h-133c-8 0 -13 5 -13 13v465
c0 8 5 13 13 13h71c7 0 12 -3 15 -9z" />
    <glyph glyph-name="o" unicode="o" horiz-adv-x="558" 
d="M279 502c150 0 243 -100 243 -256c0 -158 -93 -257 -243 -257c-151 0 -244 99 -244 257c0 156 93 256 244 256zM279 361c-55 0 -89 -43 -89 -115c0 -73 34 -117 89 -117c54 0 88 44 88 117c0 72 -34 115 -88 115z" />
    <glyph glyph-name="oacute" unicode="&#xf3;" horiz-adv-x="558" 
d="M282 728h147c11 0 14 -7 9 -16l-98 -147c-4 -5 -9 -8 -16 -8h-107c-9 0 -14 6 -10 15l60 146c3 7 7 10 15 10zM279 502c150 0 243 -100 243 -256c0 -158 -93 -257 -243 -257c-151 0 -244 99 -244 257c0 156 93 256 244 256zM279 361c-55 0 -89 -43 -89 -115
c0 -73 34 -117 89 -117c54 0 88 44 88 117c0 72 -34 115 -88 115z" />
    <glyph glyph-name="obreve" unicode="&#x14f;" horiz-adv-x="558" 
d="M427 715v-24c0 -89 -55 -141 -149 -141c-92 0 -148 52 -148 141v24c0 8 5 13 13 13h82c8 0 13 -5 13 -13v-26c0 -26 14 -42 40 -42c27 0 41 16 41 42v26c0 8 5 13 13 13h82c8 0 13 -5 13 -13zM279 502c150 0 243 -100 243 -256c0 -158 -93 -257 -243 -257
c-151 0 -244 99 -244 257c0 156 93 256 244 256zM279 361c-55 0 -89 -43 -89 -115c0 -73 34 -117 89 -117c54 0 88 44 88 117c0 72 -34 115 -88 115z" />
    <glyph glyph-name="ocaron" unicode="&#x1d2;" horiz-adv-x="558" 
d="M342 557h-118c-7 0 -12 3 -16 8l-98 147c-5 9 -2 16 9 16h95c7 0 12 -2 16 -7l53 -63l52 63c4 5 9 7 16 7h95c11 0 14 -7 9 -16l-97 -147c-4 -5 -9 -8 -16 -8zM279 502c150 0 243 -100 243 -256c0 -158 -93 -257 -243 -257c-151 0 -244 99 -244 257c0 156 93 256 244 256
zM279 129c54 0 88 44 88 117c0 72 -34 115 -88 115c-55 0 -89 -43 -89 -115c0 -73 34 -117 89 -117z" />
    <glyph glyph-name="ocircumflex" unicode="&#xf4;" horiz-adv-x="558" 
d="M278 627l-52 -63c-4 -5 -9 -7 -16 -7h-95c-11 0 -14 7 -9 16l97 147c4 5 9 8 16 8h118c7 0 12 -3 16 -8l98 -147c5 -9 2 -16 -9 -16h-95c-7 0 -12 2 -16 7zM279 502c150 0 243 -100 243 -256c0 -158 -93 -257 -243 -257c-151 0 -244 99 -244 257c0 156 93 256 244 256z
M279 129c54 0 88 44 88 117c0 72 -34 115 -88 115c-55 0 -89 -43 -89 -115c0 -73 34 -117 89 -117z" />
    <glyph glyph-name="odblgrave" unicode="&#x20d;" horiz-adv-x="558" 
d="M75 728h113c7 0 12 -3 14 -11l46 -145c3 -9 -1 -15 -10 -15h-98c-8 0 -12 3 -15 10l-60 146c-4 9 1 15 10 15zM274 728h113c8 0 13 -4 15 -11l32 -146c2 -9 -2 -14 -12 -14h-98c-7 0 -12 3 -14 11l-46 145c-3 9 1 15 10 15zM279 502c150 0 243 -100 243 -256
c0 -158 -93 -257 -243 -257c-151 0 -244 99 -244 257c0 156 93 256 244 256zM279 361c-55 0 -89 -43 -89 -115c0 -73 34 -117 89 -117c54 0 88 44 88 117c0 72 -34 115 -88 115z" />
    <glyph glyph-name="odieresis" unicode="&#xf6;" horiz-adv-x="558" 
d="M177 737c51 0 80 -29 80 -82c0 -52 -29 -83 -80 -83c-50 0 -80 31 -80 83c0 53 30 82 80 82zM378 737c51 0 80 -29 80 -82c0 -52 -29 -83 -80 -83c-50 0 -80 31 -80 83c0 53 30 82 80 82zM279 502c150 0 243 -100 243 -256c0 -158 -93 -257 -243 -257
c-151 0 -244 99 -244 257c0 156 93 256 244 256zM279 361c-55 0 -89 -43 -89 -115c0 -73 34 -117 89 -117c54 0 88 44 88 117c0 72 -34 115 -88 115z" />
    <glyph glyph-name="odotbelow" unicode="&#x1ecd;" horiz-adv-x="558" 
d="M279 502c150 0 243 -100 243 -256c0 -158 -93 -257 -243 -257c-151 0 -244 99 -244 257c0 156 93 256 244 256zM279 361c-55 0 -89 -43 -89 -115c0 -73 34 -117 89 -117c54 0 88 44 88 117c0 72 -34 115 -88 115zM279 -65c55 0 86 -31 86 -82s-31 -82 -86 -82
s-88 31 -88 82s33 82 88 82z" />
    <glyph glyph-name="ograve" unicode="&#xf2;" horiz-adv-x="558" 
d="M292 718l60 -146c4 -9 -1 -15 -10 -15h-107c-7 0 -12 3 -16 8l-98 147c-5 9 -2 16 9 16h147c8 0 12 -3 15 -10zM279 502c150 0 243 -100 243 -256c0 -158 -93 -257 -243 -257c-151 0 -244 99 -244 257c0 156 93 256 244 256zM279 361c-55 0 -89 -43 -89 -115
c0 -73 34 -117 89 -117c54 0 88 44 88 117c0 72 -34 115 -88 115z" />
    <glyph glyph-name="ohungarumlaut" unicode="&#x151;" horiz-adv-x="558" 
d="M294 713l-46 -145c-2 -8 -7 -11 -14 -11h-98c-9 0 -14 5 -12 14l32 146c2 7 7 11 15 11h113c9 0 13 -6 10 -15zM493 713l-60 -146c-3 -7 -7 -10 -15 -10h-98c-9 0 -13 6 -10 15l46 145c2 8 7 11 14 11h113c9 0 14 -6 10 -15zM279 502c150 0 243 -100 243 -256
c0 -158 -93 -257 -243 -257c-151 0 -244 99 -244 257c0 156 93 256 244 256zM279 361c-55 0 -89 -43 -89 -115c0 -73 34 -117 89 -117c54 0 88 44 88 117c0 72 -34 115 -88 115z" />
    <glyph glyph-name="oinvertedbreve" unicode="&#x20f;" horiz-adv-x="558" 
d="M414 557h-82c-8 0 -13 5 -13 13v26c0 26 -14 42 -41 42c-26 0 -40 -16 -40 -42v-26c0 -8 -5 -13 -13 -13h-82c-8 0 -13 5 -13 13v24c0 89 56 141 148 141c94 0 149 -52 149 -141v-24c0 -8 -5 -13 -13 -13zM279 502c150 0 243 -100 243 -256c0 -158 -93 -257 -243 -257
c-151 0 -244 99 -244 257c0 156 93 256 244 256zM279 361c-55 0 -89 -43 -89 -115c0 -73 34 -117 89 -117c54 0 88 44 88 117c0 72 -34 115 -88 115z" />
    <glyph glyph-name="omacron" unicode="&#x14d;" horiz-adv-x="558" 
d="M148 692h261c8 0 13 -5 13 -13v-79c0 -8 -5 -13 -13 -13h-261c-8 0 -13 5 -13 13v79c0 8 5 13 13 13zM279 502c150 0 243 -100 243 -256c0 -158 -93 -257 -243 -257c-151 0 -244 99 -244 257c0 156 93 256 244 256zM279 361c-55 0 -89 -43 -89 -115
c0 -73 34 -117 89 -117c54 0 88 44 88 117c0 72 -34 115 -88 115z" />
    <glyph glyph-name="oogonek" unicode="&#x1eb;" horiz-adv-x="558" 
d="M416 25l-128 -120c-7 -6 -10 -10 -10 -16c0 -8 4 -12 13 -12s18 2 26 5l9 3c8 3 14 1 16 -7l28 -77c2 -8 0 -13 -8 -16l-17 -6c-16 -6 -34 -9 -55 -9c-80 0 -127 34 -127 92c0 32 15 55 38 77l21 19c23 21 12 32 -14 39c-108 27 -173 117 -173 249c0 156 93 256 244 256
c150 0 243 -100 243 -256c0 -102 -39 -179 -106 -221zM279 361c-55 0 -89 -43 -89 -115c0 -73 34 -117 89 -117c54 0 88 44 88 117c0 72 -34 115 -88 115z" />
    <glyph glyph-name="oslash" unicode="&#xf8;" horiz-adv-x="558" 
d="M504 475l-40 -50c37 -44 58 -105 58 -179c0 -158 -93 -257 -243 -257c-54 0 -101 13 -138 36l-15 -17c-4 -6 -9 -8 -16 -8h-54c-11 0 -14 7 -7 16l42 52c-36 44 -56 105 -56 178c0 156 93 256 244 256c53 0 98 -12 135 -35l14 16c4 6 9 8 16 8h53c11 0 14 -7 7 -16z
M190 190l132 162c-13 6 -27 9 -43 9c-61 0 -98 -43 -98 -115c0 -21 3 -40 9 -56zM366 305l-133 -166c13 -6 29 -10 46 -10c60 0 98 44 98 117c0 23 -4 42 -11 59z" />
    <glyph glyph-name="oslashacute" unicode="&#x1ff;" horiz-adv-x="558" 
d="M280 728h147c11 0 14 -7 9 -16l-98 -147c-4 -5 -9 -8 -16 -8h-107c-9 0 -14 6 -10 15l60 146c3 7 7 10 15 10zM504 475l-40 -50c37 -44 58 -105 58 -179c0 -158 -93 -257 -243 -257c-54 0 -101 13 -138 36l-15 -18c-4 -5 -9 -7 -16 -7h-54c-11 0 -14 7 -7 16l42 52
c-36 44 -56 105 -56 178c0 156 93 256 244 256c53 0 98 -12 135 -35l14 17c4 5 9 7 16 7h53c11 0 14 -7 7 -16zM190 190l132 162c-13 6 -27 9 -43 9c-61 0 -98 -43 -98 -115c0 -21 3 -40 9 -56zM366 305l-133 -166c13 -6 29 -10 46 -10c60 0 98 44 98 117c0 23 -4 42 -11 59
z" />
    <glyph glyph-name="otilde" unicode="&#xf5;" horiz-adv-x="558" 
d="M113 615l26 54c22 44 49 63 94 63c30 0 45 -7 60 -18l24 -19c6 -5 12 -7 16 -7c5 0 9 5 17 18l9 13c3 6 8 9 15 9h71c10 0 14 -6 9 -15l-27 -55c-22 -43 -48 -62 -93 -62c-30 0 -46 9 -63 20l-23 15c-7 5 -12 8 -15 8c-5 0 -10 -4 -17 -16l-9 -14c-3 -6 -8 -9 -15 -9h-70
c-10 0 -14 6 -9 15zM279 502c150 0 243 -100 243 -256c0 -158 -93 -257 -243 -257c-151 0 -244 99 -244 257c0 156 93 256 244 256zM279 361c-55 0 -89 -43 -89 -115c0 -73 34 -117 89 -117c54 0 88 44 88 117c0 72 -34 115 -88 115z" />
    <glyph glyph-name="oe" unicode="&#x153;" horiz-adv-x="854" 
d="M777 14l-53 -13c-35 -8 -64 -12 -105 -12c-71 0 -118 16 -165 64c-7 7 -13 6 -20 -1c-38 -44 -94 -63 -155 -63c-150 0 -244 99 -244 256s89 257 244 257c61 0 116 -19 154 -63c8 -8 12 -9 21 0c48 47 98 63 165 63c124 0 195 -64 195 -175c0 -77 -57 -120 -179 -138
l-106 -15c19 -39 58 -51 90 -51c33 0 60 6 75 9l48 11c8 2 13 -1 15 -9l29 -104c3 -8 -1 -14 -9 -16zM518 276l107 15c29 5 41 17 41 38c0 26 -18 39 -50 39c-58 0 -86 -29 -98 -92zM279 361c-54 0 -89 -43 -89 -116c0 -72 35 -116 89 -116c57 0 89 44 89 116
c0 73 -32 116 -89 116z" />
    <glyph glyph-name="p" unicode="p" horiz-adv-x="573" 
d="M154 482l15 -24c8 -12 16 -9 25 -1c42 36 84 45 128 45c133 0 215 -99 215 -256c0 -158 -88 -257 -232 -257c-29 0 -48 4 -67 12l-24 10v-217c0 -8 -5 -13 -13 -13h-133c-8 0 -13 5 -13 13v684c0 8 5 13 13 13h71c7 0 12 -3 15 -9zM212 151l20 -9c17 -9 41 -13 61 -13
c58 0 89 44 89 117c0 72 -33 115 -90 115c-51 0 -80 -38 -80 -99v-111z" />
    <glyph glyph-name="thorn" unicode="&#xfe;" horiz-adv-x="573" 
d="M214 715v-109c0 -54 -7 -88 -25 -126c-5 -11 2 -23 16 -14c32 23 71 36 108 36c144 0 224 -99 224 -256c0 -158 -89 -257 -232 -257c-29 0 -48 4 -67 12l-24 10v-218c0 -8 -5 -13 -13 -13h-133c-8 0 -13 5 -13 13v922c0 8 5 13 13 13h133c8 0 13 -5 13 -13zM212 151
l20 -9c15 -8 40 -13 61 -13c57 0 89 44 89 117s-33 115 -90 115c-51 0 -80 -37 -80 -98v-112z" />
    <glyph glyph-name="q" unicode="q" horiz-adv-x="568" 
d="M359 -206v91c0 61 9 91 25 126c6 11 -2 24 -18 13c-31 -23 -66 -35 -114 -35c-134 0 -217 99 -217 256c0 158 93 257 244 257c38 0 81 -5 123 -22l105 -42c7 -3 10 -7 10 -15v-629c0 -8 -5 -13 -13 -13h-132c-8 0 -13 5 -13 13zM361 340l-18 8c-22 9 -42 13 -64 13
c-56 0 -89 -43 -89 -116c0 -72 32 -116 84 -116c56 0 87 33 87 98v113z" />
    <glyph glyph-name="r" unicode="r" horiz-adv-x="416" 
d="M371 489v-115c0 -9 -4 -13 -13 -13c-110 -5 -144 -67 -144 -267v-81c0 -8 -5 -13 -13 -13h-133c-8 0 -13 5 -13 13v465c0 8 5 13 13 13h71c7 0 12 -3 15 -9l26 -40c9 -13 13 -16 25 -3c43 45 83 61 153 63c8 0 13 -5 13 -13z" />
    <glyph glyph-name="racute" unicode="&#x155;" horiz-adv-x="416" 
d="M212 728h147c11 0 14 -7 9 -16l-98 -147c-4 -5 -9 -8 -16 -8h-107c-9 0 -14 6 -10 15l60 146c3 7 7 10 15 10zM371 489v-115c0 -9 -4 -13 -13 -13c-110 -5 -144 -67 -144 -267v-81c0 -8 -5 -13 -13 -13h-133c-8 0 -13 5 -13 13v465c0 8 5 13 13 13h71c7 0 12 -3 15 -9
l26 -40c9 -13 13 -16 25 -3c43 45 83 61 153 63c8 0 13 -5 13 -13z" />
    <glyph glyph-name="rcaron" unicode="&#x159;" horiz-adv-x="416" 
d="M272 557h-118c-7 0 -12 3 -16 8l-98 147c-5 9 -2 16 9 16h95c7 0 12 -2 16 -7l53 -63l52 63c4 5 9 7 16 7h95c11 0 14 -7 9 -16l-97 -147c-4 -5 -9 -8 -16 -8zM154 482l26 -40c9 -13 13 -16 25 -3c43 45 83 61 153 63c8 0 13 -5 13 -13v-115c0 -9 -4 -13 -13 -13
c-110 -5 -144 -67 -144 -267v-81c0 -8 -5 -13 -13 -13h-133c-8 0 -13 5 -13 13v465c0 8 5 13 13 13h71c7 0 12 -3 15 -9z" />
    <glyph glyph-name="rcommaaccent" unicode="&#x157;" horiz-adv-x="416" 
d="M371 489v-115c0 -9 -4 -13 -13 -13c-110 -5 -144 -67 -144 -267v-81c0 -8 -5 -13 -13 -13h-133c-8 0 -13 5 -13 13v465c0 8 5 13 13 13h71c7 0 12 -3 15 -9l26 -40c9 -13 13 -16 25 -3c43 45 83 61 153 63c8 0 13 -5 13 -13zM95 -221l17 30c12 18 8 27 -8 31
c-22 6 -37 29 -37 56c0 35 24 56 64 56c38 0 63 -23 63 -65c0 -35 -20 -67 -33 -90l-17 -26c-4 -5 -9 -8 -16 -8h-24c-10 0 -14 7 -9 16z" />
    <glyph glyph-name="rdblgrave" unicode="&#x211;" horiz-adv-x="416" 
d="M5 728h113c7 0 12 -3 14 -11l46 -145c3 -9 -1 -15 -10 -15h-98c-8 0 -12 3 -15 10l-60 146c-4 9 1 15 10 15zM204 728h113c8 0 13 -4 15 -11l32 -146c2 -9 -2 -14 -12 -14h-98c-7 0 -12 3 -14 11l-46 145c-3 9 1 15 10 15zM371 489v-115c0 -9 -4 -13 -13 -13
c-110 -5 -144 -67 -144 -267v-81c0 -8 -5 -13 -13 -13h-133c-8 0 -13 5 -13 13v465c0 8 5 13 13 13h71c7 0 12 -3 15 -9l26 -40c9 -13 13 -16 25 -3c43 45 83 61 153 63c8 0 13 -5 13 -13z" />
    <glyph glyph-name="rdotbelow" unicode="&#x1e5b;" horiz-adv-x="416" 
d="M371 489v-115c0 -9 -4 -13 -13 -13c-110 -5 -144 -67 -144 -267v-81c0 -8 -5 -13 -13 -13h-133c-8 0 -13 5 -13 13v465c0 8 5 13 13 13h71c7 0 12 -3 15 -9l26 -40c9 -13 13 -16 25 -3c43 45 83 61 153 63c8 0 13 -5 13 -13zM129 -65c55 0 86 -31 86 -82s-31 -82 -86 -82
s-88 31 -88 82s33 82 88 82z" />
    <glyph glyph-name="rinvertedbreve" unicode="&#x213;" horiz-adv-x="416" 
d="M344 557h-82c-8 0 -13 5 -13 13v26c0 26 -14 42 -41 42c-26 0 -40 -16 -40 -42v-26c0 -8 -5 -13 -13 -13h-82c-8 0 -13 5 -13 13v24c0 89 56 141 148 141c94 0 149 -52 149 -141v-24c0 -8 -5 -13 -13 -13zM371 489v-115c0 -9 -4 -13 -13 -13c-110 -5 -144 -67 -144 -267
v-81c0 -8 -5 -13 -13 -13h-133c-8 0 -13 5 -13 13v465c0 8 5 13 13 13h71c7 0 12 -3 15 -9l26 -40c9 -13 13 -16 25 -3c43 45 83 61 153 63c8 0 13 -5 13 -13z" />
    <glyph glyph-name="s" unicode="s" horiz-adv-x="484" 
d="M269 180l-79 20c-97 22 -141 66 -141 142c0 101 72 160 195 160c46 0 94 -8 130 -16l50 -12c8 -2 12 -8 9 -16l-30 -104c-2 -8 -7 -11 -15 -9l-51 12c-27 6 -69 10 -93 10c-26 0 -41 -9 -41 -25c0 -10 9 -21 26 -26l85 -20c96 -23 139 -68 139 -146
c0 -101 -72 -161 -194 -161c-44 0 -97 4 -153 18l-53 13c-8 2 -12 8 -9 16l30 106c2 8 7 11 15 9l47 -12c43 -11 104 -16 123 -16c25 0 39 10 39 27c0 13 -9 25 -29 30z" />
    <glyph glyph-name="sacute" unicode="&#x15b;" horiz-adv-x="484" 
d="M244 728h147c11 0 14 -7 9 -16l-98 -147c-4 -5 -9 -8 -16 -8h-107c-9 0 -14 6 -10 15l60 146c3 7 7 10 15 10zM269 180l-79 20c-97 22 -141 66 -141 142c0 101 72 160 195 160c46 0 94 -8 130 -16l50 -12c8 -2 12 -8 9 -16l-30 -104c-2 -8 -7 -11 -15 -9l-51 12
c-27 6 -69 10 -93 10c-26 0 -41 -9 -41 -25c0 -10 9 -21 26 -26l85 -20c96 -23 139 -68 139 -146c0 -101 -72 -161 -194 -161c-44 0 -97 4 -153 18l-53 13c-8 2 -12 8 -9 16l30 106c2 8 7 11 15 9l47 -12c43 -11 104 -16 123 -16c25 0 39 10 39 27c0 13 -9 25 -29 30z" />
    <glyph glyph-name="scaron" unicode="&#x161;" horiz-adv-x="484" 
d="M304 557h-118c-7 0 -12 3 -16 8l-98 147c-5 9 -2 16 9 16h95c7 0 12 -2 16 -7l53 -63l52 63c4 5 9 7 16 7h95c11 0 14 -7 9 -16l-97 -147c-4 -5 -9 -8 -16 -8zM229 316l85 -20c96 -23 139 -68 139 -146c0 -101 -72 -161 -194 -161c-44 0 -97 4 -153 18l-53 13
c-8 2 -12 8 -9 16l30 106c2 8 7 11 15 9l47 -12c43 -11 104 -16 123 -16c25 0 39 10 39 27c0 13 -9 25 -29 30l-79 20c-97 22 -141 66 -141 142c0 101 72 160 195 160c46 0 94 -8 130 -16l50 -12c8 -2 12 -8 9 -16l-30 -104c-2 -8 -7 -11 -15 -9l-51 12c-27 6 -69 10 -93 10
c-26 0 -41 -9 -41 -25c0 -10 9 -21 26 -26z" />
    <glyph glyph-name="scedilla" unicode="&#x15f;" horiz-adv-x="484" 
d="M229 316l85 -20c96 -23 139 -68 139 -146c0 -93 -62 -152 -167 -160l-9 -21h7c37 0 70 -36 70 -93c0 -63 -39 -106 -113 -106c-23 0 -40 4 -56 9l-16 5c-8 3 -11 8 -8 16l25 73c3 9 8 11 16 8l12 -4c8 -2 16 -3 27 -3c12 0 19 6 19 18s-8 19 -22 19h-37c-7 0 -12 3 -15 9
c-3 3 -3 8 -1 15l19 56c-30 3 -64 7 -98 16l-53 13c-8 2 -12 8 -9 16l30 106c2 8 7 11 15 9l47 -12c43 -11 104 -16 123 -16c25 0 39 10 39 27c0 13 -9 25 -29 30l-79 20c-97 22 -141 66 -141 142c0 101 72 160 195 160c46 0 94 -8 130 -16l50 -12c8 -2 12 -8 9 -16
l-30 -104c-2 -8 -7 -11 -15 -9l-51 12c-27 6 -69 10 -93 10c-26 0 -41 -9 -41 -25c0 -10 9 -21 26 -26z" />
    <glyph glyph-name="scircumflex" unicode="&#x15d;" horiz-adv-x="484" 
d="M240 627l-52 -63c-4 -5 -9 -7 -16 -7h-95c-11 0 -14 7 -9 16l97 147c4 5 9 8 16 8h118c7 0 12 -3 16 -8l98 -147c5 -9 2 -16 -9 -16h-95c-7 0 -12 2 -16 7zM229 316l85 -20c96 -23 139 -68 139 -146c0 -101 -72 -161 -194 -161c-44 0 -97 4 -153 18l-53 13
c-8 2 -12 8 -9 16l30 106c2 8 7 11 15 9l47 -12c43 -11 104 -16 123 -16c25 0 39 10 39 27c0 13 -9 25 -29 30l-79 20c-97 22 -141 66 -141 142c0 101 72 160 195 160c46 0 94 -8 130 -16l50 -12c8 -2 12 -8 9 -16l-30 -104c-2 -8 -7 -11 -15 -9l-51 12c-27 6 -69 10 -93 10
c-26 0 -41 -9 -41 -25c0 -10 9 -21 26 -26z" />
    <glyph glyph-name="scommaaccent" unicode="&#x219;" horiz-adv-x="484" 
d="M269 180l-79 20c-97 22 -141 66 -141 142c0 101 72 160 195 160c46 0 94 -8 130 -16l50 -12c8 -2 12 -8 9 -16l-30 -104c-2 -8 -7 -11 -15 -9l-51 12c-27 6 -69 10 -93 10c-26 0 -41 -9 -41 -25c0 -10 9 -21 26 -26l85 -20c96 -23 139 -68 139 -146
c0 -101 -72 -161 -194 -161c-44 0 -97 4 -153 18l-53 13c-8 2 -12 8 -9 16l30 106c2 8 7 11 15 9l47 -12c43 -11 104 -16 123 -16c25 0 39 10 39 27c0 13 -9 25 -29 30zM211 -221l17 30c12 18 8 27 -8 31c-22 6 -37 29 -37 56c0 35 24 56 64 56c38 0 63 -23 63 -65
c0 -35 -20 -67 -33 -90l-17 -26c-4 -5 -9 -8 -16 -8h-24c-10 0 -14 7 -9 16z" />
    <glyph glyph-name="sdotbelow" unicode="&#x1e63;" horiz-adv-x="484" 
d="M269 180l-79 20c-97 22 -141 66 -141 142c0 101 72 160 195 160c46 0 94 -8 130 -16l50 -12c8 -2 12 -8 9 -16l-30 -104c-2 -8 -7 -11 -15 -9l-51 12c-27 6 -69 10 -93 10c-26 0 -41 -9 -41 -25c0 -10 9 -21 26 -26l85 -20c96 -23 139 -68 139 -146
c0 -101 -72 -161 -194 -161c-44 0 -97 4 -153 18l-53 13c-8 2 -12 8 -9 16l30 106c2 8 7 11 15 9l47 -12c43 -11 104 -16 123 -16c25 0 39 10 39 27c0 13 -9 25 -29 30zM246 -65c55 0 86 -31 86 -82s-31 -82 -86 -82s-88 31 -88 82s33 82 88 82z" />
    <glyph glyph-name="germandbls" unicode="&#xdf;" horiz-adv-x="650" 
d="M55 13v461c0 167 97 265 258 265c149 0 232 -73 232 -196c0 -42 -13 -75 -47 -114l-34 -38c-11 -12 -15 -19 -15 -26c0 -9 9 -20 30 -32l37 -23c69 -45 103 -86 103 -155c0 -105 -64 -166 -188 -166c-35 0 -74 3 -117 16l-44 13c-9 3 -12 8 -9 17l35 110c3 8 8 11 16 8
l35 -10c32 -10 59 -14 84 -14c24 0 33 11 33 26c0 12 -7 19 -22 28l-53 33c-65 39 -95 81 -95 135c0 42 16 80 50 119l27 29c14 17 19 30 19 44c0 34 -28 55 -77 55c-62 0 -99 -46 -99 -124v-461c0 -8 -5 -13 -13 -13h-133c-8 0 -13 5 -13 13z" />
    <glyph glyph-name="schwa" unicode="&#x259;" horiz-adv-x="520" 
d="M84 479l54 12c36 8 67 11 94 11c162 0 252 -98 252 -255c0 -158 -94 -258 -249 -258c-125 0 -195 63 -195 170c0 78 48 122 160 138l124 18c-17 34 -50 52 -91 52c-21 0 -51 -4 -65 -7l-49 -11c-8 -2 -13 1 -15 9l-29 105c-3 8 1 14 9 16zM335 216l-119 -17
c-25 -3 -36 -15 -36 -37c0 -24 22 -38 59 -38c48 0 89 24 96 92z" />
    <glyph glyph-name="t" unicode="t" horiz-adv-x="419" 
d="M253 491h113c8 0 13 -5 13 -13v-113c0 -8 -5 -13 -13 -13h-113v-182c0 -26 10 -41 26 -41c9 0 17 1 25 4s14 2 18 -6l47 -96c3 -7 2 -14 -4 -18c-24 -16 -56 -24 -86 -24c-116 0 -184 67 -184 181v182h-52c-8 0 -13 5 -13 13v113c0 8 5 13 13 13h52v109c0 7 3 12 11 15
l132 44c9 3 15 -1 15 -11v-157z" />
    <glyph glyph-name="tbar" unicode="&#x167;" horiz-adv-x="430" 
d="M268 352v-55h113c8 0 13 -5 13 -13v-79c0 -8 -5 -13 -13 -13h-113v-22c0 -26 10 -41 26 -41c9 0 17 1 25 4s14 2 18 -6l47 -96c3 -7 2 -14 -4 -18c-24 -16 -56 -24 -86 -24c-116 0 -184 67 -184 181v22h-52c-8 0 -13 5 -13 13v79c0 8 5 13 13 13h52v55h-52
c-8 0 -13 5 -13 13v113c0 8 5 13 13 13h52v109c0 7 3 12 11 15l132 44c9 3 15 -1 15 -11v-157h113c8 0 13 -5 13 -13v-113c0 -8 -5 -13 -13 -13h-113z" />
    <glyph glyph-name="tcaron" unicode="&#x165;" horiz-adv-x="419" 
d="M322 728h90c8 0 13 -5 13 -13v-36c0 -27 -6 -64 -24 -97l-8 -16c-4 -6 -8 -9 -16 -9h-73c-9 0 -14 5 -11 14l5 22c8 25 10 51 11 79v43c0 8 5 13 13 13zM253 491h113c8 0 13 -5 13 -13v-113c0 -8 -5 -13 -13 -13h-113v-182c0 -26 10 -41 26 -41c9 0 17 1 25 4s14 2 18 -6
l47 -96c3 -7 2 -14 -4 -18c-24 -16 -56 -24 -86 -24c-116 0 -184 67 -184 181v182h-52c-8 0 -13 5 -13 13v113c0 8 5 13 13 13h52v109c0 7 3 12 11 15l132 44c9 3 15 -1 15 -11v-157z" />
    <glyph glyph-name="tcedilla" unicode="&#x163;" horiz-adv-x="419" 
d="M253 352v-182c0 -26 10 -41 26 -41c9 0 17 1 25 4s14 2 18 -6l47 -96c3 -7 2 -14 -4 -18c-24 -16 -56 -24 -86 -24c-9 0 -17 0 -25 1l-9 -21h7c37 0 70 -36 70 -93c0 -63 -39 -106 -113 -106c-23 0 -40 4 -56 9l-16 5c-8 3 -11 8 -8 16l25 73c3 9 8 11 16 8l12 -4
c8 -2 16 -3 27 -3c12 0 19 6 19 18s-8 19 -22 19h-37c-7 0 -12 3 -15 9c-3 3 -3 8 -1 15l26 76c-54 28 -84 83 -84 159v182h-52c-8 0 -13 5 -13 13v113c0 8 5 13 13 13h52v109c0 7 3 12 11 15l132 44c9 3 15 -1 15 -11v-157h113c8 0 13 -5 13 -13v-113c0 -8 -5 -13 -13 -13
h-113z" />
    <glyph glyph-name="uni021B" unicode="&#x21b;" horiz-adv-x="419" 
d="M253 491h113c8 0 13 -5 13 -13v-113c0 -8 -5 -13 -13 -13h-113v-182c0 -26 10 -41 26 -41c9 0 17 1 25 4s14 2 18 -6l47 -96c3 -7 2 -14 -4 -18c-24 -16 -56 -24 -86 -24c-116 0 -184 67 -184 181v182h-52c-8 0 -13 5 -13 13v113c0 8 5 13 13 13h52v109c0 7 3 12 11 15
l132 44c9 3 15 -1 15 -11v-157zM180 -221l17 30c12 18 8 27 -8 31c-22 6 -37 29 -37 56c0 35 24 56 64 56c38 0 63 -23 63 -65c0 -35 -20 -67 -33 -90l-17 -26c-4 -5 -9 -8 -16 -8h-24c-10 0 -14 7 -9 16z" />
    <glyph glyph-name="tdotbelow" unicode="&#x1e6d;" horiz-adv-x="419" 
d="M253 491h113c8 0 13 -5 13 -13v-113c0 -8 -5 -13 -13 -13h-113v-182c0 -26 10 -41 26 -41c9 0 17 1 25 4s14 2 18 -6l47 -96c3 -7 2 -14 -4 -18c-24 -16 -56 -24 -86 -24c-116 0 -184 67 -184 181v182h-52c-8 0 -13 5 -13 13v113c0 8 5 13 13 13h52v109c0 7 3 12 11 15
l132 44c9 3 15 -1 15 -11v-157zM214 -65c55 0 86 -31 86 -82s-31 -82 -86 -82s-88 31 -88 82s33 82 88 82z" />
    <glyph glyph-name="u" unicode="u" 
d="M400 9l-13 21c-10 15 -16 14 -31 1c-40 -34 -86 -42 -116 -42c-118 0 -190 68 -190 185v304c0 8 5 13 13 13h133c8 0 13 -5 13 -13v-284c0 -41 21 -64 56 -64c48 0 75 35 75 102v246c0 8 5 13 13 13h133c8 0 13 -5 13 -13v-465c0 -8 -5 -13 -13 -13h-71c-7 0 -12 3 -15 9
z" />
    <glyph glyph-name="uacute" unicode="&#xfa;" 
d="M279 728h147c11 0 14 -7 9 -16l-98 -147c-4 -5 -9 -8 -16 -8h-107c-9 0 -14 6 -10 15l60 146c3 7 7 10 15 10zM400 9l-13 21c-10 15 -16 14 -31 1c-40 -34 -86 -42 -116 -42c-118 0 -190 68 -190 185v304c0 8 5 13 13 13h133c8 0 13 -5 13 -13v-284c0 -41 21 -64 56 -64
c48 0 75 35 75 102v246c0 8 5 13 13 13h133c8 0 13 -5 13 -13v-465c0 -8 -5 -13 -13 -13h-71c-7 0 -12 3 -15 9z" />
    <glyph glyph-name="ubreve" unicode="&#x16d;" 
d="M424 715v-24c0 -89 -55 -141 -149 -141c-92 0 -148 52 -148 141v24c0 8 5 13 13 13h82c8 0 13 -5 13 -13v-26c0 -26 14 -42 40 -42c27 0 41 16 41 42v26c0 8 5 13 13 13h82c8 0 13 -5 13 -13zM400 9l-13 21c-10 15 -16 14 -31 1c-40 -34 -86 -42 -116 -42
c-118 0 -190 68 -190 185v304c0 8 5 13 13 13h133c8 0 13 -5 13 -13v-284c0 -41 21 -64 56 -64c48 0 75 35 75 102v246c0 8 5 13 13 13h133c8 0 13 -5 13 -13v-465c0 -8 -5 -13 -13 -13h-71c-7 0 -12 3 -15 9z" />
    <glyph glyph-name="ucaron" unicode="&#x1d4;" 
d="M338 557h-118c-7 0 -12 3 -16 8l-98 147c-5 9 -2 16 9 16h95c7 0 12 -2 16 -7l53 -63l52 63c4 5 9 7 16 7h95c11 0 14 -7 9 -16l-97 -147c-4 -5 -9 -8 -16 -8zM353 491h133c8 0 13 -5 13 -13v-465c0 -8 -5 -13 -13 -13h-71c-7 0 -12 3 -15 9l-13 21c-10 15 -16 14 -31 1
c-40 -34 -86 -42 -116 -42c-118 0 -190 68 -190 185v304c0 8 5 13 13 13h133c8 0 13 -5 13 -13v-284c0 -41 21 -64 56 -64c48 0 75 35 75 102v246c0 8 5 13 13 13z" />
    <glyph glyph-name="ucircumflex" unicode="&#xfb;" 
d="M274 627l-52 -63c-4 -5 -9 -7 -16 -7h-95c-11 0 -14 7 -9 16l97 147c4 5 9 8 16 8h118c7 0 12 -3 16 -8l98 -147c5 -9 2 -16 -9 -16h-95c-7 0 -12 2 -16 7zM353 491h133c8 0 13 -5 13 -13v-465c0 -8 -5 -13 -13 -13h-71c-7 0 -12 3 -15 9l-13 21c-10 15 -16 14 -31 1
c-40 -34 -86 -42 -116 -42c-118 0 -190 68 -190 185v304c0 8 5 13 13 13h133c8 0 13 -5 13 -13v-284c0 -41 21 -64 56 -64c48 0 75 35 75 102v246c0 8 5 13 13 13z" />
    <glyph glyph-name="udblgrave" unicode="&#x215;" 
d="M71 728h113c7 0 12 -3 14 -11l46 -145c3 -9 -1 -15 -10 -15h-98c-8 0 -12 3 -15 10l-60 146c-4 9 1 15 10 15zM270 728h113c8 0 13 -4 15 -11l32 -146c2 -9 -2 -14 -12 -14h-98c-7 0 -12 3 -14 11l-46 145c-3 9 1 15 10 15zM400 9l-13 21c-10 15 -16 14 -31 1
c-40 -34 -86 -42 -116 -42c-118 0 -190 68 -190 185v304c0 8 5 13 13 13h133c8 0 13 -5 13 -13v-284c0 -41 21 -64 56 -64c48 0 75 35 75 102v246c0 8 5 13 13 13h133c8 0 13 -5 13 -13v-465c0 -8 -5 -13 -13 -13h-71c-7 0 -12 3 -15 9z" />
    <glyph glyph-name="udieresis" unicode="&#xfc;" 
d="M173 737c51 0 80 -29 80 -82c0 -52 -29 -83 -80 -83c-50 0 -80 31 -80 83c0 53 30 82 80 82zM374 737c51 0 80 -29 80 -82c0 -52 -29 -83 -80 -83c-50 0 -80 31 -80 83c0 53 30 82 80 82zM400 9l-13 21c-10 15 -16 14 -31 1c-40 -34 -86 -42 -116 -42
c-118 0 -190 68 -190 185v304c0 8 5 13 13 13h133c8 0 13 -5 13 -13v-284c0 -41 21 -64 56 -64c48 0 75 35 75 102v246c0 8 5 13 13 13h133c8 0 13 -5 13 -13v-465c0 -8 -5 -13 -13 -13h-71c-7 0 -12 3 -15 9z" />
    <glyph glyph-name="udieresisacute" unicode="&#x1d8;" 
d="M272 935h147c11 0 14 -7 9 -16l-98 -147c-4 -5 -9 -8 -16 -8h-107c-9 0 -14 6 -10 15l60 146c3 7 7 10 15 10zM167 717c51 0 80 -29 80 -82c0 -52 -29 -83 -80 -83c-50 0 -80 31 -80 83c0 53 30 82 80 82zM368 717c51 0 80 -29 80 -82c0 -52 -29 -83 -80 -83
c-50 0 -80 31 -80 83c0 53 30 82 80 82zM400 9l-13 21c-10 15 -16 14 -31 1c-40 -34 -86 -42 -116 -42c-118 0 -190 68 -190 185v304c0 8 5 13 13 13h133c8 0 13 -5 13 -13v-284c0 -41 21 -64 56 -64c48 0 75 35 75 102v246c0 8 5 13 13 13h133c8 0 13 -5 13 -13v-465
c0 -8 -5 -13 -13 -13h-71c-7 0 -12 3 -15 9z" />
    <glyph glyph-name="udieresiscaron" unicode="&#x1da;" 
d="M332 764h-118c-7 0 -12 3 -16 8l-98 147c-5 9 -2 16 9 16h95c7 0 12 -2 16 -7l53 -63l52 63c4 5 9 7 16 7h95c11 0 14 -7 9 -16l-97 -147c-4 -5 -9 -8 -16 -8zM167 552c-50 0 -80 31 -80 83c0 53 30 82 80 82c51 0 80 -29 80 -82c0 -52 -29 -83 -80 -83zM288 635
c0 53 30 82 80 82c51 0 80 -29 80 -82c0 -52 -29 -83 -80 -83c-50 0 -80 31 -80 83zM353 491h133c8 0 13 -5 13 -13v-465c0 -8 -5 -13 -13 -13h-71c-7 0 -12 3 -15 9l-13 21c-10 15 -16 14 -31 1c-40 -34 -86 -42 -116 -42c-118 0 -190 68 -190 185v304c0 8 5 13 13 13h133
c8 0 13 -5 13 -13v-284c0 -41 21 -64 56 -64c48 0 75 35 75 102v246c0 8 5 13 13 13z" />
    <glyph glyph-name="udieresisgrave" unicode="&#x1dc;" 
d="M282 925l60 -146c4 -9 -1 -15 -10 -15h-107c-7 0 -12 3 -16 8l-98 147c-5 9 -2 16 9 16h147c8 0 12 -3 15 -10zM167 717c51 0 80 -29 80 -82c0 -52 -29 -83 -80 -83c-50 0 -80 31 -80 83c0 53 30 82 80 82zM368 717c51 0 80 -29 80 -82c0 -52 -29 -83 -80 -83
c-50 0 -80 31 -80 83c0 53 30 82 80 82zM400 9l-13 21c-10 15 -16 14 -31 1c-40 -34 -86 -42 -116 -42c-118 0 -190 68 -190 185v304c0 8 5 13 13 13h133c8 0 13 -5 13 -13v-284c0 -41 21 -64 56 -64c48 0 75 35 75 102v246c0 8 5 13 13 13h133c8 0 13 -5 13 -13v-465
c0 -8 -5 -13 -13 -13h-71c-7 0 -12 3 -15 9z" />
    <glyph glyph-name="udieresismacron" unicode="&#x1d6;" 
d="M138 890h261c8 0 13 -5 13 -13v-79c0 -8 -5 -13 -13 -13h-261c-8 0 -13 5 -13 13v79c0 8 5 13 13 13zM167 717c51 0 80 -29 80 -82c0 -52 -29 -83 -80 -83c-50 0 -80 31 -80 83c0 53 30 82 80 82zM368 717c51 0 80 -29 80 -82c0 -52 -29 -83 -80 -83c-50 0 -80 31 -80 83
c0 53 30 82 80 82zM400 9l-13 21c-10 15 -16 14 -31 1c-40 -34 -86 -42 -116 -42c-118 0 -190 68 -190 185v304c0 8 5 13 13 13h133c8 0 13 -5 13 -13v-284c0 -41 21 -64 56 -64c48 0 75 35 75 102v246c0 8 5 13 13 13h133c8 0 13 -5 13 -13v-465c0 -8 -5 -13 -13 -13h-71
c-7 0 -12 3 -15 9z" />
    <glyph glyph-name="udotbelow" unicode="&#x1ee5;" 
d="M400 9l-13 21c-10 15 -16 14 -31 1c-40 -34 -86 -42 -116 -42c-118 0 -190 68 -190 185v304c0 8 5 13 13 13h133c8 0 13 -5 13 -13v-284c0 -41 21 -64 56 -64c48 0 75 35 75 102v246c0 8 5 13 13 13h133c8 0 13 -5 13 -13v-465c0 -8 -5 -13 -13 -13h-71c-7 0 -12 3 -15 9
zM276 -65c55 0 86 -31 86 -82s-31 -82 -86 -82s-88 31 -88 82s33 82 88 82z" />
    <glyph glyph-name="ugrave" unicode="&#xf9;" 
d="M288 718l60 -146c4 -9 -1 -15 -10 -15h-107c-7 0 -12 3 -16 8l-98 147c-5 9 -2 16 9 16h147c8 0 12 -3 15 -10zM400 9l-13 21c-10 15 -16 14 -31 1c-40 -34 -86 -42 -116 -42c-118 0 -190 68 -190 185v304c0 8 5 13 13 13h133c8 0 13 -5 13 -13v-284c0 -41 21 -64 56 -64
c48 0 75 35 75 102v246c0 8 5 13 13 13h133c8 0 13 -5 13 -13v-465c0 -8 -5 -13 -13 -13h-71c-7 0 -12 3 -15 9z" />
    <glyph glyph-name="uhungarumlaut" unicode="&#x171;" 
d="M290 713l-46 -145c-2 -8 -7 -11 -14 -11h-98c-9 0 -14 5 -12 14l32 146c2 7 7 11 15 11h113c9 0 13 -6 10 -15zM489 713l-60 -146c-3 -7 -7 -10 -15 -10h-98c-9 0 -13 6 -10 15l46 145c2 8 7 11 14 11h113c9 0 14 -6 10 -15zM400 9l-13 21c-10 15 -16 14 -31 1
c-40 -34 -86 -42 -116 -42c-118 0 -190 68 -190 185v304c0 8 5 13 13 13h133c8 0 13 -5 13 -13v-284c0 -41 21 -64 56 -64c48 0 75 35 75 102v246c0 8 5 13 13 13h133c8 0 13 -5 13 -13v-465c0 -8 -5 -13 -13 -13h-71c-7 0 -12 3 -15 9z" />
    <glyph glyph-name="uinvertedbreve" unicode="&#x217;" 
d="M411 557h-82c-8 0 -13 5 -13 13v26c0 26 -14 42 -41 42c-26 0 -40 -16 -40 -42v-26c0 -8 -5 -13 -13 -13h-82c-8 0 -13 5 -13 13v24c0 89 56 141 148 141c94 0 149 -52 149 -141v-24c0 -8 -5 -13 -13 -13zM400 9l-13 21c-10 15 -16 14 -31 1c-40 -34 -86 -42 -116 -42
c-118 0 -190 68 -190 185v304c0 8 5 13 13 13h133c8 0 13 -5 13 -13v-284c0 -41 21 -64 56 -64c48 0 75 35 75 102v246c0 8 5 13 13 13h133c8 0 13 -5 13 -13v-465c0 -8 -5 -13 -13 -13h-71c-7 0 -12 3 -15 9z" />
    <glyph glyph-name="umacron" unicode="&#x16b;" 
d="M144 692h261c8 0 13 -5 13 -13v-79c0 -8 -5 -13 -13 -13h-261c-8 0 -13 5 -13 13v79c0 8 5 13 13 13zM400 9l-13 21c-10 15 -16 14 -31 1c-40 -34 -86 -42 -116 -42c-118 0 -190 68 -190 185v304c0 8 5 13 13 13h133c8 0 13 -5 13 -13v-284c0 -41 21 -64 56 -64
c48 0 75 35 75 102v246c0 8 5 13 13 13h133c8 0 13 -5 13 -13v-465c0 -8 -5 -13 -13 -13h-71c-7 0 -12 3 -15 9z" />
    <glyph glyph-name="uogonek" unicode="&#x173;" 
d="M467 -123l28 -77c3 -8 1 -13 -8 -16l-15 -5c-15 -6 -33 -9 -56 -9c-75 0 -125 34 -125 92c0 32 12 55 36 77l47 42c19 18 24 24 22 34l-9 15c-10 15 -16 14 -31 1c-40 -34 -86 -42 -116 -42c-118 0 -190 68 -190 185v304c0 8 5 13 13 13h133c8 0 13 -5 13 -13v-284
c0 -41 21 -64 56 -64c48 0 75 35 75 102v246c0 8 5 13 13 13h133c8 0 13 -5 13 -13v-478c0 -17 -5 -27 -35 -53l-49 -42c-7 -6 -9 -10 -9 -16c0 -8 3 -12 11 -12c9 0 18 2 27 5l7 2c8 3 14 1 16 -7z" />
    <glyph glyph-name="uring" unicode="&#x16f;" 
d="M275 736c64 0 102 -35 102 -94s-38 -94 -102 -94c-66 0 -105 35 -105 94s39 94 105 94zM275 677c-26 0 -42 -13 -42 -35s16 -35 42 -35c25 0 40 13 40 35s-15 35 -40 35zM400 9l-13 21c-10 15 -16 14 -31 1c-40 -34 -86 -42 -116 -42c-118 0 -190 68 -190 185v304
c0 8 5 13 13 13h133c8 0 13 -5 13 -13v-284c0 -41 21 -64 56 -64c48 0 75 35 75 102v246c0 8 5 13 13 13h133c8 0 13 -5 13 -13v-465c0 -8 -5 -13 -13 -13h-71c-7 0 -12 3 -15 9z" />
    <glyph glyph-name="utilde" unicode="&#x169;" 
d="M110 615l26 54c22 44 49 63 94 63c30 0 45 -7 60 -18l24 -19c6 -5 12 -7 16 -7c5 0 9 5 17 18l9 13c3 6 8 9 15 9h71c10 0 14 -6 9 -15l-27 -55c-22 -43 -48 -62 -93 -62c-30 0 -46 9 -63 20l-23 15c-7 5 -12 8 -15 8c-5 0 -10 -4 -17 -16l-9 -14c-3 -6 -8 -9 -15 -9h-70
c-10 0 -14 6 -9 15zM400 9l-13 21c-10 15 -16 14 -31 1c-40 -34 -86 -42 -116 -42c-118 0 -190 68 -190 185v304c0 8 5 13 13 13h133c8 0 13 -5 13 -13v-284c0 -41 21 -64 56 -64c48 0 75 35 75 102v246c0 8 5 13 13 13h133c8 0 13 -5 13 -13v-465c0 -8 -5 -13 -13 -13h-71
c-7 0 -12 3 -15 9z" />
    <glyph glyph-name="v" unicode="v" horiz-adv-x="565" 
d="M539 476l-68 -183c-37 -99 -73 -206 -94 -282c-2 -7 -7 -11 -14 -11h-160c-7 0 -12 4 -14 11c-21 75 -57 181 -94 282l-69 183c-4 9 0 15 10 15h137c7 0 12 -3 15 -10l30 -84c26 -73 46 -150 56 -210c2 -13 16 -13 18 0c8 60 28 138 55 210l30 84c3 7 8 10 15 10h137
c10 0 14 -6 10 -15z" />
    <glyph glyph-name="w" unicode="w" horiz-adv-x="829" 
d="M794 476l-68 -247c-28 -101 -41 -148 -57 -218c-2 -7 -7 -11 -15 -11h-164c-8 0 -13 4 -15 11l-21 86l-11 41c-6 23 -16 67 -22 92c-3 13 -11 13 -14 0c-6 -26 -16 -72 -21 -92l-11 -41c-9 -33 -15 -58 -21 -86c-2 -7 -7 -11 -15 -11h-164c-8 0 -13 4 -15 11
c-16 70 -29 115 -57 218l-69 247c-2 9 2 15 11 15h133c8 0 13 -4 15 -11l23 -96c19 -81 30 -134 42 -202c2 -13 16 -13 19 0c15 68 38 146 60 229l18 69c2 7 7 11 15 11h89c7 0 12 -4 14 -11l19 -69c22 -80 45 -161 60 -229c3 -13 16 -13 18 0c11 68 21 116 42 202l23 96
c2 7 7 11 15 11h133c9 0 13 -6 11 -15z" />
    <glyph glyph-name="wacute" unicode="&#x1e83;" horiz-adv-x="829" 
d="M418 728h147c11 0 14 -7 9 -16l-98 -147c-4 -5 -9 -8 -16 -8h-107c-9 0 -14 6 -10 15l60 146c3 7 7 10 15 10zM794 476l-68 -247c-28 -101 -41 -148 -57 -218c-2 -7 -7 -11 -15 -11h-164c-8 0 -13 4 -15 11l-21 86l-11 41c-6 23 -16 67 -22 92c-3 13 -11 13 -14 0
c-6 -26 -16 -72 -21 -92l-11 -41c-9 -33 -15 -58 -21 -86c-2 -7 -7 -11 -15 -11h-164c-8 0 -13 4 -15 11c-16 70 -29 115 -57 218l-69 247c-2 9 2 15 11 15h133c8 0 13 -4 15 -11l23 -96c19 -81 30 -134 42 -202c2 -13 16 -13 19 0c15 68 38 146 60 229l18 69
c2 7 7 11 15 11h89c7 0 12 -4 14 -11l19 -69c22 -80 45 -161 60 -229c3 -13 16 -13 18 0c11 68 21 116 42 202l23 96c2 7 7 11 15 11h133c9 0 13 -6 11 -15z" />
    <glyph glyph-name="wcircumflex" unicode="&#x175;" horiz-adv-x="829" 
d="M413 627l-52 -63c-4 -5 -9 -7 -16 -7h-95c-11 0 -14 7 -9 16l97 147c4 5 9 8 16 8h118c7 0 12 -3 16 -8l98 -147c5 -9 2 -16 -9 -16h-95c-7 0 -12 2 -16 7zM650 491h133c9 0 13 -6 11 -15l-68 -247c-28 -101 -41 -148 -57 -218c-2 -7 -7 -11 -15 -11h-164
c-8 0 -13 4 -15 11l-21 86l-11 41c-6 23 -16 67 -22 92c-3 13 -11 13 -14 0c-6 -26 -16 -72 -21 -92l-11 -41c-9 -33 -15 -58 -21 -86c-2 -7 -7 -11 -15 -11h-164c-8 0 -13 4 -15 11c-16 70 -29 115 -57 218l-69 247c-2 9 2 15 11 15h133c8 0 13 -4 15 -11l23 -96
c19 -81 30 -134 42 -202c2 -13 16 -13 19 0c15 68 38 146 60 229l18 69c2 7 7 11 15 11h89c7 0 12 -4 14 -11l19 -69c22 -80 45 -161 60 -229c3 -13 16 -13 18 0c11 68 21 116 42 202l23 96c2 7 7 11 15 11z" />
    <glyph glyph-name="wdieresis" unicode="&#x1e85;" horiz-adv-x="829" 
d="M313 737c51 0 80 -29 80 -82c0 -52 -29 -83 -80 -83c-50 0 -80 31 -80 83c0 53 30 82 80 82zM514 737c51 0 80 -29 80 -82c0 -52 -29 -83 -80 -83c-50 0 -80 31 -80 83c0 53 30 82 80 82zM794 476l-68 -247c-28 -101 -41 -148 -57 -218c-2 -7 -7 -11 -15 -11h-164
c-8 0 -13 4 -15 11l-21 86l-11 41c-6 23 -16 67 -22 92c-3 13 -11 13 -14 0c-6 -26 -16 -72 -21 -92l-11 -41c-9 -33 -15 -58 -21 -86c-2 -7 -7 -11 -15 -11h-164c-8 0 -13 4 -15 11c-16 70 -29 115 -57 218l-69 247c-2 9 2 15 11 15h133c8 0 13 -4 15 -11l23 -96
c19 -81 30 -134 42 -202c2 -13 16 -13 19 0c15 68 38 146 60 229l18 69c2 7 7 11 15 11h89c7 0 12 -4 14 -11l19 -69c22 -80 45 -161 60 -229c3 -13 16 -13 18 0c11 68 21 116 42 202l23 96c2 7 7 11 15 11h133c9 0 13 -6 11 -15z" />
    <glyph glyph-name="wgrave" unicode="&#x1e81;" horiz-adv-x="829" 
d="M427 718l60 -146c4 -9 -1 -15 -10 -15h-107c-7 0 -12 3 -16 8l-98 147c-5 9 -2 16 9 16h147c8 0 12 -3 15 -10zM794 476l-68 -247c-28 -101 -41 -148 -57 -218c-2 -7 -7 -11 -15 -11h-164c-8 0 -13 4 -15 11l-21 86l-11 41c-6 23 -16 67 -22 92c-3 13 -11 13 -14 0
c-6 -26 -16 -72 -21 -92l-11 -41c-9 -33 -15 -58 -21 -86c-2 -7 -7 -11 -15 -11h-164c-8 0 -13 4 -15 11c-16 70 -29 115 -57 218l-69 247c-2 9 2 15 11 15h133c8 0 13 -4 15 -11l23 -96c19 -81 30 -134 42 -202c2 -13 16 -13 19 0c15 68 38 146 60 229l18 69
c2 7 7 11 15 11h89c7 0 12 -4 14 -11l19 -69c22 -80 45 -161 60 -229c3 -13 16 -13 18 0c11 68 21 116 42 202l23 96c2 7 7 11 15 11h133c9 0 13 -6 11 -15z" />
    <glyph glyph-name="x" unicode="x" 
d="M513 475l-84 -151c-18 -32 -44 -59 -67 -70c-5 -3 -5 -7 -1 -9c27 -18 48 -38 69 -75l85 -154c5 -9 2 -16 -9 -16h-145c-8 0 -12 3 -16 9l-59 114c-6 11 -11 11 -17 0l-60 -114c-3 -6 -8 -9 -15 -9h-146c-11 0 -14 7 -9 16l85 154c21 35 42 59 69 75c4 2 4 6 -1 9
c-21 12 -49 40 -67 70l-84 151c-5 9 -2 16 9 16h144c7 0 12 -3 15 -9l60 -115c5 -11 11 -11 17 0l59 115c4 6 8 9 16 9h143c11 0 14 -7 9 -16z" />
    <glyph glyph-name="y" unicode="y" horiz-adv-x="565" 
d="M539 476l-255 -685c-3 -7 -8 -10 -15 -10h-134c-10 0 -14 6 -10 15l36 97c34 92 22 158 -24 283l-111 300c-4 9 0 15 10 15h137c7 0 12 -3 15 -10l40 -113c18 -52 39 -134 46 -183c2 -11 16 -11 18 1c7 48 28 130 46 182l39 112c3 8 8 11 15 11h137c10 0 14 -6 10 -15z
" />
    <glyph glyph-name="yacute" unicode="&#xfd;" horiz-adv-x="565" 
d="M281 728h147c11 0 14 -7 9 -16l-98 -147c-4 -5 -9 -8 -16 -8h-107c-9 0 -14 6 -10 15l60 146c3 7 7 10 15 10zM269 -219h-134c-10 0 -14 6 -10 15l36 97c34 92 22 158 -24 283l-111 300c-4 9 0 15 10 15h137c7 0 12 -3 15 -10l40 -113c18 -52 39 -134 46 -183
c2 -11 16 -11 18 1c7 48 28 130 46 182l39 112c3 8 8 11 15 11h137c10 0 14 -6 10 -15l-255 -685c-3 -7 -8 -10 -15 -10z" />
    <glyph glyph-name="ycircumflex" unicode="&#x177;" horiz-adv-x="565" 
d="M277 627l-52 -63c-4 -5 -9 -7 -16 -7h-95c-11 0 -14 7 -9 16l97 147c4 5 9 8 16 8h118c7 0 12 -3 16 -8l98 -147c5 -9 2 -16 -9 -16h-95c-7 0 -12 2 -16 7zM392 491h137c10 0 14 -6 10 -15l-255 -685c-3 -7 -8 -10 -15 -10h-134c-10 0 -14 6 -10 15l36 97
c34 92 22 158 -24 283l-111 300c-4 9 0 15 10 15h137c7 0 12 -3 15 -10l40 -113c18 -52 39 -134 46 -183c2 -11 16 -11 18 1c7 48 28 130 46 182l39 112c3 8 8 11 15 11z" />
    <glyph glyph-name="ydieresis" unicode="&#xff;" horiz-adv-x="565" 
d="M176 737c51 0 80 -29 80 -82c0 -52 -29 -83 -80 -83c-50 0 -80 31 -80 83c0 53 30 82 80 82zM377 737c51 0 80 -29 80 -82c0 -52 -29 -83 -80 -83c-50 0 -80 31 -80 83c0 53 30 82 80 82zM269 -219h-134c-10 0 -14 6 -10 15l36 97c34 92 22 158 -24 283l-111 300
c-4 9 0 15 10 15h137c7 0 12 -3 15 -10l40 -113c18 -52 39 -134 46 -183c2 -11 16 -11 18 1c7 48 28 130 46 182l39 112c3 8 8 11 15 11h137c10 0 14 -6 10 -15l-255 -685c-3 -7 -8 -10 -15 -10z" />
    <glyph glyph-name="ygrave" unicode="&#x1ef3;" horiz-adv-x="565" 
d="M291 718l60 -146c4 -9 -1 -15 -10 -15h-107c-7 0 -12 3 -16 8l-98 147c-5 9 -2 16 9 16h147c8 0 12 -3 15 -10zM269 -219h-134c-10 0 -14 6 -10 15l36 97c34 92 22 158 -24 283l-111 300c-4 9 0 15 10 15h137c7 0 12 -3 15 -10l40 -113c18 -52 39 -134 46 -183
c2 -11 16 -11 18 1c7 48 28 130 46 182l39 112c3 8 8 11 15 11h137c10 0 14 -6 10 -15l-255 -685c-3 -7 -8 -10 -15 -10z" />
    <glyph glyph-name="ytilde" unicode="&#x1ef9;" horiz-adv-x="565" 
d="M112 615l26 54c22 44 49 63 94 63c30 0 45 -7 60 -18l24 -19c6 -5 12 -7 16 -7c5 0 9 5 17 18l9 13c3 6 8 9 15 9h71c10 0 14 -6 9 -15l-27 -55c-22 -43 -48 -62 -93 -62c-30 0 -46 9 -63 20l-23 15c-7 5 -12 8 -15 8c-5 0 -10 -4 -17 -16l-9 -14c-3 -6 -8 -9 -15 -9h-70
c-10 0 -14 6 -9 15zM269 -219h-134c-10 0 -14 6 -10 15l36 97c34 92 22 158 -24 283l-111 300c-4 9 0 15 10 15h137c7 0 12 -3 15 -10l40 -113c18 -52 39 -134 46 -183c2 -11 16 -11 18 1c7 48 28 130 46 182l39 112c3 8 8 11 15 11h137c10 0 14 -6 10 -15l-255 -685
c-3 -7 -8 -10 -15 -10z" />
    <glyph glyph-name="z" unicode="z" horiz-adv-x="493" 
d="M453 483c3 -5 3 -11 -1 -17c-18 -27 -31 -51 -50 -89l-78 -157c-12 -23 -28 -49 -46 -71c-5 -6 -4 -11 5 -11h62h90c9 0 13 -6 11 -15l-32 -112c-2 -7 -7 -11 -14 -11h-336c-7 0 -12 3 -15 9c-3 5 -2 10 2 16c19 29 35 57 53 92l76 153c12 25 32 54 48 71c6 7 5 11 -5 11
h-62h-91c-8 0 -13 5 -13 13v113c0 8 5 13 13 13h368c7 0 12 -2 15 -8z" />
    <glyph glyph-name="zacute" unicode="&#x17a;" horiz-adv-x="493" 
d="M249 728h147c11 0 14 -7 9 -16l-98 -147c-4 -5 -9 -8 -16 -8h-107c-9 0 -14 6 -10 15l60 146c3 7 7 10 15 10zM453 483c3 -5 3 -11 -1 -17c-18 -27 -31 -51 -50 -89l-78 -157c-12 -23 -28 -49 -46 -71c-5 -6 -4 -11 5 -11h152c9 0 13 -6 11 -15l-32 -112
c-2 -7 -7 -11 -14 -11h-336c-7 0 -12 3 -15 9c-3 5 -2 10 2 16c19 29 35 57 53 92l76 153c12 25 32 54 48 71c6 7 5 11 -5 11h-153c-8 0 -13 5 -13 13v113c0 8 5 13 13 13h368c7 0 12 -2 15 -8z" />
    <glyph glyph-name="zcaron" unicode="&#x17e;" horiz-adv-x="493" 
d="M309 557h-118c-7 0 -12 3 -16 8l-98 147c-5 9 -2 16 9 16h95c7 0 12 -2 16 -7l53 -63l52 63c4 5 9 7 16 7h95c11 0 14 -7 9 -16l-97 -147c-4 -5 -9 -8 -16 -8zM283 138h152c9 0 13 -6 11 -15l-32 -112c-2 -7 -7 -11 -14 -11h-336c-7 0 -12 3 -15 9c-3 5 -2 10 2 16
c19 29 35 57 53 92l76 153c12 25 32 54 48 71c6 7 5 11 -5 11h-153c-8 0 -13 5 -13 13v113c0 8 5 13 13 13h368c7 0 12 -3 15 -9c3 -5 3 -10 -1 -16c-18 -27 -31 -51 -50 -89l-78 -157c-12 -23 -28 -49 -46 -71c-5 -6 -4 -11 5 -11z" />
    <glyph glyph-name="zdotaccent" unicode="&#x17c;" horiz-adv-x="493" 
d="M246 738c56 0 88 -33 88 -91s-32 -92 -88 -92s-89 34 -89 92s33 91 89 91zM453 483c3 -5 3 -11 -1 -17c-18 -27 -31 -51 -50 -89l-78 -157c-12 -23 -28 -49 -46 -71c-5 -6 -4 -11 5 -11h152c9 0 13 -6 11 -15l-32 -112c-2 -7 -7 -11 -14 -11h-336c-7 0 -12 3 -15 9
c-3 5 -2 10 2 16c19 29 35 57 53 92l76 153c12 25 32 54 48 71c6 7 5 11 -5 11h-153c-8 0 -13 5 -13 13v113c0 8 5 13 13 13h368c7 0 12 -2 15 -8z" />
    <glyph glyph-name="zdotbelow" unicode="&#x1e93;" horiz-adv-x="493" 
d="M453 483c3 -5 3 -11 -1 -17c-18 -27 -31 -51 -50 -89l-78 -157c-12 -23 -28 -49 -46 -71c-5 -6 -4 -11 5 -11h152c9 0 13 -6 11 -15l-32 -112c-2 -7 -7 -11 -14 -11h-336c-7 0 -12 3 -15 9c-3 5 -2 10 2 16c19 29 35 57 53 92l76 153c12 25 32 54 48 71c6 7 5 11 -5 11
h-153c-8 0 -13 5 -13 13v113c0 8 5 13 13 13h368c7 0 12 -2 15 -8zM238 -65c55 0 86 -31 86 -82s-31 -82 -86 -82s-88 31 -88 82s33 82 88 82z" />
    <glyph glyph-name="ordfeminine" unicode="&#xaa;" horiz-adv-x="410" 
d="M73 695l30 8c27 8 54 12 86 12c117 0 187 -56 187 -153v-234c0 -8 -5 -13 -13 -13h-57c-8 0 -12 3 -15 10l-4 9c-4 8 -8 6 -16 1c-24 -16 -51 -28 -99 -28c-89 0 -142 45 -142 124c0 78 54 125 146 125h85v3c0 32 -25 53 -76 53c-21 0 -39 -3 -57 -8l-27 -7
c-8 -3 -13 0 -16 8l-21 74c-2 8 1 13 9 16zM261 468h-85c-22 0 -33 -9 -33 -26c0 -21 16 -34 45 -34c49 0 73 18 73 58v2zM35 144v77c0 8 5 13 13 13h311c8 0 13 -5 13 -13v-77c0 -8 -5 -13 -13 -13h-311c-8 0 -13 5 -13 13z" />
    <glyph glyph-name="ordmasculine" unicode="&#xba;" horiz-adv-x="446" 
d="M223 715c116 0 190 -79 190 -204c0 -123 -74 -204 -190 -204s-190 81 -190 204c0 125 74 204 190 204zM223 612c-48 0 -77 -39 -77 -101s29 -101 77 -101c49 0 77 39 77 101s-28 101 -77 101zM67 234h311c8 0 13 -5 13 -13v-77c0 -8 -5 -13 -13 -13h-311
c-8 0 -13 5 -13 13v77c0 8 5 13 13 13z" />
    <glyph glyph-name="Iacute_J.loclNLD" horiz-adv-x="726" 
d="M144 927h175c12 0 15 -8 7 -16l-112 -119c-4 -5 -9 -7 -16 -7h-125c-11 0 -14 7 -9 16l65 117c3 6 8 9 15 9zM583 927h175c12 0 15 -8 7 -16l-112 -119c-4 -5 -9 -7 -16 -7h-125c-11 0 -14 7 -9 16l65 117c3 6 8 9 15 9zM65 13v683c0 8 5 13 13 13h136c8 0 13 -5 13 -13
v-683c0 -8 -5 -13 -13 -13h-136c-8 0 -13 5 -13 13zM665 696v-469c0 -150 -82 -238 -220 -238c-28 0 -56 5 -94 19l-16 6c-9 2 -11 8 -8 16l41 109c3 8 9 11 17 8l17 -6c15 -6 27 -8 43 -8c37 0 59 32 59 85v478c0 8 5 13 13 13h135c8 0 13 -5 13 -13z" />
    <glyph glyph-name="Cacute.loclPLK" horiz-adv-x="630" 
d="M328 925h176c11 0 15 -7 8 -16l-87 -118c-4 -6 -9 -8 -16 -8h-127c-10 0 -14 6 -11 15l42 117c3 7 8 10 15 10zM567 29l-48 -16c-54 -18 -95 -24 -150 -24c-201 0 -324 141 -324 366c0 224 123 365 324 365c57 0 99 -5 149 -21l46 -15c8 -3 11 -8 8 -16l-36 -113
c-3 -8 -8 -11 -16 -8l-47 15c-29 9 -58 13 -104 13c-100 0 -161 -81 -161 -220c0 -141 61 -222 161 -222c37 0 67 3 103 15l47 14c8 3 14 0 16 -8l40 -109c3 -8 1 -13 -8 -16z" />
    <glyph glyph-name="Nacute.loclPLK" horiz-adv-x="732" 
d="M353 927h176c11 0 15 -7 8 -16l-87 -118c-4 -6 -9 -8 -16 -8h-127c-10 0 -14 6 -11 15l42 117c3 7 8 10 15 10zM654 0h-178c-8 0 -12 3 -15 10c-15 35 -34 73 -50 106l-142 288c-13 26 -24 49 -36 75c-8 15 -18 9 -17 -4c9 -63 11 -110 11 -182v-280c0 -8 -5 -13 -13 -13
h-136c-8 0 -13 5 -13 13v683c0 8 5 13 13 13h178c8 0 12 -3 15 -10c16 -35 35 -73 51 -106l143 -290c12 -26 23 -49 36 -73c7 -16 18 -10 16 4c-10 62 -11 108 -11 180v282c0 8 5 13 13 13h135c8 0 13 -5 13 -13v-683c0 -8 -5 -13 -13 -13z" />
    <glyph glyph-name="Oacute.loclPLK" horiz-adv-x="727" 
d="M350 927h176c11 0 15 -7 8 -16l-87 -118c-4 -6 -9 -8 -16 -8h-127c-10 0 -14 6 -11 15l42 117c3 7 8 10 15 10zM364 720c197 0 318 -140 318 -365c0 -224 -121 -366 -318 -366c-198 0 -319 142 -319 366c0 225 121 365 319 365zM364 575c-97 0 -156 -80 -156 -220
c0 -137 59 -222 156 -222s155 85 155 222c0 140 -58 220 -155 220z" />
    <glyph glyph-name="Sacute.loclPLK" horiz-adv-x="620" 
d="M290 925h176c11 0 15 -7 8 -16l-87 -118c-4 -6 -9 -8 -16 -8h-127c-10 0 -14 6 -11 15l42 117c3 7 8 10 15 10zM326 273l-84 32c-137 51 -187 101 -187 210c0 131 99 205 257 205c58 0 112 -10 160 -26l66 -22c9 -3 11 -8 9 -16l-41 -112c-3 -8 -8 -11 -16 -8l-59 18
c-40 12 -78 21 -119 21c-56 0 -94 -24 -94 -60c0 -35 31 -51 88 -72l84 -31c139 -52 189 -104 189 -213c0 -137 -93 -210 -263 -210c-60 0 -114 6 -197 33l-66 21c-9 3 -11 8 -9 16l40 111c3 8 8 11 16 8l70 -21c59 -18 103 -24 146 -24c54 0 100 13 100 66
c0 30 -35 53 -90 74z" />
    <glyph glyph-name="Zacute.loclPLK" horiz-adv-x="636" 
d="M306 927h176c11 0 15 -7 8 -16l-87 -118c-4 -6 -9 -8 -16 -8h-127c-10 0 -14 6 -11 15l42 117c3 7 8 10 15 10zM76 709h492c7 0 12 -3 15 -9l2 -3c4 -6 4 -12 0 -18c-38 -57 -60 -94 -98 -169l-124 -240c-18 -33 -46 -80 -70 -112c-9 -13 -6 -17 10 -17h258
c9 0 13 -6 11 -15l-32 -115c-2 -7 -7 -11 -14 -11h-453c-7 0 -12 3 -15 9l-2 3c-4 6 -4 12 0 18c47 71 67 112 97 170l124 239c16 34 42 87 65 111c10 9 7 17 -5 17h-261c-8 0 -13 5 -13 13v116c0 8 5 13 13 13z" />
    <glyph glyph-name="i.loclTRK" horiz-adv-x="309" 
d="M156 738c56 0 88 -33 88 -91s-32 -92 -88 -92s-89 34 -89 92s33 91 89 91zM240 0h-132c-8 0 -13 5 -13 13v339h-52c-8 0 -13 5 -13 13v113c0 8 5 13 13 13h197c8 0 13 -5 13 -13v-465c0 -8 -5 -13 -13 -13z" />
    <glyph glyph-name="f.ligaturoms" horiz-adv-x="454" 
d="M307 728h134c8 0 13 -5 13 -13v-113c0 -8 -5 -13 -13 -13h-134c-33 0 -54 -15 -54 -55v-43h113c8 0 13 -5 13 -13v-113c0 -8 -5 -13 -13 -13h-113v-339c0 -8 -5 -13 -13 -13h-132c-8 0 -13 5 -13 13v339h-52c-8 0 -13 5 -13 13v113c0 8 5 13 13 13h52v43
c0 128 79 194 212 194z" />
    <glyph glyph-name="f.ligaturoms.ss02" horiz-adv-x="454" 
d="M307 728h134c8 0 13 -5 13 -13v-113c0 -8 -5 -13 -13 -13h-134c-33 0 -54 -15 -54 -55v-43h113c8 0 13 -5 13 -13v-113c0 -8 -5 -13 -13 -13h-113v-470c0 -8 -5 -13 -13 -13h-132c-8 0 -13 5 -13 13v470h-52c-8 0 -13 5 -13 13v113c0 8 5 13 13 13h52v43
c0 128 79 194 212 194z" />
    <glyph glyph-name="iacute_j.loclNLD" horiz-adv-x="620" 
d="M90 572l41 145c2 7 7 11 14 11h139c11 0 15 -6 10 -15l-78 -147c-3 -6 -8 -9 -15 -9h-100c-9 0 -13 6 -11 15zM605 713l-78 -147c-3 -6 -8 -9 -15 -9h-100c-9 0 -13 6 -11 15l41 145c2 7 7 11 14 11h139c11 0 15 -6 10 -15zM30 365v113c0 8 5 13 13 13h197
c8 0 13 -5 13 -13v-465c0 -8 -5 -13 -13 -13h-132c-8 0 -13 5 -13 13v339h-52c-8 0 -13 5 -13 13zM341 365v113c0 8 5 13 13 13h197c8 0 13 -5 13 -13v-478c-5 -92 -53 -158 -151 -214l-21 -12c-7 -5 -13 -3 -17 5l-57 104c-4 7 -2 13 5 18l18 11c45 25 65 58 65 104v336
h-52c-8 0 -13 5 -13 13z" />
    <glyph glyph-name="cacute.loclPLK" horiz-adv-x="481" 
d="M237 728h145c10 0 14 -6 9 -15l-72 -147c-4 -6 -8 -9 -16 -9h-104c-9 0 -14 5 -12 14l35 146c2 7 7 11 15 11zM428 15l-57 -16c-28 -8 -59 -10 -86 -10c-160 0 -250 99 -250 257c0 157 89 256 253 256c22 0 51 -2 80 -10l55 -15c9 -3 12 -8 9 -17l-32 -110
c-3 -8 -8 -11 -16 -9l-40 11c-20 6 -42 9 -56 9c-68 0 -98 -43 -98 -114c0 -74 32 -118 97 -118c16 0 41 4 61 10l40 10c8 2 13 -1 16 -9l33 -109c3 -9 0 -14 -9 -16z" />
    <glyph glyph-name="nacute.loclPLK" 
d="M255 728h145c10 0 14 -6 9 -15l-72 -147c-4 -6 -8 -9 -16 -9h-104c-9 0 -14 5 -12 14l35 146c2 7 7 11 15 11zM154 482l13 -21c10 -15 16 -14 31 -1c40 34 86 42 116 42c118 0 190 -68 190 -185v-304c0 -8 -5 -13 -13 -13h-133c-8 0 -13 5 -13 13v284c0 41 -21 64 -56 64
c-48 0 -75 -35 -75 -102v-246c0 -8 -5 -13 -13 -13h-133c-8 0 -13 5 -13 13v465c0 8 5 13 13 13h71c7 0 12 -3 15 -9z" />
    <glyph glyph-name="oacute.loclPLK" horiz-adv-x="558" 
d="M257 728h145c10 0 14 -6 9 -15l-72 -147c-4 -6 -8 -9 -16 -9h-104c-9 0 -14 5 -12 14l35 146c2 7 7 11 15 11zM279 502c150 0 243 -100 243 -256c0 -158 -93 -257 -243 -257c-151 0 -244 99 -244 257c0 156 93 256 244 256zM279 361c-55 0 -89 -43 -89 -115
c0 -73 34 -117 89 -117c54 0 88 44 88 117c0 72 -34 115 -88 115z" />
    <glyph glyph-name="sacute.loclPLK" horiz-adv-x="484" 
d="M220 728h145c10 0 14 -6 9 -15l-72 -147c-4 -6 -8 -9 -16 -9h-104c-9 0 -14 5 -12 14l35 146c2 7 7 11 15 11zM269 180l-79 20c-97 22 -141 66 -141 142c0 101 72 160 195 160c46 0 94 -8 130 -16l50 -12c8 -2 12 -8 9 -16l-30 -104c-2 -8 -7 -11 -15 -9l-51 12
c-27 6 -69 10 -93 10c-26 0 -41 -9 -41 -25c0 -10 9 -21 26 -26l85 -20c96 -23 139 -68 139 -146c0 -101 -72 -161 -194 -161c-44 0 -97 4 -153 18l-53 13c-8 2 -12 8 -9 16l30 106c2 8 7 11 15 9l47 -12c43 -11 104 -16 123 -16c25 0 39 10 39 27c0 13 -9 25 -29 30z" />
    <glyph glyph-name="cacute.loclPLK.sc" horiz-adv-x="525" 
d="M262 767h145c10 0 14 -6 9 -15l-72 -147c-4 -6 -8 -9 -16 -9h-104c-9 0 -14 5 -12 14l35 146c2 7 7 11 15 11zM472 17l-50 -14c-33 -9 -77 -14 -109 -14c-179 0 -278 107 -278 277c0 169 98 275 281 275c33 0 63 -4 93 -13l58 -16c9 -3 12 -8 9 -17l-34 -109
c-3 -8 -8 -11 -16 -9l-42 12c-27 8 -49 11 -68 11c-87 0 -126 -49 -126 -133c0 -87 42 -138 125 -138c20 0 49 4 74 12l44 12c8 2 13 -1 16 -9l32 -110c3 -9 0 -14 -9 -17z" />
    <glyph glyph-name="nacute.loclPLK.sc" horiz-adv-x="626" 
d="M291 767h145c10 0 14 -6 9 -15l-72 -147c-4 -6 -8 -9 -16 -9h-104c-9 0 -14 5 -12 14l35 146c2 7 7 11 15 11zM558 0h-161c-8 0 -12 3 -15 10c-12 26 -26 53 -40 79l-91 155c-11 21 -23 45 -35 67c-7 13 -16 7 -14 -3c10 -61 12 -102 12 -169v-126c0 -8 -5 -13 -13 -13
h-133c-8 0 -13 5 -13 13v504c0 8 5 13 13 13h161c8 0 12 -3 15 -10c12 -27 25 -53 40 -81l91 -154c13 -24 24 -45 35 -67c7 -14 17 -6 15 4c-10 62 -11 100 -11 169v126c0 8 5 13 13 13h131c8 0 13 -5 13 -13v-504c0 -8 -5 -13 -13 -13z" />
    <glyph glyph-name="oacute.loclPLK.sc" horiz-adv-x="604" 
d="M280 767h145c10 0 14 -6 9 -15l-72 -147c-4 -6 -8 -9 -16 -9h-104c-9 0 -14 5 -12 14l35 146c2 7 7 11 15 11zM302 541c164 0 266 -108 266 -276c0 -169 -102 -276 -266 -276c-165 0 -267 107 -267 276c0 168 102 276 267 276zM302 400c-69 0 -112 -50 -112 -135
s43 -136 112 -136c68 0 111 51 111 136s-43 135 -111 135z" />
    <glyph glyph-name="sacute.loclPLK.sc" horiz-adv-x="529" 
d="M244 767h145c10 0 14 -6 9 -15l-72 -147c-4 -6 -8 -9 -16 -9h-104c-9 0 -14 5 -12 14l35 146c2 7 7 11 15 11zM301 191l-102 23c-102 23 -149 75 -149 158c0 106 80 169 216 169c52 0 106 -8 146 -18l54 -14c8 -2 12 -7 9 -16l-31 -110c-2 -8 -7 -11 -15 -9l-56 14
c-30 8 -77 12 -106 12c-39 0 -62 -9 -62 -27c0 -14 13 -22 38 -28l103 -23c106 -24 152 -78 152 -163c0 -107 -81 -170 -217 -170c-53 0 -113 4 -173 20l-55 15c-8 2 -12 7 -9 16l32 109c3 8 8 11 16 9l47 -12c47 -12 113 -17 142 -17c39 0 62 10 62 30c0 16 -13 25 -42 32z
" />
    <glyph glyph-name="zacute.loclPLK.sc" 
d="M247 767h145c10 0 14 -6 9 -15l-72 -147c-4 -6 -8 -9 -16 -9h-104c-9 0 -14 5 -12 14l35 146c2 7 7 11 15 11zM514 522c3 -6 3 -12 -1 -18c-19 -29 -35 -54 -55 -93l-114 -188c-12 -25 -30 -51 -50 -73c-6 -6 -4 -12 6 -12h68h127c9 0 13 -6 11 -15l-32 -112
c-2 -7 -7 -11 -14 -11h-395c-7 0 -12 3 -15 9c-3 5 -3 11 1 17c21 31 39 59 59 96l111 184c12 25 33 56 50 73c7 7 6 12 -5 12h-68h-127c-8 0 -13 5 -13 13v113c0 8 5 13 13 13h427c7 0 12 -2 16 -8z" />
    <glyph glyph-name="zacute.loclPLK" horiz-adv-x="493" 
d="M224 728h145c10 0 14 -6 9 -15l-72 -147c-4 -6 -8 -9 -16 -9h-104c-9 0 -14 5 -12 14l35 146c2 7 7 11 15 11zM453 483c3 -5 3 -11 -1 -17c-18 -27 -31 -51 -50 -89l-78 -157c-12 -23 -28 -49 -46 -71c-5 -6 -4 -11 5 -11h152c9 0 13 -6 11 -15l-32 -112
c-2 -7 -7 -11 -14 -11h-336c-7 0 -12 3 -15 9c-3 5 -2 10 2 16c19 29 35 57 53 92l76 153c12 25 32 54 48 71c6 7 5 11 -5 11h-153c-8 0 -13 5 -13 13v113c0 8 5 13 13 13h368c7 0 12 -2 15 -8z" />
    <glyph glyph-name="f.calt" horiz-adv-x="409" 
d="M95 491v50c0 124 76 198 204 198c19 0 41 -4 69 -11l7 -2c8 -2 12 -7 9 -16l-30 -108c-3 -9 -8 -12 -17 -9l-4 1c-10 3 -20 4 -34 4c-28 0 -46 -21 -46 -57v-50h113c8 0 13 -5 13 -13v-113c0 -8 -5 -13 -13 -13h-113v-339c0 -8 -5 -13 -13 -13h-132c-8 0 -13 5 -13 13
v339h-52c-8 0 -13 5 -13 13v113c0 8 5 13 13 13h52z" />
    <glyph glyph-name="germandbls.calt" horiz-adv-x="759" 
d="M61 13v454c0 154 85 242 231 242h345c7 0 12 -3 15 -9l2 -3c4 -6 5 -12 1 -18c-16 -32 -33 -64 -50 -100l-69 -151c-6 -13 -4 -15 6 -19l64 -26c79 -32 113 -89 113 -187c0 -130 -98 -207 -264 -207c-32 0 -79 5 -129 21l-44 14c-9 3 -11 8 -9 16l39 112c3 8 8 11 16 8
l44 -13c30 -10 62 -14 83 -14c63 0 101 24 101 63c0 29 -13 54 -43 66l-153 61c-6 2 -9 5 -13 11l-3 4c-3 6 -4 12 -1 18l60 129c12 26 21 44 34 62c12 17 0 20 -19 20h-126c-40 0 -70 -27 -70 -100v-454c0 -8 -5 -13 -13 -13h-135c-8 0 -13 5 -13 13z" />
    <glyph glyph-name="f.calt.ss02" horiz-adv-x="409" 
d="M95 491v50c0 124 76 198 204 198c19 0 41 -4 69 -11l7 -2c8 -2 12 -7 9 -16l-30 -108c-3 -9 -8 -12 -17 -9l-4 1c-10 3 -20 4 -34 4c-28 0 -46 -21 -46 -57v-50h113c8 0 13 -5 13 -13v-113c0 -8 -5 -13 -13 -13h-113v-470c0 -8 -5 -13 -13 -13h-132c-8 0 -13 5 -13 13
v470h-52c-8 0 -13 5 -13 13v113c0 8 5 13 13 13h52z" />
    <glyph glyph-name="t.calt" horiz-adv-x="419" 
d="M253 491h113c8 0 13 -5 13 -13v-113c0 -8 -5 -13 -13 -13h-113v-182c0 -26 10 -41 26 -41c9 0 17 1 25 4s14 2 18 -6l47 -96c3 -7 2 -14 -4 -18c-24 -16 -56 -24 -86 -24c-116 0 -184 67 -184 181v182h-52c-8 0 -13 5 -13 13v113c0 8 5 13 13 13h52v109c0 7 3 12 11 15
l132 44c9 3 15 -1 15 -11v-157z" />
    <glyph glyph-name="tcaron.calt" horiz-adv-x="419" 
d="M322 728h90c8 0 13 -5 13 -13v-36c0 -27 -6 -64 -24 -97l-8 -16c-4 -6 -8 -9 -16 -9h-73c-9 0 -14 5 -11 14l5 22c8 25 10 51 11 79v43c0 8 5 13 13 13zM253 491h113c8 0 13 -5 13 -13v-113c0 -8 -5 -13 -13 -13h-113v-182c0 -26 10 -41 26 -41c9 0 17 1 25 4s14 2 18 -6
l47 -96c3 -7 2 -14 -4 -18c-24 -16 -56 -24 -86 -24c-116 0 -184 67 -184 181v182h-52c-8 0 -13 5 -13 13v113c0 8 5 13 13 13h52v109c0 7 3 12 11 15l132 44c9 3 15 -1 15 -11v-157z" />
    <glyph glyph-name="a.ss01" horiz-adv-x="568" 
d="M417 11l-12 40c-4 13 -11 17 -25 1c-40 -43 -90 -63 -139 -63c-129 0 -206 88 -206 237c0 173 95 276 256 276c40 0 72 -4 111 -13l104 -24c7 -2 11 -7 11 -15v-437c0 -8 -5 -13 -13 -13h-73c-7 0 -12 4 -14 11zM361 350l-20 5c-17 4 -29 6 -48 6
c-64 0 -103 -50 -103 -135c1 -62 30 -97 81 -97c50 0 90 75 90 170v51z" />
    <glyph glyph-name="aacute.ss01" horiz-adv-x="568" 
d="M296 728h147c11 0 14 -7 9 -16l-98 -147c-4 -5 -9 -8 -16 -8h-107c-9 0 -14 6 -10 15l60 146c3 7 7 10 15 10zM417 11l-12 40c-4 13 -11 17 -25 1c-40 -43 -90 -63 -139 -63c-129 0 -206 88 -206 237c0 173 95 276 256 276c40 0 72 -4 111 -13l104 -24c7 -2 11 -7 11 -15
v-437c0 -8 -5 -13 -13 -13h-73c-7 0 -12 4 -14 11zM361 350l-20 5c-17 4 -29 6 -48 6c-64 0 -103 -50 -103 -135c1 -62 30 -97 81 -97c50 0 90 75 90 170v51z" />
    <glyph glyph-name="abreve.ss01" horiz-adv-x="568" 
d="M441 715v-24c0 -89 -55 -141 -149 -141c-92 0 -148 52 -148 141v24c0 8 5 13 13 13h82c8 0 13 -5 13 -13v-26c0 -26 14 -42 40 -42c27 0 41 16 41 42v26c0 8 5 13 13 13h82c8 0 13 -5 13 -13zM417 11l-12 40c-4 13 -11 17 -25 1c-40 -43 -90 -63 -139 -63
c-129 0 -206 88 -206 237c0 173 95 276 256 276c40 0 72 -4 111 -13l104 -24c7 -2 11 -7 11 -15v-437c0 -8 -5 -13 -13 -13h-73c-7 0 -12 4 -14 11zM361 350l-20 5c-17 4 -29 6 -48 6c-64 0 -103 -50 -103 -135c1 -62 30 -97 81 -97c50 0 90 75 90 170v51z" />
    <glyph glyph-name="acaron.ss01" horiz-adv-x="568" 
d="M356 557h-118c-7 0 -12 3 -16 8l-98 147c-5 9 -2 16 9 16h95c7 0 12 -2 16 -7l53 -63l52 63c4 5 9 7 16 7h95c11 0 14 -7 9 -16l-97 -147c-4 -5 -9 -8 -16 -8zM402 489l104 -24c7 -2 11 -7 11 -15v-437c0 -8 -5 -13 -13 -13h-73c-7 0 -12 4 -14 11l-12 40
c-4 13 -11 17 -25 1c-40 -43 -90 -63 -139 -63c-129 0 -206 88 -206 237c0 173 95 276 256 276c40 0 72 -4 111 -13zM361 350l-20 5c-17 4 -29 6 -48 6c-64 0 -103 -50 -103 -135c1 -62 30 -97 81 -97c50 0 90 75 90 170v51z" />
    <glyph glyph-name="acircumflex.ss01" horiz-adv-x="568" 
d="M292 627l-52 -63c-4 -5 -9 -7 -16 -7h-95c-11 0 -14 7 -9 16l97 147c4 5 9 8 16 8h118c7 0 12 -3 16 -8l98 -147c5 -9 2 -16 -9 -16h-95c-7 0 -12 2 -16 7zM402 489l104 -24c7 -2 11 -7 11 -15v-437c0 -8 -5 -13 -13 -13h-73c-7 0 -12 4 -14 11l-12 40
c-4 13 -11 17 -25 1c-40 -43 -90 -63 -139 -63c-129 0 -206 88 -206 237c0 173 95 276 256 276c40 0 72 -4 111 -13zM361 350l-20 5c-17 4 -29 6 -48 6c-64 0 -103 -50 -103 -135c1 -62 30 -97 81 -97c50 0 90 75 90 170v51z" />
    <glyph glyph-name="adieresis.ss01" horiz-adv-x="568" 
d="M191 737c51 0 80 -29 80 -82c0 -52 -29 -83 -80 -83c-50 0 -80 31 -80 83c0 53 30 82 80 82zM392 737c51 0 80 -29 80 -82c0 -52 -29 -83 -80 -83c-50 0 -80 31 -80 83c0 53 30 82 80 82zM417 11l-12 40c-4 13 -11 17 -25 1c-40 -43 -90 -63 -139 -63
c-129 0 -206 88 -206 237c0 173 95 276 256 276c40 0 72 -4 111 -13l104 -24c7 -2 11 -7 11 -15v-437c0 -8 -5 -13 -13 -13h-73c-7 0 -12 4 -14 11zM361 350l-20 5c-17 4 -29 6 -48 6c-64 0 -103 -50 -103 -135c1 -62 30 -97 81 -97c50 0 90 75 90 170v51z" />
    <glyph glyph-name="agrave.ss01" horiz-adv-x="568" 
d="M306 718l60 -146c4 -9 -1 -15 -10 -15h-107c-7 0 -12 3 -16 8l-98 147c-5 9 -2 16 9 16h147c8 0 12 -3 15 -10zM417 11l-12 40c-4 13 -11 17 -25 1c-40 -43 -90 -63 -139 -63c-129 0 -206 88 -206 237c0 173 95 276 256 276c40 0 72 -4 111 -13l104 -24
c7 -2 11 -7 11 -15v-437c0 -8 -5 -13 -13 -13h-73c-7 0 -12 4 -14 11zM361 350l-20 5c-17 4 -29 6 -48 6c-64 0 -103 -50 -103 -135c1 -62 30 -97 81 -97c50 0 90 75 90 170v51z" />
    <glyph glyph-name="amacron.ss01" horiz-adv-x="568" 
d="M162 692h261c8 0 13 -5 13 -13v-79c0 -8 -5 -13 -13 -13h-261c-8 0 -13 5 -13 13v79c0 8 5 13 13 13zM417 11l-12 40c-4 13 -11 17 -25 1c-40 -43 -90 -63 -139 -63c-129 0 -206 88 -206 237c0 173 95 276 256 276c40 0 72 -4 111 -13l104 -24c7 -2 11 -7 11 -15v-437
c0 -8 -5 -13 -13 -13h-73c-7 0 -12 4 -14 11zM361 350l-20 5c-17 4 -29 6 -48 6c-64 0 -103 -50 -103 -135c1 -62 30 -97 81 -97c50 0 90 75 90 170v51z" />
    </font>
</defs>
</svg>
